ply
format ascii 1.0
comment Created by Blender 2.92.0 - www.blender.org
element vertex 102
property float x
property float y
property float z
property float nx
property float ny
property float nz
element face 54
property list uchar uint vertex_indices
end_header
5.000000 0.000000 -0.500000 0.000000 -0.309017 -0.951056
-5.000000 -0.293893 -0.404509 0.000000 -0.309017 -0.951056
-5.000000 -0.000000 -0.500000 0.000000 -0.309017 -0.951056
5.000000 -0.293892 -0.404509 0.000000 -0.809017 -0.587785
-5.000000 -0.475529 -0.154508 0.000000 -0.809017 -0.587785
-5.000000 -0.293893 -0.404509 0.000000 -0.809017 -0.587785
5.000000 -0.475528 -0.154508 0.000000 -1.000000 0.000000
-5.000000 -0.475529 0.154509 0.000000 -1.000000 0.000000
-5.000000 -0.475529 -0.154508 0.000000 -1.000000 0.000000
5.000000 -0.475528 0.154509 0.000000 -0.809017 0.587785
-5.000000 -0.293893 0.404509 0.000000 -0.809017 0.587785
-5.000000 -0.475529 0.154509 0.000000 -0.809017 0.587785
5.000000 -0.293892 0.404509 0.000000 -0.309017 0.951057
-5.000000 -0.000000 0.500000 0.000000 -0.309017 0.951057
-5.000000 -0.293893 0.404509 0.000000 -0.309017 0.951057
5.000000 0.000000 0.500000 -0.000000 0.309017 0.951056
-5.000000 0.293892 0.404508 -0.000000 0.309017 0.951056
-5.000000 -0.000000 0.500000 -0.000000 0.309017 0.951056
5.000000 0.293893 0.404508 -0.000000 0.809017 0.587785
-5.000000 0.475528 0.154509 -0.000000 0.809017 0.587785
-5.000000 0.293892 0.404508 -0.000000 0.809017 0.587785
5.000000 0.475529 0.154509 -0.000000 1.000000 0.000000
-5.000000 0.475528 -0.154509 -0.000000 1.000000 0.000000
-5.000000 0.475528 0.154509 -0.000000 1.000000 0.000000
5.000000 0.000000 -0.500000 1.000000 0.000000 0.000000
5.000000 0.475529 -0.154509 1.000000 0.000000 0.000000
5.000000 -0.293892 0.404509 1.000000 0.000000 0.000000
5.000000 0.475529 -0.154509 -0.000000 0.809017 -0.587785
-5.000000 0.293892 -0.404509 -0.000000 0.809017 -0.587785
-5.000000 0.475528 -0.154509 -0.000000 0.809017 -0.587785
5.000000 0.293893 -0.404509 -0.000000 0.309017 -0.951057
-5.000000 -0.000000 -0.500000 -0.000000 0.309017 -0.951057
-5.000000 0.293892 -0.404509 -0.000000 0.309017 -0.951057
-5.000000 -0.475529 0.154509 -1.000000 -0.000000 0.000000
-5.000000 -0.000000 0.500000 -1.000000 -0.000000 0.000000
-5.000000 0.475528 0.154509 -1.000000 -0.000000 0.000000
5.000000 -0.293892 -0.404509 0.000000 -0.309017 -0.951056
5.000000 -0.475528 -0.154508 0.000000 -0.809017 -0.587785
5.000000 -0.475528 0.154509 0.000000 -1.000000 0.000000
5.000000 -0.293892 0.404509 0.000000 -0.809017 0.587785
5.000000 -0.293892 0.404509 0.000000 -0.309017 0.951056
5.000000 0.000000 0.500000 0.000000 -0.309017 0.951056
-5.000000 -0.000000 0.500000 0.000000 -0.309017 0.951056
5.000000 0.293893 0.404508 -0.000000 0.309017 0.951056
5.000000 0.475529 0.154509 -0.000000 0.809017 0.587785
5.000000 0.475529 -0.154509 -0.000000 1.000000 0.000000
5.000000 -0.475528 -0.154508 1.000000 0.000000 0.000000
5.000000 -0.293892 -0.404509 1.000000 0.000000 0.000000
5.000000 0.293893 -0.404509 1.000000 0.000000 0.000000
5.000000 0.475529 0.154509 1.000000 0.000000 0.000000
5.000000 0.293893 0.404508 1.000000 0.000000 0.000000
5.000000 0.000000 0.500000 1.000000 -0.000000 -0.000000
5.000000 -0.475528 0.154509 1.000000 0.000000 0.000000
5.000000 0.293893 -0.404509 -0.000000 0.809017 -0.587785
5.000000 0.000000 -0.500000 -0.000000 0.309017 -0.951057
-5.000000 0.293892 -0.404509 -1.000000 0.000000 0.000000
-5.000000 -0.000000 -0.500000 -1.000000 0.000000 0.000000
-5.000000 -0.293893 -0.404509 -1.000000 0.000000 0.000000
-5.000000 -0.475529 -0.154508 -1.000000 0.000000 -0.000000
-5.000000 -0.293893 0.404509 -1.000000 0.000000 0.000000
-5.000000 0.293892 0.404508 -1.000000 0.000000 0.000000
-5.000000 0.475528 -0.154509 -1.000000 0.000000 0.000000
-5.000000 0.000000 -2.000000 -0.535477 0.260980 -0.803215
-8.000000 -0.000000 0.000000 -0.535477 0.260980 -0.803215
-5.000000 1.175571 -1.618034 -0.535477 0.260980 -0.803215
-5.000000 1.175571 -1.618034 -0.535477 0.683255 -0.496414
-8.000000 -0.000000 0.000000 -0.535477 0.683255 -0.496414
-5.000000 1.902113 -0.618034 -0.535477 0.683255 -0.496414
-5.000000 1.902113 -0.618034 -0.535477 0.844550 0.000000
-8.000000 -0.000000 0.000000 -0.535477 0.844550 0.000000
-5.000000 1.902113 0.618034 -0.535477 0.844550 0.000000
-5.000000 1.902113 0.618034 -0.535477 0.683255 0.496414
-8.000000 -0.000000 0.000000 -0.535477 0.683255 0.496414
-5.000000 1.175570 1.618034 -0.535477 0.683255 0.496414
-5.000000 1.175570 1.618034 -0.535477 0.260980 0.803215
-8.000000 -0.000000 0.000000 -0.535477 0.260980 0.803215
-5.000000 -0.000000 2.000000 -0.535477 0.260980 0.803215
-5.000000 -0.000000 2.000000 -0.535477 -0.260980 0.803215
-8.000000 -0.000000 0.000000 -0.535477 -0.260980 0.803215
-5.000000 -1.175571 1.618034 -0.535477 -0.260980 0.803215
-5.000000 -1.175571 1.618034 -0.535477 -0.683255 0.496414
-8.000000 -0.000000 0.000000 -0.535477 -0.683255 0.496414
-5.000000 -1.902113 0.618034 -0.535477 -0.683255 0.496414
-5.000000 -1.902113 0.618034 -0.535477 -0.844550 0.000000
-8.000000 -0.000000 0.000000 -0.535477 -0.844550 0.000000
-5.000000 -1.902113 -0.618034 -0.535477 -0.844550 0.000000
-5.000000 1.902113 0.618034 1.000000 -0.000000 0.000000
-5.000000 -0.000000 2.000000 1.000000 -0.000000 0.000000
-5.000000 -1.902113 0.618034 1.000000 -0.000000 0.000000
-5.000000 -1.902113 -0.618034 -0.535477 -0.683255 -0.496414
-8.000000 -0.000000 0.000000 -0.535477 -0.683255 -0.496414
-5.000000 -1.175570 -1.618034 -0.535477 -0.683255 -0.496414
-5.000000 -1.175570 -1.618034 -0.535477 -0.260980 -0.803215
-8.000000 -0.000000 0.000000 -0.535477 -0.260980 -0.803215
-5.000000 0.000000 -2.000000 -0.535477 -0.260980 -0.803215
-5.000000 -1.175570 -1.618034 1.000000 0.000000 0.000000
-5.000000 0.000000 -2.000000 1.000000 0.000000 0.000000
-5.000000 1.175571 -1.618034 1.000000 0.000000 0.000000
-5.000000 1.902113 -0.618034 1.000000 0.000000 0.000000
-5.000000 1.175570 1.618034 1.000000 0.000000 0.000000
-5.000000 -1.175571 1.618034 1.000000 0.000000 0.000000
-5.000000 -1.902113 -0.618034 1.000000 0.000000 -0.000000
3 0 1 2
3 3 4 5
3 6 7 8
3 9 10 11
3 12 13 14
3 15 16 17
3 18 19 20
3 21 22 23
3 24 25 26
3 27 28 29
3 30 31 32
3 33 34 35
3 0 36 1
3 3 37 4
3 6 38 7
3 9 39 10
3 40 41 42
3 15 43 16
3 18 44 19
3 21 45 22
3 46 47 24
3 24 48 25
3 25 49 50
3 50 51 25
3 51 26 25
3 26 52 46
3 46 24 26
3 27 53 28
3 30 54 31
3 55 56 57
3 57 58 33
3 33 59 34
3 34 60 35
3 35 61 55
3 55 57 35
3 57 33 35
3 62 63 64
3 65 66 67
3 68 69 70
3 71 72 73
3 74 75 76
3 77 78 79
3 80 81 82
3 83 84 85
3 86 87 88
3 89 90 91
3 92 93 94
3 95 96 97
3 97 98 86
3 86 99 87
3 87 100 88
3 88 101 95
3 95 97 88
3 97 86 88
