ply
format ascii 1.0
comment Created by Blender 2.93.0 - www.blender.org
element vertex 114
property float x
property float y
property float z
property float nx
property float ny
property float nz
element face 40
property list uchar uint vertex_indices
end_header
-0.386561 0.966580 0.000000 -0.879331 0.476211 0.000000
-0.212074 1.288773 0.000000 -0.879331 0.476211 0.000000
-0.212074 1.288773 -0.324031 -0.879331 0.476211 0.000000
-0.386561 0.966580 -0.449998 -0.879331 0.476211 0.000000
0.000000 0.966580 -0.449998 0.000000 0.364126 -0.931350
0.000000 1.288773 -0.324031 0.000000 0.364126 -0.931350
0.212074 1.288773 -0.324031 0.000000 0.364126 -0.931350
0.386561 0.966580 -0.449998 0.000000 0.364126 -0.931350
0.386561 0.966580 0.000000 0.879331 0.476211 0.000000
0.212074 1.288773 0.000000 0.879331 0.476211 0.000000
0.212074 1.288773 0.324031 0.879331 0.476211 0.000000
0.386561 0.966580 0.449998 0.879331 0.476211 0.000000
0.000000 0.966580 0.449998 0.000000 0.364126 0.931350
0.000000 1.288773 0.324031 0.000000 0.364126 0.931350
-0.212074 1.288773 0.324031 0.000000 0.364126 0.931350
-0.386561 0.966580 0.449998 0.000000 0.364126 0.931350
0.000000 0.000000 0.000000 0.000000 -1.000000 -0.000000
0.212074 0.000000 0.000000 0.000000 -1.000000 -0.000000
0.212074 0.000000 0.481814 0.000000 -1.000000 -0.000000
0.000000 0.000000 0.481814 0.000000 -1.000000 -0.000000
0.000000 1.288773 0.000000 0.000000 1.000000 0.000000
-0.212074 1.288773 0.000000 0.000000 1.000000 0.000000
-0.212074 1.288773 0.324031 0.000000 1.000000 0.000000
0.000000 1.288773 0.324031 0.000000 1.000000 0.000000
0.000000 0.322193 0.624081 -0.000000 0.147702 0.989032
0.000000 0.644387 0.575965 -0.000000 0.147702 0.989032
-0.431781 0.644387 0.575965 -0.000000 0.147702 0.989032
-0.386561 0.322193 0.624081 -0.000000 0.147702 0.989032
0.386561 0.322193 -0.000000 0.990294 -0.138988 0.000000
0.431781 0.644387 0.000000 0.990294 -0.138988 0.000000
0.431781 0.644387 0.575965 0.990294 -0.138988 0.000000
0.386561 0.322193 0.624081 0.990294 -0.138988 0.000000
0.000000 0.322193 -0.624081 0.000000 0.147702 -0.989032
0.000000 0.644387 -0.575965 0.000000 0.147702 -0.989032
0.431781 0.644387 -0.575965 0.000000 0.147702 -0.989032
0.386561 0.322193 -0.624081 0.000000 0.147702 -0.989032
-0.386561 0.322193 -0.000000 -0.990294 -0.138988 0.000000
-0.431781 0.644387 -0.000000 -0.990294 -0.138988 0.000000
-0.431781 0.644387 -0.575965 -0.990294 -0.138988 0.000000
-0.386561 0.322193 -0.624081 -0.990294 -0.138988 0.000000
-0.212074 0.000000 0.000000 -0.879331 -0.476211 0.000000
-0.386561 0.322193 -0.000000 -0.879331 -0.476211 0.000000
-0.386561 0.322193 -0.624081 -0.879331 -0.476211 0.000000
-0.212074 0.000000 -0.481814 -0.879331 -0.476211 0.000000
0.000000 0.000000 -0.481814 0.000000 -0.403931 -0.914789
0.000000 0.322193 -0.624081 0.000000 -0.403931 -0.914789
0.386561 0.322193 -0.624081 0.000000 -0.403931 -0.914789
0.212074 0.000000 -0.481814 0.000000 -0.403931 -0.914789
0.212074 0.000000 0.000000 0.879331 -0.476211 0.000000
0.386561 0.322193 -0.000000 0.879331 -0.476211 0.000000
0.386561 0.322193 0.624081 0.879331 -0.476211 0.000000
0.212074 0.000000 0.481814 0.879331 -0.476211 0.000000
0.000000 0.000000 0.481814 -0.000000 -0.403931 0.914789
0.000000 0.322193 0.624081 -0.000000 -0.403931 0.914789
-0.386561 0.322193 0.624081 -0.000000 -0.403931 0.914789
-0.212074 0.000000 0.481814 -0.000000 -0.403931 0.914789
0.000000 0.644387 0.575965 -0.000000 0.364127 0.931349
0.000000 0.966580 0.449998 -0.000000 0.364127 0.931349
-0.386561 0.966580 0.449998 -0.000000 0.364127 0.931349
-0.431781 0.644387 0.575965 -0.000000 0.364127 0.931349
0.431781 0.644387 0.000000 0.990294 0.138988 0.000000
0.386561 0.966580 0.000000 0.990294 0.138988 0.000000
0.386561 0.966580 0.449998 0.990294 0.138988 0.000000
0.431781 0.644387 0.575965 0.990294 0.138988 0.000000
-0.431781 0.644387 -0.000000 -0.990294 0.138988 0.000000
-0.386561 0.966580 0.000000 -0.990294 0.138988 0.000000
-0.386561 0.966580 -0.449998 -0.990294 0.138988 0.000000
-0.431781 0.644387 -0.575965 -0.990294 0.138988 0.000000
-0.431781 0.644387 0.575965 -0.990294 0.138988 0.000000
-0.386561 0.966580 0.449998 -0.990294 0.138988 0.000000
0.431781 0.644387 -0.575965 0.990294 0.138988 0.000000
0.386561 0.966580 -0.449998 0.990294 0.138988 0.000000
0.212074 0.000000 -0.481814 0.879331 -0.476211 0.000000
0.386561 0.322193 -0.624081 0.879331 -0.476211 0.000000
-0.212074 0.000000 0.481814 -0.879331 -0.476211 0.000000
-0.386561 0.322193 0.624081 -0.879331 -0.476211 0.000000
-0.386561 0.322193 0.624081 -0.990294 -0.138988 0.000000
-0.431781 0.644387 0.575965 -0.990294 -0.138988 0.000000
0.386561 0.322193 -0.624081 0.990294 -0.138988 0.000000
0.431781 0.644387 -0.575965 0.990294 -0.138988 0.000000
0.000000 1.288773 -0.324031 0.000000 1.000000 0.000000
-0.212074 1.288773 -0.324031 0.000000 1.000000 0.000000
0.000000 0.000000 -0.481814 0.000000 -1.000000 -0.000000
0.212074 0.000000 -0.481814 0.000000 -1.000000 -0.000000
0.386561 0.966580 -0.449998 0.879331 0.476211 0.000000
0.212074 1.288773 -0.324031 0.879331 0.476211 0.000000
-0.386561 0.966580 0.449998 -0.879331 0.476211 0.000000
-0.212074 1.288773 0.324031 -0.879331 0.476211 0.000000
-0.212074 0.000000 -0.481814 0.000000 -1.000000 -0.000000
-0.212074 0.000000 0.000000 0.000000 -1.000000 -0.000000
0.212074 1.288773 -0.324031 0.000000 1.000000 0.000000
0.212074 1.288773 0.000000 0.000000 1.000000 0.000000
-0.431781 0.644387 -0.575965 0.000000 0.364127 -0.931349
-0.386561 0.966580 -0.449998 0.000000 0.364127 -0.931349
0.000000 0.966580 -0.449998 0.000000 0.364127 -0.931349
0.000000 0.644387 -0.575965 0.000000 0.364127 -0.931349
0.212074 0.000000 0.481814 0.000000 -0.403931 0.914789
0.386561 0.322193 0.624081 0.000000 -0.403931 0.914789
-0.212074 0.000000 -0.481814 0.000000 -0.403931 -0.914789
-0.386561 0.322193 -0.624081 0.000000 -0.403931 -0.914789
-0.386561 0.322193 -0.624081 0.000000 0.147702 -0.989032
-0.431781 0.644387 -0.575965 0.000000 0.147702 -0.989032
0.386561 0.322193 0.624081 0.000000 0.147702 0.989032
0.431781 0.644387 0.575965 0.000000 0.147702 0.989032
0.212074 1.288773 0.324031 0.000000 1.000000 0.000000
-0.212074 0.000000 0.481814 0.000000 -1.000000 -0.000000
0.386561 0.966580 0.449998 0.000000 0.364126 0.931350
0.212074 1.288773 0.324031 0.000000 0.364126 0.931350
-0.386561 0.966580 -0.449998 0.000000 0.364126 -0.931350
-0.212074 1.288773 -0.324031 0.000000 0.364126 -0.931350
0.386561 0.966580 -0.449998 0.000000 0.364127 -0.931349
0.431781 0.644387 -0.575965 0.000000 0.364127 -0.931349
0.431781 0.644387 0.575965 0.000000 0.364127 0.931349
0.386561 0.966580 0.449998 0.000000 0.364127 0.931349
4 0 1 2 3
4 4 5 6 7
4 8 9 10 11
4 12 13 14 15
4 16 17 18 19
4 20 21 22 23
4 24 25 26 27
4 28 29 30 31
4 32 33 34 35
4 36 37 38 39
4 40 41 42 43
4 44 45 46 47
4 48 49 50 51
4 52 53 54 55
4 56 57 58 59
4 60 61 62 63
4 64 65 66 67
4 68 69 65 64
4 70 71 61 60
4 72 73 49 48
4 74 75 41 40
4 76 77 37 36
4 78 79 29 28
4 80 81 21 20
4 82 83 17 16
4 84 85 9 8
4 86 87 1 0
4 88 82 16 89
4 90 80 20 91
4 92 93 94 95
4 96 97 53 52
4 98 99 45 44
4 100 101 33 32
4 102 103 25 24
4 91 20 23 104
4 89 16 19 105
4 106 107 13 12
4 108 109 5 4
4 95 94 110 111
4 56 112 113 57
