ply
format ascii 1.0
comment Created by Blender 2.93.0 - www.blender.org
element vertex 240
property float x
property float y
property float z
property float nx
property float ny
property float nz
element face 80
property list uchar uint vertex_indices
end_header
0.121554 1.270561 0.000000 0.102381 -0.943524 0.315090
0.254880 1.317377 0.096866 0.102381 -0.943524 0.315090
0.070629 1.317377 0.156733 0.102381 -0.943524 0.315090
0.348383 1.443841 0.164799 0.700224 -0.661699 0.268032
0.254880 1.317377 0.096866 0.700224 -0.661699 0.268032
0.388207 1.419229 0.000000 0.700224 -0.661699 0.268032
0.121554 1.270561 0.000000 -0.268034 -0.943523 0.194736
0.070629 1.317377 0.156733 -0.268034 -0.943523 0.194736
-0.043246 1.317378 0.000000 -0.268034 -0.943523 0.194736
0.121554 1.270561 0.000000 -0.268034 -0.943523 -0.194736
-0.043246 1.317378 0.000000 -0.268034 -0.943523 -0.194736
0.070629 1.317377 -0.156733 -0.268034 -0.943523 -0.194736
0.121554 1.270561 0.000000 0.102381 -0.943524 -0.315090
0.070629 1.317377 -0.156733 0.102381 -0.943524 -0.315090
0.254880 1.317377 -0.096866 0.102381 -0.943524 -0.315090
0.348383 1.443841 0.164799 0.904989 -0.330385 0.268032
0.388207 1.419229 0.000000 0.904989 -0.330385 0.268032
0.419682 1.584031 0.096866 0.904989 -0.330385 0.268032
0.034915 1.443841 0.266653 0.024747 -0.330386 0.943521
0.203956 1.419228 0.253601 0.024747 -0.330386 0.943521
0.121554 1.584031 0.313470 0.024747 -0.330386 0.943521
-0.158821 1.443843 0.000000 -0.889697 -0.330385 0.315095
-0.094172 1.419229 0.156734 -0.889697 -0.330385 0.315095
-0.176574 1.584031 0.096866 -0.889697 -0.330385 0.315095
0.034915 1.443841 -0.266653 -0.574602 -0.330388 -0.748784
-0.094172 1.419229 -0.156734 -0.574602 -0.330388 -0.748784
-0.062699 1.584031 -0.253602 -0.574602 -0.330388 -0.748784
0.348383 1.443841 -0.164799 0.534576 -0.330387 -0.777865
0.203956 1.419228 -0.253601 0.534576 -0.330387 -0.777865
0.305807 1.584031 -0.253602 0.534576 -0.330387 -0.777865
0.348383 1.443841 0.164799 0.802609 -0.125627 0.583126
0.419682 1.584031 0.096866 0.802609 -0.125627 0.583126
0.305807 1.584031 0.253602 0.802609 -0.125627 0.583126
0.034915 1.443841 0.266653 -0.306569 -0.125629 0.943522
0.121554 1.584031 0.313470 -0.306569 -0.125629 0.943522
-0.062699 1.584031 0.253602 -0.306569 -0.125629 0.943522
-0.158821 1.443843 0.000000 -0.992077 -0.125628 0.000000
-0.176574 1.584031 0.096866 -0.992077 -0.125628 0.000000
-0.176574 1.584031 -0.096866 -0.992077 -0.125628 0.000000
0.034915 1.443841 -0.266653 -0.306569 -0.125629 -0.943522
-0.062699 1.584031 -0.253602 -0.306569 -0.125629 -0.943522
0.121554 1.584031 -0.313470 -0.306569 -0.125629 -0.943522
0.348383 1.443841 -0.164799 0.802609 -0.125627 -0.583126
0.305807 1.584031 -0.253602 0.802609 -0.125627 -0.583126
0.419682 1.584031 -0.096866 0.802609 -0.125627 -0.583126
0.208194 1.724221 0.266653 0.408946 0.661699 0.628425
0.337281 1.748834 0.156734 0.408946 0.661699 0.628425
0.172479 1.850685 0.156733 0.408946 0.661699 0.628425
-0.105275 1.724221 0.164799 -0.471300 0.661699 0.583122
0.039153 1.748834 0.253601 -0.471300 0.661699 0.583122
-0.011772 1.850685 0.096866 -0.471300 0.661699 0.583122
-0.105275 1.724221 -0.164799 -0.700224 0.661699 -0.268032
-0.145098 1.748833 0.000000 -0.700224 0.661699 -0.268032
-0.011772 1.850685 -0.096866 -0.700224 0.661699 -0.268032
0.208194 1.724221 -0.266653 0.038530 0.661699 -0.748779
0.039153 1.748834 -0.253601 0.038530 0.661699 -0.748779
0.172479 1.850685 -0.156733 0.038530 0.661699 -0.748779
0.401930 1.724220 0.000000 0.724042 0.661695 -0.194736
0.337281 1.748834 -0.156734 0.724042 0.661695 -0.194736
0.286355 1.850685 0.000000 0.724042 0.661695 -0.194736
0.286355 1.850685 0.000000 0.268034 0.943523 -0.194737
0.172479 1.850685 -0.156733 0.268034 0.943523 -0.194737
0.121554 1.897501 0.000000 0.268034 0.943523 -0.194737
0.286355 1.850685 0.000000 0.491119 0.794658 -0.356821
0.337281 1.748834 -0.156734 0.491119 0.794658 -0.356821
0.172479 1.850685 -0.156733 0.491119 0.794658 -0.356821
0.337281 1.748834 -0.156734 0.408946 0.661699 -0.628425
0.208194 1.724221 -0.266653 0.408946 0.661699 -0.628425
0.172479 1.850685 -0.156733 0.408946 0.661699 -0.628425
0.172479 1.850685 -0.156733 -0.102381 0.943523 -0.315090
-0.011772 1.850685 -0.096866 -0.102381 0.943523 -0.315090
0.121554 1.897501 0.000000 -0.102381 0.943523 -0.315090
0.172479 1.850685 -0.156733 -0.187594 0.794657 -0.577346
0.039153 1.748834 -0.253601 -0.187594 0.794657 -0.577346
-0.011772 1.850685 -0.096866 -0.187594 0.794657 -0.577346
0.039153 1.748834 -0.253601 -0.471300 0.661698 -0.583122
-0.105275 1.724221 -0.164799 -0.471300 0.661698 -0.583122
-0.011772 1.850685 -0.096866 -0.471300 0.661698 -0.583122
-0.011772 1.850685 -0.096866 -0.331305 0.943524 0.000000
-0.011772 1.850685 0.096866 -0.331305 0.943524 0.000000
0.121554 1.897501 0.000000 -0.331305 0.943524 0.000000
-0.011772 1.850685 -0.096866 -0.607061 0.794656 0.000000
-0.145098 1.748833 0.000000 -0.607061 0.794656 0.000000
-0.011772 1.850685 0.096866 -0.607061 0.794656 0.000000
-0.145098 1.748833 0.000000 -0.700224 0.661699 0.268032
-0.105275 1.724221 0.164799 -0.700224 0.661699 0.268032
-0.011772 1.850685 0.096866 -0.700224 0.661699 0.268032
-0.011772 1.850685 0.096866 -0.102381 0.943523 0.315090
0.172479 1.850685 0.156733 -0.102381 0.943523 0.315090
0.121554 1.897501 0.000000 -0.102381 0.943523 0.315090
-0.011772 1.850685 0.096866 -0.187594 0.794657 0.577346
0.039153 1.748834 0.253601 -0.187594 0.794657 0.577346
0.172479 1.850685 0.156733 -0.187594 0.794657 0.577346
0.039153 1.748834 0.253601 0.038530 0.661699 0.748779
0.208194 1.724221 0.266653 0.038530 0.661699 0.748779
0.172479 1.850685 0.156733 0.038530 0.661699 0.748779
0.172479 1.850685 0.156733 0.268034 0.943523 0.194737
0.286355 1.850685 0.000000 0.268034 0.943523 0.194737
0.121554 1.897501 0.000000 0.268034 0.943523 0.194737
0.172479 1.850685 0.156733 0.491119 0.794658 0.356821
0.337281 1.748834 0.156734 0.491119 0.794658 0.356821
0.286355 1.850685 0.000000 0.491119 0.794658 0.356821
0.337281 1.748834 0.156734 0.724042 0.661695 0.194736
0.401930 1.724220 0.000000 0.724042 0.661695 0.194736
0.286355 1.850685 0.000000 0.724042 0.661695 0.194736
0.419682 1.584031 -0.096866 0.889697 0.330385 -0.315095
0.337281 1.748834 -0.156734 0.889697 0.330385 -0.315095
0.401930 1.724220 0.000000 0.889697 0.330385 -0.315095
0.419682 1.584031 -0.096866 0.794656 0.187595 -0.577348
0.305807 1.584031 -0.253602 0.794656 0.187595 -0.577348
0.337281 1.748834 -0.156734 0.794656 0.187595 -0.577348
0.305807 1.584031 -0.253602 0.574602 0.330388 -0.748784
0.208194 1.724221 -0.266653 0.574602 0.330388 -0.748784
0.337281 1.748834 -0.156734 0.574602 0.330388 -0.748784
0.121554 1.584031 -0.313470 -0.024747 0.330386 -0.943521
0.039153 1.748834 -0.253601 -0.024747 0.330386 -0.943521
0.208194 1.724221 -0.266653 -0.024747 0.330386 -0.943521
0.121554 1.584031 -0.313470 -0.303531 0.187597 -0.934171
-0.062699 1.584031 -0.253602 -0.303531 0.187597 -0.934171
0.039153 1.748834 -0.253601 -0.303531 0.187597 -0.934171
-0.062699 1.584031 -0.253602 -0.534576 0.330387 -0.777865
-0.105275 1.724221 -0.164799 -0.534576 0.330387 -0.777865
0.039153 1.748834 -0.253601 -0.534576 0.330387 -0.777865
-0.176574 1.584031 -0.096866 -0.904989 0.330385 -0.268032
-0.145098 1.748833 0.000000 -0.904989 0.330385 -0.268032
-0.105275 1.724221 -0.164799 -0.904989 0.330385 -0.268032
-0.176574 1.584031 -0.096866 -0.982246 0.187598 0.000000
-0.176574 1.584031 0.096866 -0.982246 0.187598 0.000000
-0.145098 1.748833 0.000000 -0.982246 0.187598 0.000000
-0.176574 1.584031 0.096866 -0.904989 0.330385 0.268032
-0.105275 1.724221 0.164799 -0.904989 0.330385 0.268032
-0.145098 1.748833 0.000000 -0.904989 0.330385 0.268032
-0.062699 1.584031 0.253602 -0.534576 0.330387 0.777865
0.039153 1.748834 0.253601 -0.534576 0.330387 0.777865
-0.105275 1.724221 0.164799 -0.534576 0.330387 0.777865
-0.062699 1.584031 0.253602 -0.303531 0.187597 0.934171
0.121554 1.584031 0.313470 -0.303531 0.187597 0.934171
0.039153 1.748834 0.253601 -0.303531 0.187597 0.934171
0.121554 1.584031 0.313470 -0.024747 0.330386 0.943521
0.208194 1.724221 0.266653 -0.024747 0.330386 0.943521
0.039153 1.748834 0.253601 -0.024747 0.330386 0.943521
0.305807 1.584031 0.253602 0.574602 0.330388 0.748784
0.337281 1.748834 0.156734 0.574602 0.330388 0.748784
0.208194 1.724221 0.266653 0.574602 0.330388 0.748784
0.305807 1.584031 0.253602 0.794656 0.187595 0.577348
0.419682 1.584031 0.096866 0.794656 0.187595 0.577348
0.337281 1.748834 0.156734 0.794656 0.187595 0.577348
0.419682 1.584031 0.096866 0.889697 0.330385 0.315094
0.401930 1.724220 0.000000 0.889697 0.330385 0.315094
0.337281 1.748834 0.156734 0.889697 0.330385 0.315094
0.305807 1.584031 -0.253602 0.306569 0.125629 -0.943522
0.121554 1.584031 -0.313470 0.306569 0.125629 -0.943522
0.208194 1.724221 -0.266653 0.306569 0.125629 -0.943522
0.305807 1.584031 -0.253602 0.303531 -0.187597 -0.934171
0.203956 1.419228 -0.253601 0.303531 -0.187597 -0.934171
0.121554 1.584031 -0.313470 0.303531 -0.187597 -0.934171
0.203956 1.419228 -0.253601 0.024747 -0.330386 -0.943521
0.034915 1.443841 -0.266653 0.024747 -0.330386 -0.943521
0.121554 1.584031 -0.313470 0.024747 -0.330386 -0.943521
-0.062699 1.584031 -0.253602 -0.802609 0.125627 -0.583126
-0.176574 1.584031 -0.096866 -0.802609 0.125627 -0.583126
-0.105275 1.724221 -0.164799 -0.802609 0.125627 -0.583126
-0.062699 1.584031 -0.253602 -0.794656 -0.187595 -0.577348
-0.094172 1.419229 -0.156734 -0.794656 -0.187595 -0.577348
-0.176574 1.584031 -0.096866 -0.794656 -0.187595 -0.577348
-0.094172 1.419229 -0.156734 -0.889697 -0.330385 -0.315095
-0.158821 1.443843 0.000000 -0.889697 -0.330385 -0.315095
-0.176574 1.584031 -0.096866 -0.889697 -0.330385 -0.315095
-0.176574 1.584031 0.096866 -0.802609 0.125627 0.583126
-0.062699 1.584031 0.253602 -0.802609 0.125627 0.583126
-0.105275 1.724221 0.164799 -0.802609 0.125627 0.583126
-0.176574 1.584031 0.096866 -0.794656 -0.187595 0.577348
-0.094172 1.419229 0.156734 -0.794656 -0.187595 0.577348
-0.062699 1.584031 0.253602 -0.794656 -0.187595 0.577348
-0.094172 1.419229 0.156734 -0.574602 -0.330388 0.748784
0.034915 1.443841 0.266653 -0.574602 -0.330388 0.748784
-0.062699 1.584031 0.253602 -0.574602 -0.330388 0.748784
0.121554 1.584031 0.313470 0.306569 0.125629 0.943522
0.305807 1.584031 0.253602 0.306569 0.125629 0.943522
0.208194 1.724221 0.266653 0.306569 0.125629 0.943522
0.121554 1.584031 0.313470 0.303531 -0.187597 0.934171
0.203956 1.419228 0.253601 0.303531 -0.187597 0.934171
0.305807 1.584031 0.253602 0.303531 -0.187597 0.934171
0.203956 1.419228 0.253601 0.534576 -0.330387 0.777865
0.348383 1.443841 0.164799 0.534576 -0.330387 0.777865
0.305807 1.584031 0.253602 0.534576 -0.330387 0.777865
0.419682 1.584031 0.096866 0.992077 0.125628 -0.000000
0.419682 1.584031 -0.096866 0.992077 0.125628 -0.000000
0.401930 1.724220 0.000000 0.992077 0.125628 -0.000000
0.419682 1.584031 0.096866 0.982246 -0.187598 0.000000
0.388207 1.419229 0.000000 0.982246 -0.187598 0.000000
0.419682 1.584031 -0.096866 0.982246 -0.187598 0.000000
0.388207 1.419229 0.000000 0.904989 -0.330385 -0.268032
0.348383 1.443841 -0.164799 0.904989 -0.330385 -0.268032
0.419682 1.584031 -0.096866 0.904989 -0.330385 -0.268032
0.254880 1.317377 -0.096866 0.471300 -0.661699 -0.583122
0.203956 1.419228 -0.253601 0.471300 -0.661699 -0.583122
0.348383 1.443841 -0.164799 0.471300 -0.661699 -0.583122
0.254880 1.317377 -0.096866 0.187595 -0.794657 -0.577346
0.070629 1.317377 -0.156733 0.187595 -0.794657 -0.577346
0.203956 1.419228 -0.253601 0.187595 -0.794657 -0.577346
0.070629 1.317377 -0.156733 -0.038530 -0.661699 -0.748779
0.034915 1.443841 -0.266653 -0.038530 -0.661699 -0.748779
0.203956 1.419228 -0.253601 -0.038530 -0.661699 -0.748779
0.070629 1.317377 -0.156733 -0.408946 -0.661698 -0.628425
-0.094172 1.419229 -0.156734 -0.408946 -0.661698 -0.628425
0.034915 1.443841 -0.266653 -0.408946 -0.661698 -0.628425
0.070629 1.317377 -0.156733 -0.491120 -0.794657 -0.356821
-0.043246 1.317378 0.000000 -0.491120 -0.794657 -0.356821
-0.094172 1.419229 -0.156734 -0.491120 -0.794657 -0.356821
-0.043246 1.317378 0.000000 -0.724042 -0.661695 -0.194736
-0.158821 1.443843 0.000000 -0.724042 -0.661695 -0.194736
-0.094172 1.419229 -0.156734 -0.724042 -0.661695 -0.194736
-0.043246 1.317378 0.000000 -0.724042 -0.661695 0.194736
-0.094172 1.419229 0.156734 -0.724042 -0.661695 0.194736
-0.158821 1.443843 0.000000 -0.724042 -0.661695 0.194736
-0.043246 1.317378 0.000000 -0.491120 -0.794657 0.356821
0.070629 1.317377 0.156733 -0.491120 -0.794657 0.356821
-0.094172 1.419229 0.156734 -0.491120 -0.794657 0.356821
0.070629 1.317377 0.156733 -0.408946 -0.661698 0.628425
0.034915 1.443841 0.266653 -0.408946 -0.661698 0.628425
-0.094172 1.419229 0.156734 -0.408946 -0.661698 0.628425
0.388207 1.419229 0.000000 0.700224 -0.661699 -0.268032
0.254880 1.317377 -0.096866 0.700224 -0.661699 -0.268032
0.348383 1.443841 -0.164799 0.700224 -0.661699 -0.268032
0.388207 1.419229 0.000000 0.607061 -0.794656 0.000000
0.254880 1.317377 0.096866 0.607061 -0.794656 0.000000
0.254880 1.317377 -0.096866 0.607061 -0.794656 0.000000
0.254880 1.317377 0.096866 0.331305 -0.943524 0.000000
0.121554 1.270561 0.000000 0.331305 -0.943524 0.000000
0.254880 1.317377 -0.096866 0.331305 -0.943524 0.000000
0.070629 1.317377 0.156733 -0.038530 -0.661699 0.748779
0.203956 1.419228 0.253601 -0.038530 -0.661699 0.748779
0.034915 1.443841 0.266653 -0.038530 -0.661699 0.748779
0.070629 1.317377 0.156733 0.187595 -0.794657 0.577346
0.254880 1.317377 0.096866 0.187595 -0.794657 0.577346
0.203956 1.419228 0.253601 0.187595 -0.794657 0.577346
0.254880 1.317377 0.096866 0.471300 -0.661698 0.583122
0.348383 1.443841 0.164799 0.471300 -0.661698 0.583122
0.203956 1.419228 0.253601 0.471300 -0.661698 0.583122
3 0 1 2
3 3 4 5
3 6 7 8
3 9 10 11
3 12 13 14
3 15 16 17
3 18 19 20
3 21 22 23
3 24 25 26
3 27 28 29
3 30 31 32
3 33 34 35
3 36 37 38
3 39 40 41
3 42 43 44
3 45 46 47
3 48 49 50
3 51 52 53
3 54 55 56
3 57 58 59
3 60 61 62
3 63 64 65
3 66 67 68
3 69 70 71
3 72 73 74
3 75 76 77
3 78 79 80
3 81 82 83
3 84 85 86
3 87 88 89
3 90 91 92
3 93 94 95
3 96 97 98
3 99 100 101
3 102 103 104
3 105 106 107
3 108 109 110
3 111 112 113
3 114 115 116
3 117 118 119
3 120 121 122
3 123 124 125
3 126 127 128
3 129 130 131
3 132 133 134
3 135 136 137
3 138 139 140
3 141 142 143
3 144 145 146
3 147 148 149
3 150 151 152
3 153 154 155
3 156 157 158
3 159 160 161
3 162 163 164
3 165 166 167
3 168 169 170
3 171 172 173
3 174 175 176
3 177 178 179
3 180 181 182
3 183 184 185
3 186 187 188
3 189 190 191
3 192 193 194
3 195 196 197
3 198 199 200
3 201 202 203
3 204 205 206
3 207 208 209
3 210 211 212
3 213 214 215
3 216 217 218
3 219 220 221
3 222 223 224
3 225 226 227
3 228 229 230
3 231 232 233
3 234 235 236
3 237 238 239
