ply
format ascii 1.0
comment Created by Blender 2.93.0 - www.blender.org
element vertex 493
property float x
property float y
property float z
property float nx
property float ny
property float nz
element face 213
property list uchar uint vertex_indices
end_header
-0.089724 1.173808 -0.733775 0.015372 -0.997082 0.074775
0.492098 1.199251 -0.514108 0.015372 -0.997082 0.074775
-0.671545 1.199251 -0.274885 0.015372 -0.997082 0.074775
-0.671545 1.199251 0.274885 0.909276 -0.416193 0.000000
-0.671545 1.199251 -0.274885 0.909276 -0.416193 0.000000
-0.089724 2.470386 0.000000 0.909276 -0.416193 0.000000
-0.015851 1.254039 0.000000 0.027240 -0.990808 -0.132503
0.492098 1.199251 0.514108 0.027240 -0.990808 -0.132503
-0.671545 1.199251 0.274885 0.027240 -0.990808 -0.132503
-0.089724 1.173808 0.733775 0.015372 -0.997082 -0.074775
-0.671545 1.199251 0.274885 0.015372 -0.997082 -0.074775
0.492098 1.199251 0.514108 0.015372 -0.997082 -0.074775
0.492098 1.199251 -0.514108 0.027240 -0.990808 0.132503
-0.015851 1.254039 0.000000 0.027240 -0.990808 0.132503
-0.671545 1.199251 -0.274885 0.027240 -0.990808 0.132503
-0.671545 1.199251 0.274885 0.083267 -0.996527 0.000000
-0.671545 1.199251 -0.274885 0.083267 -0.996527 0.000000
-0.015851 1.254039 0.000000 0.083267 -0.996527 0.000000
0.000667 1.888520 0.000000 0.205528 -0.486733 -0.849029
0.262463 1.999065 0.000000 0.205528 -0.486733 -0.849029
0.492098 1.199251 0.514108 0.205528 -0.486733 -0.849029
-0.089724 2.470386 0.000000 0.794787 0.123468 0.594196
0.000667 1.888520 0.000000 0.794787 0.123468 0.594196
0.492098 1.199251 -0.514108 0.794787 0.123468 0.594196
0.000667 1.888520 0.000000 0.794787 0.123468 -0.594196
-0.089724 2.470386 0.000000 0.794787 0.123468 -0.594196
0.492098 1.199251 0.514108 0.794787 0.123468 -0.594196
-0.750980 1.306742 0.000000 -0.794493 0.451482 -0.406135
-0.089724 2.470386 0.000000 -0.794493 0.451482 -0.406135
-0.671545 1.199251 -0.274885 -0.794493 0.451482 -0.406135
-0.089724 2.470386 0.000000 -0.794493 0.451482 0.406135
-0.750980 1.306742 0.000000 -0.794493 0.451482 0.406135
-0.671545 1.199251 0.274885 -0.794493 0.451482 0.406135
-0.089724 1.173808 -0.733775 0.293518 0.470834 -0.831963
-0.089724 2.470386 0.000000 0.293518 0.470834 -0.831963
0.492098 1.199251 -0.514108 0.293518 0.470834 -0.831963
-0.089724 2.470386 0.000000 -0.553666 0.410147 -0.724729
-0.089724 1.173808 -0.733775 -0.553666 0.410147 -0.724729
-0.671545 1.199251 -0.274885 -0.553666 0.410147 -0.724729
-0.089724 2.470386 0.000000 0.293518 0.470834 0.831963
-0.089724 1.173808 0.733775 0.293518 0.470834 0.831963
0.492098 1.199251 0.514108 0.293518 0.470834 0.831963
-0.671545 1.199251 0.274885 -0.553666 0.410147 0.724729
-0.089724 1.173808 0.733775 -0.553666 0.410147 0.724729
-0.089724 2.470386 0.000000 -0.553666 0.410147 0.724729
0.262463 1.999065 0.000000 0.694918 0.519267 0.497444
-0.089724 2.470386 0.000000 0.694918 0.519267 0.497444
0.492098 1.199251 0.514108 0.694918 0.519267 0.497444
0.492098 1.199251 -0.514108 0.694918 0.519267 -0.497444
-0.089724 2.470386 0.000000 0.694918 0.519267 -0.497444
0.262463 1.999065 0.000000 0.694918 0.519267 -0.497444
0.492098 1.199251 -0.514108 0.710247 -0.018491 0.703710
0.000667 1.888520 0.000000 0.710247 -0.018491 0.703710
-0.015851 1.254039 0.000000 0.710247 -0.018491 0.703710
-0.015851 1.254039 0.000000 0.710247 -0.018491 -0.703710
0.000667 1.888520 0.000000 0.710247 -0.018491 -0.703710
0.492098 1.199251 0.514108 0.710247 -0.018491 -0.703710
-0.671545 1.199251 -0.274885 -0.804229 -0.594319 -0.000000
-0.671545 1.199251 0.274885 -0.804229 -0.594319 -0.000000
-0.750980 1.306742 0.000000 -0.804229 -0.594319 -0.000000
0.000667 1.888520 0.000000 0.205528 -0.486733 0.849029
0.492098 1.199251 -0.514108 0.205528 -0.486733 0.849029
0.262463 1.999065 0.000000 0.205528 -0.486733 0.849029
0.121554 1.270561 0.000000 0.102381 -0.943524 0.315090
0.254880 1.317377 0.096866 0.102381 -0.943524 0.315090
0.070629 1.317377 0.156733 0.102381 -0.943524 0.315090
0.348383 1.443841 0.164799 0.700224 -0.661699 0.268032
0.254880 1.317377 0.096866 0.700224 -0.661699 0.268032
0.388207 1.419229 0.000000 0.700224 -0.661699 0.268032
0.121554 1.270561 0.000000 -0.268034 -0.943523 0.194736
0.070629 1.317377 0.156733 -0.268034 -0.943523 0.194736
-0.043246 1.317378 0.000000 -0.268034 -0.943523 0.194736
0.121554 1.270561 0.000000 -0.268034 -0.943523 -0.194736
-0.043246 1.317378 0.000000 -0.268034 -0.943523 -0.194736
0.070629 1.317377 -0.156733 -0.268034 -0.943523 -0.194736
0.121554 1.270561 0.000000 0.102381 -0.943524 -0.315090
0.070629 1.317377 -0.156733 0.102381 -0.943524 -0.315090
0.254880 1.317377 -0.096866 0.102381 -0.943524 -0.315090
0.348383 1.443841 0.164799 0.904989 -0.330385 0.268032
0.388207 1.419229 0.000000 0.904989 -0.330385 0.268032
0.419682 1.584031 0.096866 0.904989 -0.330385 0.268032
0.034915 1.443841 0.266653 0.024747 -0.330386 0.943521
0.203956 1.419228 0.253601 0.024747 -0.330386 0.943521
0.121554 1.584031 0.313470 0.024747 -0.330386 0.943521
-0.158821 1.443843 0.000000 -0.889697 -0.330385 0.315095
-0.094172 1.419229 0.156734 -0.889697 -0.330385 0.315095
-0.176574 1.584031 0.096866 -0.889697 -0.330385 0.315095
0.034915 1.443841 -0.266653 -0.574602 -0.330388 -0.748784
-0.094172 1.419229 -0.156734 -0.574602 -0.330388 -0.748784
-0.062699 1.584031 -0.253602 -0.574602 -0.330388 -0.748784
0.348383 1.443841 -0.164799 0.534576 -0.330387 -0.777865
0.203956 1.419228 -0.253601 0.534576 -0.330387 -0.777865
0.305807 1.584031 -0.253602 0.534576 -0.330387 -0.777865
0.348383 1.443841 0.164799 0.802609 -0.125627 0.583126
0.419682 1.584031 0.096866 0.802609 -0.125627 0.583126
0.305807 1.584031 0.253602 0.802609 -0.125627 0.583126
0.034915 1.443841 0.266653 -0.306569 -0.125629 0.943522
0.121554 1.584031 0.313470 -0.306569 -0.125629 0.943522
-0.062699 1.584031 0.253602 -0.306569 -0.125629 0.943522
-0.158821 1.443843 0.000000 -0.992077 -0.125628 0.000000
-0.176574 1.584031 0.096866 -0.992077 -0.125628 0.000000
-0.176574 1.584031 -0.096866 -0.992077 -0.125628 0.000000
0.034915 1.443841 -0.266653 -0.306569 -0.125629 -0.943522
-0.062699 1.584031 -0.253602 -0.306569 -0.125629 -0.943522
0.121554 1.584031 -0.313470 -0.306569 -0.125629 -0.943522
0.348383 1.443841 -0.164799 0.802609 -0.125627 -0.583126
0.305807 1.584031 -0.253602 0.802609 -0.125627 -0.583126
0.419682 1.584031 -0.096866 0.802609 -0.125627 -0.583126
0.208194 1.724221 0.266653 0.408946 0.661699 0.628425
0.337281 1.748834 0.156734 0.408946 0.661699 0.628425
0.172479 1.850685 0.156733 0.408946 0.661699 0.628425
-0.105275 1.724221 0.164799 -0.471300 0.661699 0.583122
0.039153 1.748834 0.253601 -0.471300 0.661699 0.583122
-0.011772 1.850685 0.096866 -0.471300 0.661699 0.583122
-0.105275 1.724221 -0.164799 -0.700224 0.661699 -0.268032
-0.145098 1.748833 0.000000 -0.700224 0.661699 -0.268032
-0.011772 1.850685 -0.096866 -0.700224 0.661699 -0.268032
0.208194 1.724221 -0.266653 0.038530 0.661699 -0.748779
0.039153 1.748834 -0.253601 0.038530 0.661699 -0.748779
0.172479 1.850685 -0.156733 0.038530 0.661699 -0.748779
0.401930 1.724220 0.000000 0.724042 0.661695 -0.194736
0.337281 1.748834 -0.156734 0.724042 0.661695 -0.194736
0.286355 1.850685 0.000000 0.724042 0.661695 -0.194736
0.286355 1.850685 0.000000 0.268034 0.943523 -0.194737
0.172479 1.850685 -0.156733 0.268034 0.943523 -0.194737
0.121554 1.897501 0.000000 0.268034 0.943523 -0.194737
0.286355 1.850685 0.000000 0.491119 0.794658 -0.356821
0.337281 1.748834 -0.156734 0.491119 0.794658 -0.356821
0.172479 1.850685 -0.156733 0.491119 0.794658 -0.356821
0.337281 1.748834 -0.156734 0.408946 0.661699 -0.628425
0.208194 1.724221 -0.266653 0.408946 0.661699 -0.628425
0.172479 1.850685 -0.156733 0.408946 0.661699 -0.628425
0.172479 1.850685 -0.156733 -0.102381 0.943523 -0.315090
-0.011772 1.850685 -0.096866 -0.102381 0.943523 -0.315090
0.121554 1.897501 0.000000 -0.102381 0.943523 -0.315090
0.172479 1.850685 -0.156733 -0.187594 0.794657 -0.577346
0.039153 1.748834 -0.253601 -0.187594 0.794657 -0.577346
-0.011772 1.850685 -0.096866 -0.187594 0.794657 -0.577346
0.039153 1.748834 -0.253601 -0.471300 0.661698 -0.583122
-0.105275 1.724221 -0.164799 -0.471300 0.661698 -0.583122
-0.011772 1.850685 -0.096866 -0.471300 0.661698 -0.583122
-0.011772 1.850685 -0.096866 -0.331305 0.943524 0.000000
-0.011772 1.850685 0.096866 -0.331305 0.943524 0.000000
0.121554 1.897501 0.000000 -0.331305 0.943524 0.000000
-0.011772 1.850685 -0.096866 -0.607061 0.794656 0.000000
-0.145098 1.748833 0.000000 -0.607061 0.794656 0.000000
-0.011772 1.850685 0.096866 -0.607061 0.794656 0.000000
-0.145098 1.748833 0.000000 -0.700224 0.661699 0.268032
-0.105275 1.724221 0.164799 -0.700224 0.661699 0.268032
-0.011772 1.850685 0.096866 -0.700224 0.661699 0.268032
-0.011772 1.850685 0.096866 -0.102381 0.943523 0.315090
0.172479 1.850685 0.156733 -0.102381 0.943523 0.315090
0.121554 1.897501 0.000000 -0.102381 0.943523 0.315090
-0.011772 1.850685 0.096866 -0.187594 0.794657 0.577346
0.039153 1.748834 0.253601 -0.187594 0.794657 0.577346
0.172479 1.850685 0.156733 -0.187594 0.794657 0.577346
0.039153 1.748834 0.253601 0.038530 0.661699 0.748779
0.208194 1.724221 0.266653 0.038530 0.661699 0.748779
0.172479 1.850685 0.156733 0.038530 0.661699 0.748779
0.172479 1.850685 0.156733 0.268034 0.943523 0.194737
0.286355 1.850685 0.000000 0.268034 0.943523 0.194737
0.121554 1.897501 0.000000 0.268034 0.943523 0.194737
0.172479 1.850685 0.156733 0.491119 0.794658 0.356821
0.337281 1.748834 0.156734 0.491119 0.794658 0.356821
0.286355 1.850685 0.000000 0.491119 0.794658 0.356821
0.337281 1.748834 0.156734 0.724042 0.661695 0.194736
0.401930 1.724220 0.000000 0.724042 0.661695 0.194736
0.286355 1.850685 0.000000 0.724042 0.661695 0.194736
0.419682 1.584031 -0.096866 0.889697 0.330385 -0.315095
0.337281 1.748834 -0.156734 0.889697 0.330385 -0.315095
0.401930 1.724220 0.000000 0.889697 0.330385 -0.315095
0.419682 1.584031 -0.096866 0.794656 0.187595 -0.577348
0.305807 1.584031 -0.253602 0.794656 0.187595 -0.577348
0.337281 1.748834 -0.156734 0.794656 0.187595 -0.577348
0.305807 1.584031 -0.253602 0.574602 0.330388 -0.748784
0.208194 1.724221 -0.266653 0.574602 0.330388 -0.748784
0.337281 1.748834 -0.156734 0.574602 0.330388 -0.748784
0.121554 1.584031 -0.313470 -0.024747 0.330386 -0.943521
0.039153 1.748834 -0.253601 -0.024747 0.330386 -0.943521
0.208194 1.724221 -0.266653 -0.024747 0.330386 -0.943521
0.121554 1.584031 -0.313470 -0.303531 0.187597 -0.934171
-0.062699 1.584031 -0.253602 -0.303531 0.187597 -0.934171
0.039153 1.748834 -0.253601 -0.303531 0.187597 -0.934171
-0.062699 1.584031 -0.253602 -0.534576 0.330387 -0.777865
-0.105275 1.724221 -0.164799 -0.534576 0.330387 -0.777865
0.039153 1.748834 -0.253601 -0.534576 0.330387 -0.777865
-0.176574 1.584031 -0.096866 -0.904989 0.330385 -0.268032
-0.145098 1.748833 0.000000 -0.904989 0.330385 -0.268032
-0.105275 1.724221 -0.164799 -0.904989 0.330385 -0.268032
-0.176574 1.584031 -0.096866 -0.982246 0.187598 0.000000
-0.176574 1.584031 0.096866 -0.982246 0.187598 0.000000
-0.145098 1.748833 0.000000 -0.982246 0.187598 0.000000
-0.176574 1.584031 0.096866 -0.904989 0.330385 0.268032
-0.105275 1.724221 0.164799 -0.904989 0.330385 0.268032
-0.145098 1.748833 0.000000 -0.904989 0.330385 0.268032
-0.062699 1.584031 0.253602 -0.534576 0.330387 0.777865
0.039153 1.748834 0.253601 -0.534576 0.330387 0.777865
-0.105275 1.724221 0.164799 -0.534576 0.330387 0.777865
-0.062699 1.584031 0.253602 -0.303531 0.187597 0.934171
0.121554 1.584031 0.313470 -0.303531 0.187597 0.934171
0.039153 1.748834 0.253601 -0.303531 0.187597 0.934171
0.121554 1.584031 0.313470 -0.024747 0.330386 0.943521
0.208194 1.724221 0.266653 -0.024747 0.330386 0.943521
0.039153 1.748834 0.253601 -0.024747 0.330386 0.943521
0.305807 1.584031 0.253602 0.574602 0.330388 0.748784
0.337281 1.748834 0.156734 0.574602 0.330388 0.748784
0.208194 1.724221 0.266653 0.574602 0.330388 0.748784
0.305807 1.584031 0.253602 0.794656 0.187595 0.577348
0.419682 1.584031 0.096866 0.794656 0.187595 0.577348
0.337281 1.748834 0.156734 0.794656 0.187595 0.577348
0.419682 1.584031 0.096866 0.889697 0.330385 0.315094
0.401930 1.724220 0.000000 0.889697 0.330385 0.315094
0.337281 1.748834 0.156734 0.889697 0.330385 0.315094
0.305807 1.584031 -0.253602 0.306569 0.125629 -0.943522
0.121554 1.584031 -0.313470 0.306569 0.125629 -0.943522
0.208194 1.724221 -0.266653 0.306569 0.125629 -0.943522
0.305807 1.584031 -0.253602 0.303531 -0.187597 -0.934171
0.203956 1.419228 -0.253601 0.303531 -0.187597 -0.934171
0.121554 1.584031 -0.313470 0.303531 -0.187597 -0.934171
0.203956 1.419228 -0.253601 0.024747 -0.330386 -0.943521
0.034915 1.443841 -0.266653 0.024747 -0.330386 -0.943521
0.121554 1.584031 -0.313470 0.024747 -0.330386 -0.943521
-0.062699 1.584031 -0.253602 -0.802609 0.125627 -0.583126
-0.176574 1.584031 -0.096866 -0.802609 0.125627 -0.583126
-0.105275 1.724221 -0.164799 -0.802609 0.125627 -0.583126
-0.062699 1.584031 -0.253602 -0.794656 -0.187595 -0.577348
-0.094172 1.419229 -0.156734 -0.794656 -0.187595 -0.577348
-0.176574 1.584031 -0.096866 -0.794656 -0.187595 -0.577348
-0.094172 1.419229 -0.156734 -0.889697 -0.330385 -0.315095
-0.158821 1.443843 0.000000 -0.889697 -0.330385 -0.315095
-0.176574 1.584031 -0.096866 -0.889697 -0.330385 -0.315095
-0.176574 1.584031 0.096866 -0.802609 0.125627 0.583126
-0.062699 1.584031 0.253602 -0.802609 0.125627 0.583126
-0.105275 1.724221 0.164799 -0.802609 0.125627 0.583126
-0.176574 1.584031 0.096866 -0.794656 -0.187595 0.577348
-0.094172 1.419229 0.156734 -0.794656 -0.187595 0.577348
-0.062699 1.584031 0.253602 -0.794656 -0.187595 0.577348
-0.094172 1.419229 0.156734 -0.574602 -0.330388 0.748784
0.034915 1.443841 0.266653 -0.574602 -0.330388 0.748784
-0.062699 1.584031 0.253602 -0.574602 -0.330388 0.748784
0.121554 1.584031 0.313470 0.306569 0.125629 0.943522
0.305807 1.584031 0.253602 0.306569 0.125629 0.943522
0.208194 1.724221 0.266653 0.306569 0.125629 0.943522
0.121554 1.584031 0.313470 0.303531 -0.187597 0.934171
0.203956 1.419228 0.253601 0.303531 -0.187597 0.934171
0.305807 1.584031 0.253602 0.303531 -0.187597 0.934171
0.203956 1.419228 0.253601 0.534576 -0.330387 0.777865
0.348383 1.443841 0.164799 0.534576 -0.330387 0.777865
0.305807 1.584031 0.253602 0.534576 -0.330387 0.777865
0.419682 1.584031 0.096866 0.992077 0.125628 -0.000000
0.419682 1.584031 -0.096866 0.992077 0.125628 -0.000000
0.401930 1.724220 0.000000 0.992077 0.125628 -0.000000
0.419682 1.584031 0.096866 0.982246 -0.187598 0.000000
0.388207 1.419229 0.000000 0.982246 -0.187598 0.000000
0.419682 1.584031 -0.096866 0.982246 -0.187598 0.000000
0.388207 1.419229 0.000000 0.904989 -0.330385 -0.268032
0.348383 1.443841 -0.164799 0.904989 -0.330385 -0.268032
0.419682 1.584031 -0.096866 0.904989 -0.330385 -0.268032
0.254880 1.317377 -0.096866 0.471300 -0.661699 -0.583122
0.203956 1.419228 -0.253601 0.471300 -0.661699 -0.583122
0.348383 1.443841 -0.164799 0.471300 -0.661699 -0.583122
0.254880 1.317377 -0.096866 0.187595 -0.794657 -0.577346
0.070629 1.317377 -0.156733 0.187595 -0.794657 -0.577346
0.203956 1.419228 -0.253601 0.187595 -0.794657 -0.577346
0.070629 1.317377 -0.156733 -0.038530 -0.661699 -0.748779
0.034915 1.443841 -0.266653 -0.038530 -0.661699 -0.748779
0.203956 1.419228 -0.253601 -0.038530 -0.661699 -0.748779
0.070629 1.317377 -0.156733 -0.408946 -0.661698 -0.628425
-0.094172 1.419229 -0.156734 -0.408946 -0.661698 -0.628425
0.034915 1.443841 -0.266653 -0.408946 -0.661698 -0.628425
0.070629 1.317377 -0.156733 -0.491120 -0.794657 -0.356821
-0.043246 1.317378 0.000000 -0.491120 -0.794657 -0.356821
-0.094172 1.419229 -0.156734 -0.491120 -0.794657 -0.356821
-0.043246 1.317378 0.000000 -0.724042 -0.661695 -0.194736
-0.158821 1.443843 0.000000 -0.724042 -0.661695 -0.194736
-0.094172 1.419229 -0.156734 -0.724042 -0.661695 -0.194736
-0.043246 1.317378 0.000000 -0.724042 -0.661695 0.194736
-0.094172 1.419229 0.156734 -0.724042 -0.661695 0.194736
-0.158821 1.443843 0.000000 -0.724042 -0.661695 0.194736
-0.043246 1.317378 0.000000 -0.491120 -0.794657 0.356821
0.070629 1.317377 0.156733 -0.491120 -0.794657 0.356821
-0.094172 1.419229 0.156734 -0.491120 -0.794657 0.356821
0.070629 1.317377 0.156733 -0.408946 -0.661698 0.628425
0.034915 1.443841 0.266653 -0.408946 -0.661698 0.628425
-0.094172 1.419229 0.156734 -0.408946 -0.661698 0.628425
0.388207 1.419229 0.000000 0.700224 -0.661699 -0.268032
0.254880 1.317377 -0.096866 0.700224 -0.661699 -0.268032
0.348383 1.443841 -0.164799 0.700224 -0.661699 -0.268032
0.388207 1.419229 0.000000 0.607061 -0.794656 0.000000
0.254880 1.317377 0.096866 0.607061 -0.794656 0.000000
0.254880 1.317377 -0.096866 0.607061 -0.794656 0.000000
0.254880 1.317377 0.096866 0.331305 -0.943524 0.000000
0.121554 1.270561 0.000000 0.331305 -0.943524 0.000000
0.254880 1.317377 -0.096866 0.331305 -0.943524 0.000000
0.070629 1.317377 0.156733 -0.038530 -0.661699 0.748779
0.203956 1.419228 0.253601 -0.038530 -0.661699 0.748779
0.034915 1.443841 0.266653 -0.038530 -0.661699 0.748779
0.070629 1.317377 0.156733 0.187595 -0.794657 0.577346
0.254880 1.317377 0.096866 0.187595 -0.794657 0.577346
0.203956 1.419228 0.253601 0.187595 -0.794657 0.577346
0.254880 1.317377 0.096866 0.471300 -0.661698 0.583122
0.348383 1.443841 0.164799 0.471300 -0.661698 0.583122
0.203956 1.419228 0.253601 0.471300 -0.661698 0.583122
-0.386561 0.966580 0.000000 -0.879331 0.476211 0.000000
-0.212074 1.288773 -0.324031 -0.879331 0.476211 0.000000
-0.386561 0.966580 -0.449998 -0.879331 0.476211 0.000000
0.000000 0.966580 -0.449998 0.000000 0.364126 -0.931350
0.212074 1.288773 -0.324031 0.000000 0.364126 -0.931350
0.386561 0.966580 -0.449998 0.000000 0.364126 -0.931350
0.386561 0.966580 0.000000 0.879331 0.476211 0.000000
0.212074 1.288773 0.324031 0.879331 0.476211 0.000000
0.386561 0.966580 0.449998 0.879331 0.476211 0.000000
0.000000 0.966580 0.449998 0.000000 0.364126 0.931350
-0.212074 1.288773 0.324031 0.000000 0.364126 0.931350
-0.386561 0.966580 0.449998 0.000000 0.364126 0.931350
0.212074 0.000000 0.000000 0.000000 -1.000000 0.000000
0.000000 0.000000 0.481814 0.000000 -1.000000 0.000000
0.000000 0.000000 0.000000 0.000000 -1.000000 0.000000
-0.212074 1.288773 0.000000 0.000000 1.000000 -0.000000
0.000000 1.288773 0.324031 0.000000 1.000000 -0.000000
0.000000 1.288773 0.000000 0.000000 1.000000 -0.000000
0.000000 0.644387 0.575965 -0.000000 0.147702 0.989032
-0.386561 0.322193 0.624081 -0.000000 0.147702 0.989032
0.000000 0.322193 0.624081 -0.000000 0.147702 0.989032
0.386561 0.322193 -0.000000 0.990294 -0.138988 0.000000
0.431781 0.644387 0.575965 0.990294 -0.138988 0.000000
0.386561 0.322193 0.624081 0.990294 -0.138988 0.000000
0.000000 0.644387 -0.575965 0.000000 0.147702 -0.989032
0.386561 0.322193 -0.624081 0.000000 0.147702 -0.989032
0.000000 0.322193 -0.624081 0.000000 0.147702 -0.989032
-0.386561 0.322193 -0.000000 -0.990294 -0.138988 0.000000
-0.431781 0.644387 -0.575965 -0.990294 -0.138988 0.000000
-0.386561 0.322193 -0.624081 -0.990294 -0.138988 0.000000
-0.386561 0.322193 -0.000000 -0.879331 -0.476211 -0.000000
-0.212074 0.000000 -0.481814 -0.879331 -0.476211 -0.000000
-0.212074 0.000000 0.000000 -0.879331 -0.476211 -0.000000
0.000000 0.322193 -0.624081 0.000000 -0.403931 -0.914789
0.212074 0.000000 -0.481814 0.000000 -0.403931 -0.914789
0.000000 0.000000 -0.481814 0.000000 -0.403931 -0.914789
0.386561 0.322193 -0.000000 0.879331 -0.476211 0.000000
0.212074 0.000000 0.481814 0.879331 -0.476211 0.000000
0.212074 0.000000 0.000000 0.879331 -0.476211 0.000000
0.000000 0.322193 0.624081 0.000000 -0.403931 0.914789
-0.212074 0.000000 0.481814 0.000000 -0.403931 0.914789
0.000000 0.000000 0.481814 0.000000 -0.403931 0.914789
0.000000 0.644387 0.575965 -0.000000 0.364127 0.931349
-0.386561 0.966580 0.449998 -0.000000 0.364127 0.931349
-0.431781 0.644387 0.575965 -0.000000 0.364127 0.931349
0.431781 0.644387 0.000000 0.990294 0.138988 0.000000
0.386561 0.966580 0.449998 0.990294 0.138988 0.000000
0.431781 0.644387 0.575965 0.990294 0.138988 0.000000
-0.431781 0.644387 -0.000000 -0.990294 0.138988 0.000000
-0.386561 0.966580 -0.449998 -0.990294 0.138988 0.000000
-0.431781 0.644387 -0.575965 -0.990294 0.138988 0.000000
-0.386561 0.966580 0.449998 -0.990294 0.138988 0.000000
-0.431781 0.644387 0.575965 -0.990294 0.138988 0.000000
0.386561 0.966580 -0.449998 0.990294 0.138988 -0.000000
0.431781 0.644387 -0.575965 0.990294 0.138988 -0.000000
0.212074 0.000000 -0.481814 0.879331 -0.476211 0.000000
-0.212074 0.000000 0.481814 -0.879331 -0.476211 0.000000
-0.431781 0.644387 0.575965 -0.990294 -0.138988 -0.000000
-0.386561 0.322193 0.624081 -0.990294 -0.138988 -0.000000
0.431781 0.644387 -0.575965 0.990294 -0.138988 0.000000
0.386561 0.322193 -0.624081 0.990294 -0.138988 0.000000
-0.212074 1.288773 -0.324031 0.000000 1.000000 -0.000000
0.000000 1.288773 -0.324031 0.000000 1.000000 -0.000000
0.212074 0.000000 -0.481814 0.000000 -1.000000 0.000000
0.000000 0.000000 -0.481814 0.000000 -1.000000 0.000000
0.212074 1.288773 -0.324031 0.879331 0.476211 -0.000000
0.386561 0.966580 -0.449998 0.879331 0.476211 -0.000000
-0.212074 1.288773 0.324031 -0.879331 0.476211 0.000000
-0.386561 0.966580 0.449998 -0.879331 0.476211 0.000000
-0.212074 0.000000 0.000000 0.000000 -1.000000 0.000000
-0.212074 0.000000 -0.481814 0.000000 -1.000000 0.000000
0.212074 1.288773 0.000000 0.000000 1.000000 -0.000000
0.212074 1.288773 -0.324031 0.000000 1.000000 -0.000000
-0.386561 0.966580 -0.449998 0.000000 0.364127 -0.931349
0.000000 0.644387 -0.575965 0.000000 0.364127 -0.931349
-0.431781 0.644387 -0.575965 0.000000 0.364127 -0.931349
0.212074 0.000000 0.481814 0.000000 -0.403931 0.914789
-0.212074 0.000000 -0.481814 0.000000 -0.403931 -0.914789
-0.386561 0.322193 -0.624081 0.000000 0.147702 -0.989032
0.386561 0.322193 0.624081 0.000000 0.147702 0.989032
0.212074 1.288773 0.324031 0.000000 1.000000 -0.000000
-0.212074 0.000000 0.481814 0.000000 -1.000000 0.000000
0.212074 1.288773 0.324031 0.000000 0.364126 0.931349
0.000000 0.966580 0.449998 0.000000 0.364126 0.931349
0.386561 0.966580 0.449998 0.000000 0.364126 0.931349
-0.212074 1.288773 -0.324031 0.000000 0.364126 -0.931349
0.000000 0.966580 -0.449998 0.000000 0.364126 -0.931349
-0.386561 0.966580 -0.449998 0.000000 0.364126 -0.931349
0.386561 0.966580 -0.449998 0.000000 0.931349 0.364127
0.000000 1.112231 -0.822538 0.000000 0.931349 0.364127
0.000000 0.966580 -0.449998 0.000000 0.931349 0.364127
0.431781 0.644387 -0.575965 -0.095518 -0.374062 0.922472
1.169508 1.113266 -0.309446 -0.095518 -0.374062 0.922472
0.386561 0.966580 -0.449998 -0.095518 -0.374062 0.922472
0.000000 0.790037 -0.948504 0.000000 0.364127 -0.931349
0.386561 1.112231 -0.822538 0.000000 0.364127 -0.931349
0.431781 0.790037 -0.948504 0.000000 0.364127 -0.931349
0.000000 0.644387 -0.575965 -1.000000 0.000000 0.000000
0.000000 1.112231 -0.822538 -1.000000 0.000000 0.000000
0.000000 0.790037 -0.948504 -1.000000 0.000000 0.000000
0.000000 0.644387 -0.575965 0.000000 -0.931350 -0.364127
0.431781 0.790037 -0.948504 0.000000 -0.931350 -0.364127
0.431781 0.644387 -0.575965 0.000000 -0.931350 -0.364127
0.431781 0.790037 0.948504 0.243038 0.382607 0.891372
1.169508 1.213424 0.565627 0.243038 0.382607 0.891372
0.386561 1.112231 0.822538 0.243038 0.382607 0.891372
0.386561 1.112231 0.822538 0.000000 0.364127 0.931349
0.000000 0.790037 0.948504 0.000000 0.364127 0.931349
0.431781 0.790037 0.948504 0.000000 0.364127 0.931349
0.431781 0.644387 0.575965 0.000000 -0.931350 0.364127
0.000000 0.790037 0.948504 0.000000 -0.931350 0.364127
0.000000 0.644387 0.575965 0.000000 -0.931350 0.364127
0.000000 0.644387 0.575965 -1.000000 -0.000000 0.000000
0.000000 1.112231 0.822538 -1.000000 -0.000000 0.000000
0.000000 0.966580 0.449998 -1.000000 -0.000000 0.000000
0.000000 0.966580 0.449998 0.000000 0.931349 -0.364127
0.386561 1.112231 0.822538 0.000000 0.931349 -0.364127
0.386561 0.966580 0.449998 0.000000 0.931349 -0.364127
0.431781 0.790037 -0.948504 0.243038 0.382607 -0.891372
1.169508 1.213424 -0.565627 0.243038 0.382607 -0.891372
1.200604 0.991864 -0.652250 0.243038 0.382607 -0.891372
0.386561 0.966580 0.449998 -0.233240 0.905662 -0.354084
1.169508 1.213424 0.565627 -0.233240 0.905662 -0.354084
1.169508 1.113266 0.309446 -0.233240 0.905662 -0.354084
0.431781 0.644387 -0.575965 0.359132 -0.869216 -0.339835
1.200604 0.991864 -0.652250 0.359132 -0.869216 -0.339835
1.200604 0.891706 -0.396068 0.359132 -0.869216 -0.339835
0.386561 0.966580 -0.449998 -0.233240 0.905662 0.354084
1.169508 1.213424 -0.565627 -0.233240 0.905662 0.354084
0.386561 1.112231 -0.822538 -0.233240 0.905662 0.354084
0.431781 0.644387 0.575965 -0.095518 -0.374062 -0.922472
1.169508 1.113266 0.309446 -0.095518 -0.374062 -0.922472
1.200604 0.891706 0.396068 -0.095518 -0.374062 -0.922472
0.431781 0.644387 0.575965 0.359132 -0.869216 0.339834
1.200604 0.991864 0.652250 0.359132 -0.869216 0.339834
0.431781 0.790037 0.948504 0.359132 -0.869216 0.339834
1.200604 0.891706 -0.396068 0.991565 0.120715 0.047195
1.169508 1.213424 -0.565627 0.991565 0.120715 0.047195
1.169508 1.113266 -0.309446 0.991565 0.120715 0.047195
1.200604 0.891706 0.396068 0.991565 0.120715 -0.047195
1.169508 1.213424 0.565627 0.991565 0.120715 -0.047195
1.200604 0.991864 0.652250 0.991565 0.120715 -0.047195
-0.212074 1.288773 0.000000 -0.879331 0.476211 0.000000
0.000000 1.288773 -0.324031 0.000000 0.364126 -0.931350
0.212074 1.288773 0.000000 0.879331 0.476211 0.000000
0.000000 1.288773 0.324031 -0.000000 0.364126 0.931350
0.212074 0.000000 0.481814 0.000000 -1.000000 0.000000
-0.212074 1.288773 0.324031 0.000000 1.000000 0.000000
-0.431781 0.644387 0.575965 -0.000000 0.147702 0.989032
0.431781 0.644387 0.000000 0.990294 -0.138988 0.000000
0.431781 0.644387 -0.575965 0.000000 0.147702 -0.989032
-0.431781 0.644387 -0.000000 -0.990294 -0.138988 0.000000
-0.386561 0.322193 -0.624081 -0.879331 -0.476211 0.000000
0.386561 0.322193 -0.624081 -0.000000 -0.403931 -0.914789
0.386561 0.322193 0.624081 0.879331 -0.476211 0.000000
-0.386561 0.322193 0.624081 -0.000000 -0.403931 0.914789
0.000000 0.966580 0.449998 -0.000000 0.364127 0.931349
0.386561 0.966580 0.000000 0.990294 0.138988 0.000000
-0.386561 0.966580 0.000000 -0.990294 0.138988 0.000000
0.386561 0.322193 -0.624081 0.879331 -0.476211 0.000000
-0.386561 0.322193 0.624081 -0.879331 -0.476211 0.000000
0.000000 0.966580 -0.449998 0.000000 0.364127 -0.931349
0.386561 0.322193 0.624081 0.000000 -0.403931 0.914789
-0.386561 0.322193 -0.624081 -0.000000 -0.403931 -0.914789
-0.431781 0.644387 -0.575965 0.000000 0.147702 -0.989032
0.431781 0.644387 0.575965 -0.000000 0.147702 0.989032
0.212074 1.288773 0.324031 -0.000000 0.364126 0.931350
-0.212074 1.288773 -0.324031 0.000000 0.364126 -0.931350
0.386561 1.112231 -0.822538 -0.000000 0.931349 0.364127
1.200604 0.891706 -0.396068 -0.095518 -0.374062 0.922472
0.000000 1.112231 -0.822538 0.000000 0.364127 -0.931349
0.000000 0.966580 -0.449998 -1.000000 -0.000000 0.000000
0.000000 0.790037 -0.948504 -0.000000 -0.931350 -0.364127
1.200604 0.991864 0.652250 0.243038 0.382607 0.891372
0.000000 1.112231 0.822538 -0.000000 0.364127 0.931349
0.431781 0.790037 0.948504 0.000000 -0.931350 0.364127
0.000000 0.790037 0.948504 -1.000000 -0.000000 0.000000
0.000000 1.112231 0.822538 0.000000 0.931349 -0.364127
0.386561 1.112231 -0.822538 0.243038 0.382607 -0.891372
0.386561 1.112231 0.822538 -0.233240 0.905662 -0.354084
0.431781 0.644387 -0.575965 0.359132 -0.869216 -0.339834
0.431781 0.790037 -0.948504 0.359132 -0.869216 -0.339834
1.200604 0.991864 -0.652250 0.359132 -0.869216 -0.339834
1.169508 1.113266 -0.309446 -0.233240 0.905662 0.354084
0.386561 0.966580 0.449998 -0.095518 -0.374062 -0.922472
0.431781 0.644387 0.575965 0.359132 -0.869216 0.339835
1.200604 0.891706 0.396068 0.359132 -0.869216 0.339835
1.200604 0.991864 0.652250 0.359132 -0.869216 0.339835
1.200604 0.991864 -0.652250 0.991565 0.120715 0.047195
1.169508 1.113266 0.309446 0.991565 0.120715 -0.047195
3 0 1 2
3 3 4 5
3 6 7 8
3 9 10 11
3 12 13 14
3 15 16 17
3 18 19 20
3 21 22 23
3 24 25 26
3 27 28 29
3 30 31 32
3 33 34 35
3 36 37 38
3 39 40 41
3 42 43 44
3 45 46 47
3 48 49 50
3 51 52 53
3 54 55 56
3 57 58 59
3 60 61 62
3 63 64 65
3 66 67 68
3 69 70 71
3 72 73 74
3 75 76 77
3 78 79 80
3 81 82 83
3 84 85 86
3 87 88 89
3 90 91 92
3 93 94 95
3 96 97 98
3 99 100 101
3 102 103 104
3 105 106 107
3 108 109 110
3 111 112 113
3 114 115 116
3 117 118 119
3 120 121 122
3 123 124 125
3 126 127 128
3 129 130 131
3 132 133 134
3 135 136 137
3 138 139 140
3 141 142 143
3 144 145 146
3 147 148 149
3 150 151 152
3 153 154 155
3 156 157 158
3 159 160 161
3 162 163 164
3 165 166 167
3 168 169 170
3 171 172 173
3 174 175 176
3 177 178 179
3 180 181 182
3 183 184 185
3 186 187 188
3 189 190 191
3 192 193 194
3 195 196 197
3 198 199 200
3 201 202 203
3 204 205 206
3 207 208 209
3 210 211 212
3 213 214 215
3 216 217 218
3 219 220 221
3 222 223 224
3 225 226 227
3 228 229 230
3 231 232 233
3 234 235 236
3 237 238 239
3 240 241 242
3 243 244 245
3 246 247 248
3 249 250 251
3 252 253 254
3 255 256 257
3 258 259 260
3 261 262 263
3 264 265 266
3 267 268 269
3 270 271 272
3 273 274 275
3 276 277 278
3 279 280 281
3 282 283 284
3 285 286 287
3 288 289 290
3 291 292 293
3 294 295 296
3 297 298 299
3 300 301 302
3 303 304 305
3 306 307 308
3 309 310 311
3 312 313 314
3 315 316 317
3 318 319 320
3 321 322 323
3 324 325 326
3 327 328 329
3 330 331 332
3 333 334 335
3 336 337 338
3 339 340 341
3 342 343 344
3 345 346 347
3 348 349 350
3 351 352 353
3 354 351 355
3 356 348 357
3 358 339 341
3 359 333 335
3 360 330 361
3 362 324 363
3 364 320 365
3 366 317 367
3 368 309 369
3 370 303 371
3 367 372 373
3 365 374 375
3 376 377 378
3 379 342 344
3 380 336 338
3 381 327 329
3 382 321 323
3 320 383 374
3 317 384 372
3 385 386 387
3 388 389 390
3 391 392 393
3 394 395 396
3 397 398 399
3 400 401 402
3 403 404 405
3 406 407 408
3 409 410 411
3 412 413 414
3 415 416 417
3 418 419 420
3 421 422 423
3 424 425 426
3 427 428 429
3 430 431 432
3 433 434 435
3 436 437 438
3 439 440 441
3 442 443 444
3 303 445 304
3 306 446 307
3 309 447 310
3 312 448 313
3 315 449 316
3 318 450 319
3 321 451 322
3 324 452 325
3 327 453 328
3 330 454 331
3 333 455 334
3 336 456 337
3 339 457 340
3 342 458 343
3 345 459 346
3 348 460 349
3 351 461 352
3 354 461 351
3 356 460 348
3 358 462 339
3 359 463 333
3 360 454 330
3 362 452 324
3 364 318 320
3 366 315 317
3 368 447 309
3 370 445 303
3 367 317 372
3 365 320 374
3 376 464 377
3 379 465 342
3 380 466 336
3 381 467 327
3 382 468 321
3 320 319 383
3 317 316 384
3 469 448 312
3 470 446 306
3 391 471 392
3 394 472 395
3 397 473 398
3 400 474 401
3 403 475 404
3 406 476 407
3 409 477 410
3 412 478 413
3 415 479 416
3 418 480 419
3 421 481 422
3 424 482 425
3 483 484 485
3 430 486 431
3 433 487 434
3 488 489 490
3 439 491 440
3 442 492 443
