ply
format ascii 1.0
comment Created by Blender 2.93.0 - www.blender.org
element vertex 24
property float x
property float y
property float z
property float nx
property float ny
property float nz
element face 6
property list uchar uint vertex_indices
end_header
0.000000 0.966580 -0.449998 0.000000 0.931349 0.364127
0.386561 0.966580 -0.449998 0.000000 0.931349 0.364127
0.386561 1.112231 -0.822538 0.000000 0.931349 0.364127
0.000000 1.112231 -0.822538 0.000000 0.931349 0.364127
0.000000 0.790037 -0.948504 0.000000 0.364127 -0.931350
0.000000 1.112231 -0.822538 0.000000 0.364127 -0.931350
0.386561 1.112231 -0.822538 0.000000 0.364127 -0.931350
0.431781 0.790037 -0.948504 0.000000 0.364127 -0.931350
0.000000 0.644387 -0.575965 -1.000000 0.000000 0.000000
0.000000 0.966580 -0.449998 -1.000000 0.000000 0.000000
0.000000 1.112231 -0.822538 -1.000000 0.000000 0.000000
0.000000 0.790037 -0.948504 -1.000000 0.000000 0.000000
0.431781 0.644387 -0.575965 0.000000 -0.931350 -0.364127
0.000000 0.644387 -0.575965 0.000000 -0.931350 -0.364127
0.000000 0.790037 -0.948504 0.000000 -0.931350 -0.364127
0.431781 0.790037 -0.948504 0.000000 -0.931350 -0.364127
0.000000 0.644387 -0.575965 0.000000 -0.364127 0.931349
0.431781 0.644387 -0.575965 0.000000 -0.364127 0.931349
0.386561 0.966580 -0.449998 0.000000 -0.364127 0.931349
0.000000 0.966580 -0.449998 0.000000 -0.364127 0.931349
0.431781 0.790037 -0.948504 0.991565 0.120714 0.047195
0.386561 1.112231 -0.822538 0.991565 0.120714 0.047195
0.386561 0.966580 -0.449998 0.991565 0.120714 0.047195
0.431781 0.644387 -0.575965 0.991565 0.120714 0.047195
4 0 1 2 3
4 4 5 6 7
4 8 9 10 11
4 12 13 14 15
4 16 17 18 19
4 20 21 22 23
