ply
format ascii 1.0
comment Created by Blender 2.93.0 - www.blender.org
element vertex 24
property float x
property float y
property float z
property float nx
property float ny
property float nz
element face 6
property list uchar uint vertex_indices
end_header
0.386561 1.112231 0.822538 0.243038 0.382607 0.891372
0.431781 0.790037 0.948504 0.243038 0.382607 0.891372
1.200604 0.991864 0.652250 0.243038 0.382607 0.891372
1.169508 1.213424 0.565627 0.243038 0.382607 0.891372
0.386561 0.966580 0.449998 -0.233240 0.905662 -0.354084
0.386561 1.112231 0.822538 -0.233240 0.905662 -0.354084
1.169508 1.213424 0.565627 -0.233240 0.905662 -0.354084
1.169508 1.113266 0.309446 -0.233240 0.905662 -0.354084
0.431781 0.644387 0.575965 -0.095518 -0.374062 -0.922472
0.386561 0.966580 0.449998 -0.095518 -0.374062 -0.922472
1.169508 1.113266 0.309446 -0.095518 -0.374062 -0.922472
1.200604 0.891706 0.396068 -0.095518 -0.374062 -0.922472
0.431781 0.790037 0.948504 0.359132 -0.869216 0.339835
0.431781 0.644387 0.575965 0.359132 -0.869216 0.339835
1.200604 0.891706 0.396068 0.359132 -0.869216 0.339835
1.200604 0.991864 0.652250 0.359132 -0.869216 0.339835
1.200604 0.891706 0.396068 0.991565 0.120715 -0.047195
1.169508 1.113266 0.309446 0.991565 0.120715 -0.047195
1.169508 1.213424 0.565627 0.991565 0.120715 -0.047195
1.200604 0.991864 0.652250 0.991565 0.120715 -0.047195
0.431781 0.790037 0.948504 -0.991565 -0.120714 0.047195
0.386561 1.112231 0.822538 -0.991565 -0.120714 0.047195
0.386561 0.966580 0.449998 -0.991565 -0.120714 0.047195
0.431781 0.644387 0.575965 -0.991565 -0.120714 0.047195
4 0 1 2 3
4 4 5 6 7
4 8 9 10 11
4 12 13 14 15
4 16 17 18 19
4 20 21 22 23
