ply
format ascii 1.0
comment Created by Blender 2.93.0 - www.blender.org
element vertex 40
property float x
property float y
property float z
property float nx
property float ny
property float nz
element face 12
property list uchar uint vertex_indices
end_header
-0.671546 1.190770 0.274885 0.869426 -0.494063 0.000000
-0.750980 1.306742 0.000000 0.869426 -0.494063 0.000000
-0.671546 1.190770 -0.274885 0.869426 -0.494063 0.000000
-0.089724 2.470386 0.000000 0.869426 -0.494063 0.000000
-0.750980 1.306742 0.000000 -0.789960 0.448906 -0.417667
-0.089724 2.470386 0.000000 -0.789960 0.448906 -0.417667
-0.671546 1.190770 -0.274885 -0.789960 0.448906 -0.417667
-0.089724 2.470386 0.000000 -0.789960 0.448906 0.417667
-0.750980 1.306742 0.000000 -0.789960 0.448906 0.417667
-0.671546 1.190770 0.274885 -0.789960 0.448906 0.417667
-0.089724 1.190770 -0.733775 0.311253 0.472740 -0.824402
-0.089724 2.470386 0.000000 0.311253 0.472740 -0.824402
0.492098 1.190770 -0.514108 0.311253 0.472740 -0.824402
-0.089724 2.470386 0.000000 -0.564679 0.410551 -0.715951
-0.089724 1.190770 -0.733775 -0.564679 0.410551 -0.715951
-0.671546 1.190770 -0.274885 -0.564679 0.410551 -0.715951
-0.089724 2.470386 0.000000 0.311253 0.472740 0.824402
-0.089724 1.190770 0.733775 0.311253 0.472740 0.824402
0.492098 1.190770 0.514108 0.311253 0.472740 0.824402
-0.671546 1.190770 0.274885 -0.564679 0.410551 0.715951
-0.089724 1.190770 0.733775 -0.564679 0.410551 0.715951
-0.089724 2.470386 0.000000 -0.564679 0.410551 0.715951
0.262463 1.999065 0.000000 0.691951 0.517050 0.503849
-0.089724 2.470386 0.000000 0.691951 0.517050 0.503849
0.492098 1.190770 0.514108 0.691951 0.517050 0.503849
0.492098 1.190770 -0.514108 0.691951 0.517050 -0.503849
-0.089724 2.470386 0.000000 0.691951 0.517050 -0.503849
0.262463 1.999065 0.000000 0.691951 0.517050 -0.503849
-0.671546 1.190770 -0.274885 -0.825023 -0.565099 -0.000000
-0.671546 1.190770 0.274885 -0.825023 -0.565099 -0.000000
-0.750980 1.306742 0.000000 -0.825023 -0.565099 -0.000000
0.492098 1.190770 0.514108 0.961934 0.273283 -0.000000
0.492098 1.190770 -0.514108 0.961934 0.273283 -0.000000
0.262463 1.999065 0.000000 0.961934 0.273283 -0.000000
-0.089724 1.190770 -0.733775 0.000000 -1.000000 0.000000
0.492098 1.190770 -0.514108 0.000000 -1.000000 0.000000
0.492098 1.190770 0.514108 0.000000 -1.000000 0.000000
-0.089724 1.190770 0.733775 0.000000 -1.000000 0.000000
-0.671546 1.190770 0.274885 0.000000 -1.000000 0.000000
-0.671546 1.190770 -0.274885 0.000000 -1.000000 0.000000
4 0 1 2 3
3 4 5 6
3 7 8 9
3 10 11 12
3 13 14 15
3 16 17 18
3 19 20 21
3 22 23 24
3 25 26 27
3 28 29 30
3 31 32 33
6 34 35 36 37 38 39
