ply
format ascii 1.0
comment Created by Blender 2.92.0 - www.blender.org
element vertex 96
property float x
property float y
property float z
property float nx
property float ny
property float nz
element face 18
property list uchar uint vertex_indices
end_header
0.000000 0.000000 1.000000 0.195090 0.000000 -0.980785
0.000000 2.000000 1.000000 0.195090 0.000000 -0.980785
0.191342 2.000000 1.038060 0.195090 0.000000 -0.980785
0.191342 0.000000 1.038060 0.195090 0.000000 -0.980785
0.191342 0.000000 1.038060 0.555570 0.000000 -0.831469
0.191342 2.000000 1.038060 0.555570 0.000000 -0.831469
0.353553 2.000000 1.146447 0.555570 0.000000 -0.831469
0.353553 0.000000 1.146447 0.555570 0.000000 -0.831469
0.353553 0.000000 1.146447 0.831470 0.000000 -0.555570
0.353553 2.000000 1.146447 0.831470 0.000000 -0.555570
0.461940 2.000000 1.308658 0.831470 0.000000 -0.555570
0.461940 0.000000 1.308658 0.831470 0.000000 -0.555570
0.461940 0.000000 1.308658 0.980785 0.000000 -0.195090
0.461940 2.000000 1.308658 0.980785 0.000000 -0.195090
0.500000 2.000000 1.500000 0.980785 0.000000 -0.195090
0.500000 0.000000 1.500000 0.980785 0.000000 -0.195090
0.500000 0.000000 1.500000 0.980785 0.000000 0.195090
0.500000 2.000000 1.500000 0.980785 0.000000 0.195090
0.461940 2.000000 1.691342 0.980785 0.000000 0.195090
0.461940 0.000000 1.691342 0.980785 0.000000 0.195090
0.461940 0.000000 1.691342 0.831470 0.000000 0.555570
0.461940 2.000000 1.691342 0.831470 0.000000 0.555570
0.353553 2.000000 1.853553 0.831470 0.000000 0.555570
0.353553 0.000000 1.853553 0.831470 0.000000 0.555570
0.353553 0.000000 1.853553 0.555570 0.000000 0.831469
0.353553 2.000000 1.853553 0.555570 0.000000 0.831469
0.191342 2.000000 1.961940 0.555570 0.000000 0.831469
0.191342 0.000000 1.961940 0.555570 0.000000 0.831469
0.191342 0.000000 1.961940 0.195090 0.000000 0.980785
0.191342 2.000000 1.961940 0.195090 0.000000 0.980785
0.000000 2.000000 2.000000 0.195090 0.000000 0.980785
0.000000 0.000000 2.000000 0.195090 0.000000 0.980785
0.000000 0.000000 2.000000 -0.195090 0.000000 0.980785
0.000000 2.000000 2.000000 -0.195090 0.000000 0.980785
-0.191342 2.000000 1.961940 -0.195090 0.000000 0.980785
-0.191342 0.000000 1.961940 -0.195090 0.000000 0.980785
-0.191342 0.000000 1.961940 -0.555570 0.000000 0.831470
-0.191342 2.000000 1.961940 -0.555570 0.000000 0.831470
-0.353553 2.000000 1.853554 -0.555570 0.000000 0.831470
-0.353553 0.000000 1.853554 -0.555570 0.000000 0.831470
-0.353553 0.000000 1.853554 -0.831470 0.000000 0.555570
-0.353553 2.000000 1.853554 -0.831470 0.000000 0.555570
-0.461940 2.000000 1.691342 -0.831470 0.000000 0.555570
-0.461940 0.000000 1.691342 -0.831470 0.000000 0.555570
-0.461940 0.000000 1.691342 -0.980785 0.000000 0.195090
-0.461940 2.000000 1.691342 -0.980785 0.000000 0.195090
-0.500000 2.000000 1.500000 -0.980785 0.000000 0.195090
-0.500000 0.000000 1.500000 -0.980785 0.000000 0.195090
-0.500000 0.000000 1.500000 -0.980785 0.000000 -0.195090
-0.500000 2.000000 1.500000 -0.980785 0.000000 -0.195090
-0.461940 2.000000 1.308658 -0.980785 0.000000 -0.195090
-0.461940 0.000000 1.308658 -0.980785 0.000000 -0.195090
-0.461940 0.000000 1.308658 -0.831470 0.000000 -0.555570
-0.461940 2.000000 1.308658 -0.831470 0.000000 -0.555570
-0.353553 2.000000 1.146446 -0.831470 0.000000 -0.555570
-0.353553 0.000000 1.146446 -0.831470 0.000000 -0.555570
0.191342 2.000000 1.038060 0.000000 1.000000 0.000000
0.000000 2.000000 1.000000 0.000000 1.000000 0.000000
-0.191341 2.000000 1.038060 0.000000 1.000000 0.000000
-0.353553 2.000000 1.146446 0.000000 1.000000 0.000000
-0.461940 2.000000 1.308658 0.000000 1.000000 0.000000
-0.500000 2.000000 1.500000 0.000000 1.000000 0.000000
-0.461940 2.000000 1.691342 0.000000 1.000000 0.000000
-0.353553 2.000000 1.853554 0.000000 1.000000 0.000000
-0.191342 2.000000 1.961940 0.000000 1.000000 0.000000
0.000000 2.000000 2.000000 0.000000 1.000000 0.000000
0.191342 2.000000 1.961940 0.000000 1.000000 0.000000
0.353553 2.000000 1.853553 0.000000 1.000000 0.000000
0.461940 2.000000 1.691342 0.000000 1.000000 0.000000
0.500000 2.000000 1.500000 0.000000 1.000000 0.000000
0.461940 2.000000 1.308658 0.000000 1.000000 0.000000
0.353553 2.000000 1.146447 0.000000 1.000000 0.000000
-0.353553 0.000000 1.146446 -0.555570 0.000000 -0.831470
-0.353553 2.000000 1.146446 -0.555570 0.000000 -0.831470
-0.191341 2.000000 1.038060 -0.555570 0.000000 -0.831470
-0.191341 0.000000 1.038060 -0.555570 0.000000 -0.831470
-0.191341 0.000000 1.038060 -0.195090 0.000000 -0.980785
-0.191341 2.000000 1.038060 -0.195090 0.000000 -0.980785
0.000000 2.000000 1.000000 -0.195090 0.000000 -0.980785
0.000000 0.000000 1.000000 -0.195090 0.000000 -0.980785
0.000000 0.000000 1.000000 0.000000 -1.000000 0.000000
0.191342 0.000000 1.038060 0.000000 -1.000000 0.000000
0.353553 0.000000 1.146447 0.000000 -1.000000 0.000000
0.461940 0.000000 1.308658 0.000000 -1.000000 0.000000
0.500000 0.000000 1.500000 0.000000 -1.000000 0.000000
0.461940 0.000000 1.691342 0.000000 -1.000000 0.000000
0.353553 0.000000 1.853553 0.000000 -1.000000 0.000000
0.191342 0.000000 1.961940 0.000000 -1.000000 0.000000
0.000000 0.000000 2.000000 0.000000 -1.000000 0.000000
-0.191342 0.000000 1.961940 0.000000 -1.000000 0.000000
-0.353553 0.000000 1.853554 0.000000 -1.000000 0.000000
-0.461940 0.000000 1.691342 0.000000 -1.000000 0.000000
-0.500000 0.000000 1.500000 0.000000 -1.000000 0.000000
-0.461940 0.000000 1.308658 0.000000 -1.000000 0.000000
-0.353553 0.000000 1.146446 0.000000 -1.000000 0.000000
-0.191341 0.000000 1.038060 0.000000 -1.000000 0.000000
4 0 1 2 3
4 4 5 6 7
4 8 9 10 11
4 12 13 14 15
4 16 17 18 19
4 20 21 22 23
4 24 25 26 27
4 28 29 30 31
4 32 33 34 35
4 36 37 38 39
4 40 41 42 43
4 44 45 46 47
4 48 49 50 51
4 52 53 54 55
16 56 57 58 59 60 61 62 63 64 65 66 67 68 69 70 71
4 72 73 74 75
4 76 77 78 79
16 80 81 82 83 84 85 86 87 88 89 90 91 92 93 94 95
