ply
format ascii 1.0
comment Created by Blender 2.92.0 - www.blender.org
element vertex 96
property float x
property float y
property float z
property float nx
property float ny
property float nz
element face 18
property list uchar uint vertex_indices
end_header
0.000000 3.847759 -0.765367 0.191481 0.962637 -0.191481
0.000000 4.000000 -0.000000 0.191481 0.962637 -0.191481
0.191342 3.961940 -0.000000 0.191481 0.962637 -0.191481
0.191342 3.812596 -0.750802 0.191481 0.962637 -0.191481
0.191342 3.812596 -0.750802 0.548124 0.820326 -0.163173
0.191342 3.961940 -0.000000 0.548124 0.820326 -0.163173
0.353553 3.853553 -0.000000 0.548124 0.820326 -0.163173
0.353553 3.712460 -0.709324 0.548124 0.820326 -0.163173
0.353553 3.712460 -0.709324 0.826439 0.552209 -0.109841
0.353553 3.853553 -0.000000 0.826439 0.552209 -0.109841
0.461940 3.691342 -0.000000 0.826439 0.552209 -0.109841
0.461940 3.562596 -0.647248 0.826439 0.552209 -0.109841
0.461940 3.562596 -0.647248 0.980048 0.194944 -0.038777
0.461940 3.691342 -0.000000 0.980048 0.194944 -0.038777
0.500000 3.500000 -0.000000 0.980048 0.194944 -0.038777
0.500000 3.385819 -0.574025 0.980048 0.194944 -0.038777
0.500000 3.385819 -0.574025 0.980048 -0.194944 0.038777
0.500000 3.500000 -0.000000 0.980048 -0.194944 0.038777
0.461940 3.308658 -0.000000 0.980048 -0.194944 0.038777
0.461940 3.209043 -0.500802 0.980048 -0.194944 0.038777
0.461940 3.209043 -0.500802 0.826438 -0.552209 0.109841
0.461940 3.308658 -0.000000 0.826438 -0.552209 0.109841
0.353553 3.146447 0.000000 0.826438 -0.552209 0.109841
0.353553 3.059178 -0.438726 0.826438 -0.552209 0.109841
0.353553 3.059178 -0.438726 0.548124 -0.820326 0.163173
0.353553 3.146447 0.000000 0.548124 -0.820326 0.163173
0.191342 3.038060 0.000000 0.548124 -0.820326 0.163173
0.191342 2.959043 -0.397248 0.548124 -0.820326 0.163173
0.191342 2.959043 -0.397248 0.191480 -0.962637 0.191480
0.191342 3.038060 0.000000 0.191480 -0.962637 0.191480
0.000000 3.000000 0.000000 0.191480 -0.962637 0.191480
0.000000 2.923880 -0.382683 0.191480 -0.962637 0.191480
0.000000 2.923880 -0.382683 -0.191480 -0.962637 0.191480
0.000000 3.000000 0.000000 -0.191480 -0.962637 0.191480
-0.191342 3.038060 0.000000 -0.191480 -0.962637 0.191480
-0.191342 2.959043 -0.397248 -0.191480 -0.962637 0.191480
-0.191342 2.959043 -0.397248 -0.548124 -0.820326 0.163173
-0.191342 3.038060 0.000000 -0.548124 -0.820326 0.163173
-0.353553 3.146447 0.000000 -0.548124 -0.820326 0.163173
-0.353553 3.059178 -0.438726 -0.548124 -0.820326 0.163173
-0.353553 3.059178 -0.438726 -0.826438 -0.552209 0.109841
-0.353553 3.146447 0.000000 -0.826438 -0.552209 0.109841
-0.461940 3.308658 -0.000000 -0.826438 -0.552209 0.109841
-0.461940 3.209043 -0.500802 -0.826438 -0.552209 0.109841
-0.461940 3.209043 -0.500802 -0.980048 -0.194943 0.038777
-0.461940 3.308658 -0.000000 -0.980048 -0.194943 0.038777
-0.500000 3.500000 -0.000000 -0.980048 -0.194943 0.038777
-0.500000 3.385819 -0.574025 -0.980048 -0.194943 0.038777
-0.500000 3.385819 -0.574025 -0.980048 0.194943 -0.038777
-0.500000 3.500000 -0.000000 -0.980048 0.194943 -0.038777
-0.461940 3.691342 -0.000000 -0.980048 0.194943 -0.038777
-0.461940 3.562596 -0.647248 -0.980048 0.194943 -0.038777
-0.461940 3.562596 -0.647248 -0.826438 0.552209 -0.109841
-0.461940 3.691342 -0.000000 -0.826438 0.552209 -0.109841
-0.353553 3.853553 -0.000000 -0.826438 0.552209 -0.109841
-0.353553 3.712460 -0.709324 -0.826438 0.552209 -0.109841
-0.353553 3.712460 -0.709324 -0.548124 0.820326 -0.163173
-0.353553 3.853553 -0.000000 -0.548124 0.820326 -0.163173
-0.191342 3.961940 -0.000000 -0.548124 0.820326 -0.163173
-0.191342 3.812596 -0.750802 -0.548124 0.820326 -0.163173
-0.191342 3.812596 -0.750802 -0.191481 0.962637 -0.191481
-0.191342 3.961940 -0.000000 -0.191481 0.962637 -0.191481
0.000000 4.000000 -0.000000 -0.191481 0.962637 -0.191481
0.000000 3.847759 -0.765367 -0.191481 0.962637 -0.191481
0.000000 4.000000 -0.000000 -0.000000 0.000000 1.000000
-0.191342 3.961940 -0.000000 -0.000000 0.000000 1.000000
-0.353553 3.853553 -0.000000 -0.000000 0.000000 1.000000
-0.461940 3.691342 -0.000000 -0.000000 0.000000 1.000000
-0.500000 3.500000 -0.000000 -0.000000 0.000000 1.000000
-0.461940 3.308658 -0.000000 -0.000000 0.000000 1.000000
-0.353553 3.146447 0.000000 -0.000000 0.000000 1.000000
-0.191342 3.038060 0.000000 -0.000000 0.000000 1.000000
0.000000 3.000000 0.000000 -0.000000 0.000000 1.000000
0.191342 3.038060 0.000000 -0.000000 0.000000 1.000000
0.353553 3.146447 0.000000 -0.000000 0.000000 1.000000
0.461940 3.308658 -0.000000 -0.000000 0.000000 1.000000
0.500000 3.500000 -0.000000 -0.000000 0.000000 1.000000
0.461940 3.691342 -0.000000 -0.000000 0.000000 1.000000
0.353553 3.853553 -0.000000 -0.000000 0.000000 1.000000
0.191342 3.961940 -0.000000 -0.000000 0.000000 1.000000
0.000000 3.847759 -0.765367 0.000000 -0.382684 -0.923880
0.191342 3.812596 -0.750802 0.000000 -0.382684 -0.923880
0.353553 3.712460 -0.709324 0.000000 -0.382684 -0.923880
0.461940 3.562596 -0.647248 0.000000 -0.382684 -0.923880
0.500000 3.385819 -0.574025 0.000000 -0.382684 -0.923880
0.461940 3.209043 -0.500802 0.000000 -0.382684 -0.923880
0.353553 3.059178 -0.438726 0.000000 -0.382684 -0.923880
0.191342 2.959043 -0.397248 0.000000 -0.382684 -0.923880
0.000000 2.923880 -0.382683 0.000000 -0.382684 -0.923880
-0.191342 2.959043 -0.397248 0.000000 -0.382684 -0.923880
-0.353553 3.059178 -0.438726 0.000000 -0.382684 -0.923880
-0.461940 3.209043 -0.500802 0.000000 -0.382684 -0.923880
-0.500000 3.385819 -0.574025 0.000000 -0.382684 -0.923880
-0.461940 3.562596 -0.647248 0.000000 -0.382684 -0.923880
-0.353553 3.712460 -0.709324 0.000000 -0.382684 -0.923880
-0.191342 3.812596 -0.750802 0.000000 -0.382684 -0.923880
4 0 1 2 3
4 4 5 6 7
4 8 9 10 11
4 12 13 14 15
4 16 17 18 19
4 20 21 22 23
4 24 25 26 27
4 28 29 30 31
4 32 33 34 35
4 36 37 38 39
4 40 41 42 43
4 44 45 46 47
4 48 49 50 51
4 52 53 54 55
4 56 57 58 59
4 60 61 62 63
16 64 65 66 67 68 69 70 71 72 73 74 75 76 77 78 79
16 80 81 82 83 84 85 86 87 88 89 90 91 92 93 94 95
