ply
format ascii 1.0
comment Created by Blender 2.92.0 - www.blender.org
element vertex 96
property float x
property float y
property float z
property float nx
property float ny
property float nz
element face 18
property list uchar uint vertex_indices
end_header
0.000000 3.847759 0.765366 0.191480 0.816085 0.545290
0.000000 3.414214 1.414213 0.191480 0.816085 0.545290
0.191342 3.387301 1.387301 0.191480 0.816085 0.545290
0.191342 3.812596 0.750801 0.191480 0.816085 0.545290
0.191342 3.812596 0.750801 0.548124 0.695439 0.464677
0.191342 3.387301 1.387301 0.548124 0.695439 0.464677
0.353553 3.310660 1.310660 0.548124 0.695439 0.464677
0.353553 3.712461 0.709324 0.548124 0.695439 0.464677
0.353553 3.712461 0.709324 0.826439 0.468140 0.312801
0.353553 3.310660 1.310660 0.826439 0.468140 0.312801
0.461940 3.195960 1.195959 0.826439 0.468140 0.312801
0.461940 3.562596 0.647248 0.826439 0.468140 0.312801
0.461940 3.562596 0.647248 0.980048 0.165265 0.110427
0.461940 3.195960 1.195959 0.980048 0.165265 0.110427
0.500000 3.060660 1.060660 0.980048 0.165265 0.110427
0.500000 3.385819 0.574025 0.980048 0.165265 0.110427
0.500000 3.385819 0.574025 0.980048 -0.165265 -0.110427
0.500000 3.060660 1.060660 0.980048 -0.165265 -0.110427
0.461940 2.925361 0.925361 0.980048 -0.165265 -0.110427
0.461940 3.209043 0.500801 0.980048 -0.165265 -0.110427
0.461940 3.209043 0.500801 0.826438 -0.468140 -0.312801
0.461940 2.925361 0.925361 0.826438 -0.468140 -0.312801
0.353553 2.810660 0.810660 0.826438 -0.468140 -0.312801
0.353553 3.059179 0.438726 0.826438 -0.468140 -0.312801
0.353553 3.059179 0.438726 0.548124 -0.695439 -0.464677
0.353553 2.810660 0.810660 0.548124 -0.695439 -0.464677
0.191342 2.734020 0.734019 0.548124 -0.695439 -0.464677
0.191342 2.959043 0.397248 0.548124 -0.695439 -0.464677
0.191342 2.959043 0.397248 0.191480 -0.816085 -0.545290
0.191342 2.734020 0.734019 0.191480 -0.816085 -0.545290
0.000000 2.707107 0.707107 0.191480 -0.816085 -0.545290
0.000000 2.923880 0.382683 0.191480 -0.816085 -0.545290
0.000000 2.923880 0.382683 -0.191480 -0.816085 -0.545290
0.000000 2.707107 0.707107 -0.191480 -0.816085 -0.545290
-0.191342 2.734020 0.734019 -0.191480 -0.816085 -0.545290
-0.191342 2.959043 0.397248 -0.191480 -0.816085 -0.545290
-0.191342 2.959043 0.397248 -0.548124 -0.695439 -0.464677
-0.191342 2.734020 0.734019 -0.548124 -0.695439 -0.464677
-0.353553 2.810660 0.810660 -0.548124 -0.695439 -0.464677
-0.353553 3.059179 0.438726 -0.548124 -0.695439 -0.464677
-0.353553 3.059179 0.438726 -0.826439 -0.468140 -0.312801
-0.353553 2.810660 0.810660 -0.826439 -0.468140 -0.312801
-0.461940 2.925361 0.925361 -0.826439 -0.468140 -0.312801
-0.461940 3.209043 0.500801 -0.826439 -0.468140 -0.312801
-0.461940 3.209043 0.500801 -0.980048 -0.165265 -0.110427
-0.461940 2.925361 0.925361 -0.980048 -0.165265 -0.110427
-0.500000 3.060660 1.060660 -0.980048 -0.165265 -0.110427
-0.500000 3.385819 0.574025 -0.980048 -0.165265 -0.110427
-0.500000 3.385819 0.574025 -0.980048 0.165265 0.110427
-0.500000 3.060660 1.060660 -0.980048 0.165265 0.110427
-0.461940 3.195960 1.195959 -0.980048 0.165265 0.110427
-0.461940 3.562596 0.647248 -0.980048 0.165265 0.110427
-0.461940 3.562596 0.647248 -0.826439 0.468140 0.312801
-0.461940 3.195960 1.195959 -0.826439 0.468140 0.312801
-0.353553 3.310660 1.310660 -0.826439 0.468140 0.312801
-0.353553 3.712461 0.709324 -0.826439 0.468140 0.312801
-0.353553 3.712461 0.709324 -0.548124 0.695439 0.464677
-0.353553 3.310660 1.310660 -0.548124 0.695439 0.464677
-0.191342 3.387301 1.387301 -0.548124 0.695439 0.464677
-0.191342 3.812596 0.750801 -0.548124 0.695439 0.464677
-0.191342 3.812596 0.750801 -0.191480 0.816085 0.545290
-0.191342 3.387301 1.387301 -0.191480 0.816085 0.545290
0.000000 3.414214 1.414213 -0.191480 0.816085 0.545290
0.000000 3.847759 0.765366 -0.191480 0.816085 0.545290
0.000000 3.847759 0.765366 -0.000000 0.382683 -0.923880
0.191342 3.812596 0.750801 -0.000000 0.382683 -0.923880
0.353553 3.712461 0.709324 -0.000000 0.382683 -0.923880
0.461940 3.562596 0.647248 -0.000000 0.382683 -0.923880
0.500000 3.385819 0.574025 -0.000000 0.382683 -0.923880
0.461940 3.209043 0.500801 -0.000000 0.382683 -0.923880
0.353553 3.059179 0.438726 -0.000000 0.382683 -0.923880
0.191342 2.959043 0.397248 -0.000000 0.382683 -0.923880
0.000000 2.923880 0.382683 -0.000000 0.382683 -0.923880
-0.191342 2.959043 0.397248 -0.000000 0.382683 -0.923880
-0.353553 3.059179 0.438726 -0.000000 0.382683 -0.923880
-0.461940 3.209043 0.500801 -0.000000 0.382683 -0.923880
-0.500000 3.385819 0.574025 -0.000000 0.382683 -0.923880
-0.461940 3.562596 0.647248 -0.000000 0.382683 -0.923880
-0.353553 3.712461 0.709324 -0.000000 0.382683 -0.923880
-0.191342 3.812596 0.750801 -0.000000 0.382683 -0.923880
0.000000 3.414214 1.414213 -0.000000 -0.707107 0.707107
-0.191342 3.387301 1.387301 -0.000000 -0.707107 0.707107
-0.353553 3.310660 1.310660 -0.000000 -0.707107 0.707107
-0.461940 3.195960 1.195959 -0.000000 -0.707107 0.707107
-0.500000 3.060660 1.060660 -0.000000 -0.707107 0.707107
-0.461940 2.925361 0.925361 -0.000000 -0.707107 0.707107
-0.353553 2.810660 0.810660 -0.000000 -0.707107 0.707107
-0.191342 2.734020 0.734019 -0.000000 -0.707107 0.707107
0.000000 2.707107 0.707107 -0.000000 -0.707107 0.707107
0.191342 2.734020 0.734019 -0.000000 -0.707107 0.707107
0.353553 2.810660 0.810660 -0.000000 -0.707107 0.707107
0.461940 2.925361 0.925361 -0.000000 -0.707107 0.707107
0.500000 3.060660 1.060660 -0.000000 -0.707107 0.707107
0.461940 3.195960 1.195959 -0.000000 -0.707107 0.707107
0.353553 3.310660 1.310660 -0.000000 -0.707107 0.707107
0.191342 3.387301 1.387301 -0.000000 -0.707107 0.707107
4 0 1 2 3
4 4 5 6 7
4 8 9 10 11
4 12 13 14 15
4 16 17 18 19
4 20 21 22 23
4 24 25 26 27
4 28 29 30 31
4 32 33 34 35
4 36 37 38 39
4 40 41 42 43
4 44 45 46 47
4 48 49 50 51
4 52 53 54 55
4 56 57 58 59
4 60 61 62 63
16 64 65 66 67 68 69 70 71 72 73 74 75 76 77 78 79
16 80 81 82 83 84 85 86 87 88 89 90 91 92 93 94 95
