ply
format ascii 1.0
comment Created by Blender 2.92.0 - www.blender.org
element vertex 24
property float x
property float y
property float z
property float nx
property float ny
property float nz
element face 6
property list uchar uint vertex_indices
end_header
-0.154509 -0.475528 -0.500000 -0.587785 -0.809017 -0.000000
-0.154509 -0.475528 0.500000 -0.587785 -0.809017 -0.000000
-0.404509 -0.293893 0.500000 -0.587785 -0.809017 -0.000000
-0.404509 -0.293893 -0.500000 -0.587785 -0.809017 -0.000000
-0.142149 -0.437486 -0.500000 0.587784 0.809018 0.000000
-0.372148 -0.270382 -0.500000 0.587784 0.809018 0.000000
-0.372148 -0.270382 0.500000 0.587784 0.809018 0.000000
-0.142149 -0.437486 0.500000 0.587784 0.809018 0.000000
-0.154509 -0.475528 -0.500000 -0.000000 -0.000000 -1.000000
-0.404509 -0.293893 -0.500000 -0.000000 -0.000000 -1.000000
-0.372148 -0.270382 -0.500000 -0.000000 -0.000000 -1.000000
-0.142149 -0.437486 -0.500000 -0.000000 -0.000000 -1.000000
-0.404509 -0.293893 0.500000 -0.000000 0.000000 1.000000
-0.154509 -0.475528 0.500000 -0.000000 0.000000 1.000000
-0.142149 -0.437486 0.500000 -0.000000 0.000000 1.000000
-0.372148 -0.270382 0.500000 -0.000000 0.000000 1.000000
-0.404509 -0.293893 -0.500000 -0.587767 0.809030 -0.000000
-0.404509 -0.293893 0.500000 -0.587767 0.809030 -0.000000
-0.372148 -0.270382 0.500000 -0.587767 0.809030 -0.000000
-0.372148 -0.270382 -0.500000 -0.587767 0.809030 -0.000000
-0.154509 -0.475528 -0.500000 0.951061 -0.309004 0.000000
-0.142149 -0.437486 -0.500000 0.951061 -0.309004 0.000000
-0.142149 -0.437486 0.500000 0.951061 -0.309004 0.000000
-0.154509 -0.475528 0.500000 0.951061 -0.309004 0.000000
4 0 1 2 3
4 4 5 6 7
4 8 9 10 11
4 12 13 14 15
4 16 17 18 19
4 20 21 22 23
