ply
format ascii 1.0
comment Created by Blender 2.92.0 - www.blender.org
element vertex 42
property float x
property float y
property float z
property float nx
property float ny
property float nz
element face 9
property list uchar uint vertex_indices
end_header
2.999999 0.000000 3.072289 0.000000 1.000000 0.000000
6.644444 0.000000 -0.120483 0.000000 1.000000 0.000000
6.177777 0.000000 -4.879519 0.000000 1.000000 0.000000
1.422221 0.000000 -6.295181 0.000000 1.000000 0.000000
-3.355555 0.000000 -3.825301 0.000000 1.000000 0.000000
-3.355555 0.000000 0.692771 0.000000 1.000000 0.000000
-1.066667 0.000000 3.704819 0.000000 1.000000 0.000000
2.999999 -0.100000 3.072289 0.000000 -1.000000 -0.000000
-1.066667 -0.100000 3.704819 0.000000 -1.000000 -0.000000
-3.355555 -0.100000 0.692771 0.000000 -1.000000 -0.000000
-3.355555 -0.100000 -3.825301 0.000000 -1.000000 -0.000000
1.422221 -0.100000 -6.295181 0.000000 -1.000000 -0.000000
6.177777 -0.100000 -4.879519 0.000000 -1.000000 -0.000000
6.644444 -0.100000 -0.120483 0.000000 -1.000000 -0.000000
2.999999 0.000000 3.072289 0.153692 0.000000 0.988119
-1.066667 0.000000 3.704819 0.153692 0.000000 0.988119
-1.066667 -0.100000 3.704819 0.153692 0.000000 0.988119
2.999999 -0.100000 3.072289 0.153692 0.000000 0.988119
6.177777 0.000000 -4.879519 0.995227 0.000000 -0.097591
6.644444 0.000000 -0.120483 0.995227 0.000000 -0.097591
6.644444 -0.100000 -0.120483 0.995227 0.000000 -0.097591
6.177777 -0.100000 -4.879519 0.995227 0.000000 -0.097591
1.422221 0.000000 -6.295181 0.285313 0.000000 -0.958435
6.177777 0.000000 -4.879519 0.285313 0.000000 -0.958435
6.177777 -0.100000 -4.879519 0.285313 0.000000 -0.958435
1.422221 -0.100000 -6.295181 0.285313 0.000000 -0.958435
-3.355555 0.000000 -3.825301 -0.459220 0.000000 -0.888323
1.422221 0.000000 -6.295181 -0.459220 0.000000 -0.888323
1.422221 -0.100000 -6.295181 -0.459220 0.000000 -0.888323
-3.355555 -0.100000 -3.825301 -0.459220 0.000000 -0.888323
6.644444 0.000000 -0.120483 0.658958 0.000000 0.752180
2.999999 0.000000 3.072289 0.658958 0.000000 0.752180
2.999999 -0.100000 3.072289 0.658958 0.000000 0.752180
6.644444 -0.100000 -0.120483 0.658958 0.000000 0.752180
-3.355555 0.000000 0.692771 -1.000000 0.000000 0.000000
-3.355555 0.000000 -3.825301 -1.000000 0.000000 0.000000
-3.355555 -0.100000 -3.825301 -1.000000 0.000000 0.000000
-3.355555 -0.100000 0.692771 -1.000000 0.000000 0.000000
-1.066667 0.000000 3.704819 -0.796196 0.000000 0.605038
-3.355555 0.000000 0.692771 -0.796196 0.000000 0.605038
-3.355555 -0.100000 0.692771 -0.796196 0.000000 0.605038
-1.066667 -0.100000 3.704819 -0.796196 0.000000 0.605038
7 0 1 2 3 4 5 6
7 7 8 9 10 11 12 13
4 14 15 16 17
4 18 19 20 21
4 22 23 24 25
4 26 27 28 29
4 30 31 32 33
4 34 35 36 37
4 38 39 40 41
