ply
format ascii 1.0
comment Created by Blender 2.92.0 - www.blender.org
element vertex 145
property float x
property float y
property float z
property float nx
property float ny
property float nz
element face 61
property list uchar uint vertex_indices
end_header
-3.355555 0.000000 0.692771 0.000000 1.000000 0.000000
-1.066667 0.000000 3.704819 0.000000 1.000000 0.000000
1.422221 0.000000 -6.295181 0.000000 1.000000 0.000000
-3.355555 -0.100000 0.692771 0.000000 -1.000000 0.000000
-3.355555 -0.100000 -3.825301 0.000000 -1.000000 0.000000
1.422221 -0.100000 -6.295181 0.000000 -1.000000 0.000000
-1.066667 0.000000 3.704819 0.153692 0.000000 0.988119
2.999999 -0.100000 3.072289 0.153692 0.000000 0.988119
2.999999 0.000000 3.072289 0.153692 0.000000 0.988119
6.644444 0.000000 -0.120483 0.995227 0.000000 -0.097591
6.177777 -0.100000 -4.879519 0.995227 0.000000 -0.097591
6.177777 0.000000 -4.879519 0.995227 0.000000 -0.097591
6.177777 0.000000 -4.879519 0.285313 0.000000 -0.958435
1.422221 -0.100000 -6.295181 0.285313 0.000000 -0.958435
1.422221 0.000000 -6.295181 0.285313 0.000000 -0.958435
1.422221 0.000000 -6.295181 -0.459220 -0.000000 -0.888323
-3.355555 -0.100000 -3.825301 -0.459220 -0.000000 -0.888323
-3.355555 0.000000 -3.825301 -0.459220 -0.000000 -0.888323
2.999999 0.000000 3.072289 0.658958 0.000000 0.752180
6.644444 -0.100000 -0.120483 0.658958 0.000000 0.752180
6.644444 0.000000 -0.120483 0.658958 0.000000 0.752180
-3.355555 0.000000 -3.825301 -1.000000 -0.000000 -0.000000
-3.355555 -0.100000 0.692771 -1.000000 -0.000000 -0.000000
-3.355555 0.000000 0.692771 -1.000000 -0.000000 -0.000000
-3.355555 0.000000 0.692771 -0.796196 0.000000 0.605038
-1.066667 -0.100000 3.704819 -0.796196 0.000000 0.605038
-1.066667 0.000000 3.704819 -0.796196 0.000000 0.605038
6.094459 -0.325465 -0.174343 0.321778 -0.872669 0.367299
2.999999 -0.100000 3.072289 0.321778 -0.872669 0.367299
2.503357 -0.550930 2.436013 0.321778 -0.872669 0.367299
5.155061 -0.550930 -4.199393 0.382185 -0.923326 -0.037477
6.644444 -0.100000 -0.120483 0.382185 -0.923326 -0.037477
6.094459 -0.325465 -0.174343 0.382185 -0.923326 -0.037477
-3.355555 -0.100000 -3.825301 -0.239717 -0.852939 -0.463713
1.422221 -0.100000 -6.295181 -0.239717 -0.852939 -0.463713
-0.215174 -0.877647 -4.018346 -0.239717 -0.852939 -0.463713
-0.215174 -0.877647 -4.018346 0.080355 -0.959520 -0.269934
1.422221 -0.100000 -6.295181 0.080355 -0.959520 -0.269934
6.177777 -0.100000 -4.879519 0.080355 -0.959520 -0.269934
-2.409214 -0.843641 -2.424710 -0.617867 -0.786283 0.000000
-3.355555 -0.100000 0.692771 -0.617867 -0.786283 0.000000
-3.355555 -0.100000 -3.825301 -0.617867 -0.786283 0.000000
2.503357 -0.550930 2.436013 0.082809 -0.842434 0.532398
-1.066667 -0.100000 3.704819 0.082809 -0.842434 0.532398
-0.651746 -1.159553 1.963709 0.082809 -0.842434 0.532398
-0.651746 -1.159553 1.963709 -0.490175 -0.776940 0.395086
-3.355555 -0.100000 0.692771 -0.490175 -0.776940 0.395086
-2.970124 -0.687214 0.016204 -0.490175 -0.776940 0.395086
-0.651746 -1.159553 1.963709 -0.473227 -0.798115 0.372919
-2.457553 -1.103293 -0.207419 -0.473227 -0.798115 0.372919
-0.325873 -1.991710 0.596266 -0.473227 -0.798115 0.372919
2.113301 -0.905083 1.936290 0.082809 -0.842434 0.532398
-0.325873 -1.991710 0.596266 0.082809 -0.842434 0.532398
-1.076916 -1.743581 -1.792326 -0.677408 -0.660839 -0.323127
-2.457553 -1.103293 -0.207419 -0.677408 -0.660839 -0.323127
-2.970124 -0.687214 0.016204 -0.677408 -0.660839 -0.323127
-0.215174 -0.877647 -4.018346 0.034316 -0.852812 -0.521090
5.155061 -0.550930 -4.199393 0.034316 -0.852812 -0.521090
2.983402 -1.368370 -3.004591 0.034316 -0.852812 -0.521090
-2.409214 -0.843641 -2.424710 -0.370363 -0.787201 -0.493099
-0.215174 -0.877647 -4.018346 -0.370363 -0.787201 -0.493099
0.873116 -2.126523 -2.842003 -0.370363 -0.787201 -0.493099
2.983402 -1.368370 -3.004591 0.339342 -0.940289 -0.026528
5.155061 -0.550930 -4.199393 0.339342 -0.940289 -0.026528
6.094459 -0.325465 -0.174343 0.339342 -0.940289 -0.026528
2.113301 -0.905083 1.936290 0.318848 -0.876477 0.360727
3.466634 -1.470352 -0.633390 0.318848 -0.876477 0.360727
6.094459 -0.325465 -0.174343 0.318848 -0.876477 0.360727
-0.325873 -1.991710 0.596266 -0.075138 -0.703209 0.707002
1.452293 -3.199086 -0.415656 -0.075138 -0.703209 0.707002
2.113301 -0.905083 1.936290 -0.075138 -0.703209 0.707002
1.452293 -3.199086 -0.415656 -0.341419 -0.887094 -0.310641
-1.076916 -1.743581 -1.792326 -0.341419 -0.887094 -0.310641
0.873116 -2.126523 -2.842003 -0.341419 -0.887094 -0.310641
-1.127682 -2.136523 -0.840371 -0.298772 -0.876405 -0.377690
-1.076916 -1.743581 -1.792326 -0.298772 -0.876405 -0.377690
1.452293 -3.199086 -0.415656 -0.298772 -0.876405 -0.377690
1.452293 -3.199086 -0.415656 0.605922 -0.647885 0.461631
3.466634 -1.470352 -0.633390 0.605922 -0.647885 0.461631
2.113301 -0.905083 1.936290 0.605922 -0.647885 0.461631
1.452293 -3.199086 -0.415656 -0.448878 -0.861127 0.238680
-0.325873 -1.991710 0.596266 -0.448878 -0.861127 0.238680
-2.457553 -1.103293 -0.207419 -0.448878 -0.861127 0.238680
3.466634 -1.470352 -0.633390 0.632600 -0.757454 -0.161496
1.452293 -3.199086 -0.415656 0.632600 -0.757454 -0.161496
2.983402 -1.368370 -3.004591 0.632600 -0.757454 -0.161496
0.873116 -2.126523 -2.842003 0.272768 -0.854176 -0.442698
2.983402 -1.368370 -3.004591 0.272768 -0.854176 -0.442698
1.452293 -3.199086 -0.415656 0.272768 -0.854176 -0.442698
-1.127682 -2.136523 -0.840371 -0.402224 -0.795421 0.453345
1.452293 -3.199086 -0.415656 -0.402224 -0.795421 0.453345
-2.457553 -1.103293 -0.207419 -0.402224 -0.795421 0.453345
2.113301 -0.905083 1.936290 0.321778 -0.872669 0.367299
3.466634 -1.470352 -0.633390 0.414387 -0.901719 -0.123231
2.983402 -1.368370 -3.004591 0.414387 -0.901719 -0.123231
6.094459 -0.325465 -0.174343 0.414387 -0.901719 -0.123231
-1.076916 -1.743581 -1.792326 -0.377510 -0.837094 -0.395929
-2.409214 -0.843641 -2.424710 -0.377510 -0.837094 -0.395929
0.873116 -2.126523 -2.842003 -0.377510 -0.837094 -0.395929
0.873116 -2.126523 -2.842003 0.155893 -0.601884 -0.783220
-0.215174 -0.877647 -4.018346 0.155893 -0.601884 -0.783220
2.983402 -1.368370 -3.004591 0.155893 -0.601884 -0.783220
-2.409214 -0.843641 -2.424710 -0.535657 -0.841599 -0.069157
-1.076916 -1.743581 -1.792326 -0.535657 -0.841599 -0.069157
-2.970124 -0.687214 0.016204 -0.535657 -0.841599 -0.069157
5.155061 -0.550930 -4.199393 0.034712 -0.856203 -0.515473
-0.215174 -0.877647 -4.018346 0.034712 -0.856203 -0.515473
6.177777 -0.100000 -4.879519 0.034712 -0.856203 -0.515473
-2.409214 -0.843641 -2.424710 -0.246230 -0.915046 -0.319471
-3.355555 -0.100000 -3.825301 -0.246230 -0.915046 -0.319471
-0.215174 -0.877647 -4.018346 -0.246230 -0.915046 -0.319471
2.999999 0.000000 3.072289 0.000000 1.000000 -0.000000
6.644444 0.000000 -0.120483 0.000000 1.000000 -0.000000
6.177777 0.000000 -4.879519 0.000000 1.000000 0.000000
-3.355555 0.000000 -3.825301 0.000000 1.000000 0.000000
6.644444 -0.100000 -0.120483 0.000000 -1.000000 0.000000
2.999999 -0.100000 3.072289 0.000000 -1.000000 0.000000
-1.066667 -0.100000 3.704819 0.000000 -1.000000 0.000000
6.177777 -0.100000 -4.879519 -0.000000 -1.000000 0.000000
-1.066667 -0.100000 3.704819 0.153692 -0.000000 0.988119
6.644444 -0.100000 -0.120483 0.995227 0.000000 -0.097591
6.177777 -0.100000 -4.879519 0.285313 0.000000 -0.958435
1.422221 -0.100000 -6.295181 -0.459220 0.000000 -0.888323
2.999999 -0.100000 3.072289 0.658958 -0.000000 0.752180
-3.355555 -0.100000 -3.825301 -1.000000 0.000000 0.000000
-3.355555 -0.100000 0.692771 -0.796196 0.000000 0.605038
6.644444 -0.100000 -0.120483 0.321778 -0.872669 0.367299
5.155061 -0.550930 -4.199393 0.382184 -0.923326 -0.037477
6.177777 -0.100000 -4.879519 0.382184 -0.923326 -0.037477
6.644444 -0.100000 -0.120483 0.382184 -0.923326 -0.037477
-2.409214 -0.843641 -2.424710 -0.905405 -0.382834 -0.183523
-2.970124 -0.687214 0.016204 -0.905405 -0.382834 -0.183523
-3.355555 -0.100000 0.692771 -0.905405 -0.382834 -0.183523
2.503357 -0.550930 2.436013 0.082809 -0.842434 0.532397
2.999999 -0.100000 3.072289 0.082809 -0.842434 0.532397
-1.066667 -0.100000 3.704819 0.082809 -0.842434 0.532397
-0.651746 -1.159553 1.963709 -0.484040 -0.793982 0.367827
-1.066667 -0.100000 3.704819 -0.484040 -0.793982 0.367827
-3.355555 -0.100000 0.692771 -0.484040 -0.793982 0.367827
-0.651746 -1.159553 1.963709 -0.478686 -0.792639 0.377601
-2.970124 -0.687214 0.016204 -0.478686 -0.792639 0.377601
-2.457553 -1.103293 -0.207419 -0.478686 -0.792639 0.377601
-1.127682 -2.136523 -0.840371 -0.671120 -0.671961 -0.313157
-2.457553 -1.103293 -0.207419 -0.671120 -0.671961 -0.313157
-1.076916 -1.743581 -1.792326 -0.671120 -0.671961 -0.313157
3 0 1 2
3 3 4 5
3 6 7 8
3 9 10 11
3 12 13 14
3 15 16 17
3 18 19 20
3 21 22 23
3 24 25 26
3 27 28 29
3 30 31 32
3 33 34 35
3 36 37 38
3 39 40 41
3 42 43 44
3 45 46 47
3 48 49 50
3 51 44 52
3 53 54 55
3 56 57 58
3 59 60 61
3 62 63 64
3 65 66 67
3 68 69 70
3 71 72 73
3 74 75 76
3 77 78 79
3 80 81 82
3 83 84 85
3 86 87 88
3 89 90 91
3 29 92 27
3 93 94 95
3 96 97 98
3 99 100 101
3 102 103 104
3 105 106 107
3 108 109 110
3 1 111 2
3 111 112 2
3 112 113 2
3 2 114 0
3 115 116 5
3 116 117 5
3 115 5 118
3 117 3 5
3 6 119 7
3 9 120 10
3 12 121 13
3 15 122 16
3 18 123 19
3 21 124 22
3 24 125 25
3 27 126 28
3 127 128 129
3 130 131 132
3 133 134 135
3 136 137 138
3 139 140 141
3 51 42 44
3 142 143 144
