ply
format ascii 1.0
comment Created by Blender 2.92.0 - www.blender.org
element vertex 168
property float x
property float y
property float z
property float nx
property float ny
property float nz
element face 76
property list uchar uint vertex_indices
end_header
-0.191560 -0.442326 0.000000 -0.000000 -1.000000 -0.000000
0.230036 -0.442326 -0.092764 -0.000000 -1.000000 -0.000000
0.230036 -0.442326 0.000000 -0.000000 -1.000000 -0.000000
0.230036 -0.259779 0.040049 0.000000 0.277438 0.960743
-0.191560 -0.442326 0.092764 0.000000 0.277438 0.960743
0.230036 -0.442326 0.092764 0.000000 0.277438 0.960743
-0.191560 -0.442326 -0.092764 0.000000 0.277438 -0.960743
0.230036 -0.259779 -0.040049 0.000000 0.277438 -0.960743
0.230036 -0.442326 -0.092764 0.000000 0.277438 -0.960743
-0.191560 -0.442326 0.092764 -0.000000 -1.000000 -0.000000
0.230036 -0.442326 0.092764 -0.000000 -1.000000 -0.000000
-0.191560 -0.123981 -0.038882 0.000000 -0.606782 -0.794868
0.230036 0.000000 -0.133526 0.000000 -0.606782 -0.794868
0.230036 -0.123981 -0.038882 0.000000 -0.606782 -0.794868
0.230036 0.116431 0.000000 0.000000 0.753707 0.657211
-0.191560 0.000000 0.133526 0.000000 0.753707 0.657211
0.230036 0.000000 0.133526 0.000000 0.753707 0.657211
0.230036 0.000000 -0.133526 0.000000 0.753707 -0.657211
-0.191560 0.116431 0.000000 0.000000 0.753707 -0.657211
0.230036 0.116431 0.000000 0.000000 0.753707 -0.657211
0.230036 0.000000 0.133526 0.000000 -0.606782 0.794868
-0.191560 -0.123981 0.038882 0.000000 -0.606782 0.794868
0.230036 -0.123981 0.038882 0.000000 -0.606782 0.794868
0.230036 -0.123981 0.038882 0.000000 0.008594 0.999963
-0.191560 -0.259779 0.040049 0.000000 0.008594 0.999963
0.230036 -0.259779 0.040049 0.000000 0.008594 0.999963
-0.191560 -0.259779 -0.040049 0.000000 0.008594 -0.999963
0.230036 -0.123981 -0.038882 0.000000 0.008594 -0.999963
0.230036 -0.259779 -0.040049 0.000000 0.008594 -0.999963
0.230036 -0.123981 -0.038882 0.000000 -1.000000 -0.000000
0.944389 -0.123981 0.038882 0.000000 -1.000000 -0.000000
0.230036 -0.123981 0.038882 0.000000 -1.000000 -0.000000
0.230036 -0.259779 -0.040049 1.000000 -0.000000 0.000000
0.230036 -0.259779 0.040049 1.000000 -0.000000 0.000000
0.230036 -0.442326 0.000000 1.000000 -0.000000 0.000000
0.944389 0.000000 -0.133526 0.000000 -0.606783 -0.794868
0.230036 -0.123981 -0.038882 0.000000 -0.606783 -0.794868
0.230036 0.000000 -0.133526 0.000000 -0.606783 -0.794868
0.944389 0.116431 0.000000 -0.000000 0.753707 0.657211
0.944389 0.000000 -0.133526 0.000000 0.753707 -0.657211
0.230036 -0.123981 0.038882 0.000000 -0.606783 0.794868
0.944389 0.000000 0.133526 0.000000 -0.606783 0.794868
0.230036 0.000000 0.133526 0.000000 -0.606783 0.794868
-0.191560 -0.259779 -0.040049 -1.000000 0.000000 -0.000000
-0.191560 -0.442326 0.000000 -1.000000 0.000000 -0.000000
-0.191560 -0.259779 0.040049 -1.000000 0.000000 -0.000000
0.944389 0.116431 0.000000 0.066966 0.752015 -0.655735
1.524982 0.000000 -0.074234 0.066966 0.752015 -0.655735
0.944389 0.000000 -0.133526 0.066966 0.752015 -0.655735
1.524982 -0.279596 -0.038882 -0.258890 -0.965907 0.000000
0.944389 -0.123981 0.038882 -0.258890 -0.965907 0.000000
0.944389 -0.123981 -0.038882 -0.258890 -0.965907 0.000000
0.944389 -0.123981 0.038882 0.080908 -0.604793 0.792262
1.524982 0.000000 0.074234 0.080908 -0.604793 0.792262
0.944389 0.000000 0.133526 0.080908 -0.604793 0.792262
0.944389 0.116431 0.000000 0.000000 0.537605 0.843197
1.524982 0.000000 0.074234 0.000000 0.537605 0.843197
1.524982 0.116431 0.000000 0.000000 0.537605 0.843197
1.524982 0.000000 -0.074234 0.080908 -0.604793 -0.792262
0.944389 -0.123981 -0.038882 0.080908 -0.604793 -0.792262
0.944389 0.000000 -0.133526 0.080908 -0.604793 -0.792262
1.524982 0.000000 0.074234 -0.073142 0.536165 0.840938
1.762249 0.066972 0.052171 -0.073142 0.536165 0.840938
1.524982 0.116431 0.000000 -0.073142 0.536165 0.840938
1.524982 0.116431 0.000000 -0.073142 0.536165 -0.840938
1.762249 0.066972 -0.052171 -0.073142 0.536165 -0.840938
1.524982 0.000000 -0.074234 -0.073142 0.536165 -0.840938
1.524982 -0.279596 -0.038882 -0.728243 -0.685319 0.000000
1.762249 -0.531724 0.000000 -0.728243 -0.685319 0.000000
1.524982 -0.279596 0.038882 -0.728243 -0.685319 0.000000
1.524982 -0.279596 -0.038882 0.126633 -0.124432 -0.984114
1.524982 0.000000 -0.074234 0.126633 -0.124432 -0.984114
1.762249 0.066972 -0.052171 0.126633 -0.124432 -0.984114
1.762249 0.066972 -0.052171 0.070826 -0.086594 -0.993723
1.762249 -0.531724 0.000000 0.070826 -0.086594 -0.993723
1.524982 -0.279596 -0.038882 0.070826 -0.086594 -0.993723
1.524982 -0.279596 0.038882 0.126633 -0.124432 0.984114
1.762249 0.066972 0.052171 0.126633 -0.124432 0.984114
1.524982 0.000000 0.074234 0.126633 -0.124432 0.984114
1.762249 0.066972 0.052171 0.070826 -0.086594 0.993723
1.524982 -0.279596 0.038882 0.070826 -0.086594 0.993723
1.762249 -0.531724 0.000000 0.070826 -0.086594 0.993723
1.762249 0.066972 0.052171 -0.151446 0.274983 0.949446
1.762249 0.247105 0.000000 -0.151446 0.274983 0.949446
1.524982 0.116431 0.000000 -0.151446 0.274983 0.949446
1.762249 0.066972 -0.052171 -0.151446 0.274983 -0.949446
1.524982 0.116431 0.000000 -0.151446 0.274983 -0.949446
1.762249 0.247105 0.000000 -0.151446 0.274983 -0.949446
1.762249 -0.531724 0.000000 0.477492 -0.878636 0.000000
2.069301 -0.364858 -0.016920 0.477492 -0.878636 0.000000
2.069301 -0.364858 0.016920 0.477492 -0.878636 0.000000
1.762249 0.066972 -0.052171 -0.007717 -0.086809 -0.996195
2.069301 -0.364858 -0.016920 -0.007717 -0.086809 -0.996195
1.762249 -0.531724 0.000000 -0.007717 -0.086809 -0.996195
1.762249 0.066972 -0.052171 0.088257 0.277106 -0.956777
1.762249 0.247105 0.000000 0.088257 0.277106 -0.956777
2.069301 0.149310 0.000000 0.088257 0.277106 -0.956777
1.762249 0.066972 0.052171 -0.001283 -0.082268 0.996609
2.069301 -0.364858 0.016920 -0.001283 -0.082268 0.996609
2.069301 0.062184 0.052171 -0.001283 -0.082268 0.996609
1.762249 0.066972 0.052171 0.008010 0.513722 0.857919
2.069301 0.062184 0.052171 0.008010 0.513722 0.857919
2.069301 0.149310 0.000000 0.008010 0.513722 0.857919
2.069301 -0.364858 0.016920 0.883701 -0.468052 0.000000
2.069301 -0.364858 -0.016920 0.883701 -0.468052 0.000000
2.214240 -0.091208 -0.000000 0.883701 -0.468052 0.000000
1.762249 0.247105 0.000000 0.088257 0.277106 0.956777
1.762249 0.066972 0.052171 0.088257 0.277106 0.956777
2.069301 0.149310 0.000000 0.088257 0.277106 0.956777
2.069301 0.062184 -0.052171 0.008010 0.513722 -0.857919
1.762249 0.066972 -0.052171 0.008010 0.513722 -0.857919
2.069301 0.149310 0.000000 0.008010 0.513722 -0.857919
2.069301 -0.364858 -0.016920 0.262163 -0.079391 -0.961753
2.069301 0.062184 -0.052171 0.262163 -0.079391 -0.961753
2.214240 -0.091208 -0.000000 0.262163 -0.079391 -0.961753
2.069301 0.062184 -0.052171 0.648760 0.390951 -0.652892
2.069301 0.149310 0.000000 0.648760 0.390951 -0.652892
2.214240 -0.091208 -0.000000 0.648760 0.390951 -0.652892
2.069301 0.062184 0.052171 0.262165 -0.079390 0.961752
2.069301 -0.364858 0.016920 0.262165 -0.079390 0.961752
2.214240 -0.091208 -0.000000 0.262165 -0.079390 0.961752
2.069301 0.149310 0.000000 0.648761 0.390951 0.652891
2.069301 0.062184 0.052171 0.648761 0.390951 0.652891
2.214240 -0.091208 -0.000000 0.648761 0.390951 0.652891
-0.191560 -0.442326 -0.092764 0.000000 -1.000000 0.000000
-0.191560 -0.259779 0.040049 -0.000000 0.277438 0.960743
-0.191560 -0.259779 -0.040049 0.000000 0.277438 -0.960743
-0.191560 0.000000 -0.133526 -0.000000 -0.606782 -0.794868
-0.191560 0.116431 0.000000 -0.000000 0.753707 0.657211
-0.191560 0.000000 -0.133526 0.000000 0.753707 -0.657211
-0.191560 0.000000 0.133526 0.000000 -0.606782 0.794868
-0.191560 -0.123981 0.038882 -0.000000 0.008594 0.999963
-0.191560 -0.123981 -0.038882 0.000000 0.008594 -0.999963
0.944389 -0.123981 -0.038882 -0.000000 -1.000000 -0.000000
0.230036 -0.123981 -0.038882 1.000000 0.000000 0.000000
0.230036 -0.123981 0.038882 1.000000 0.000000 0.000000
0.230036 -0.442326 0.092764 1.000000 -0.000000 0.000000
0.230036 -0.442326 -0.092764 1.000000 0.000000 -0.000000
0.944389 -0.123981 -0.038882 0.000000 -0.606783 -0.794868
0.944389 0.000000 0.133526 0.000000 0.753707 0.657211
0.944389 0.116431 0.000000 0.000000 0.753707 -0.657211
0.944389 -0.123981 0.038882 0.000000 -0.606783 0.794868
-0.191560 0.000000 0.133526 -1.000000 0.000000 0.000000
-0.191560 0.116431 0.000000 -1.000000 0.000000 0.000000
-0.191560 -0.123981 0.038882 -1.000000 0.000000 0.000000
-0.191560 0.000000 -0.133526 -1.000000 0.000000 0.000000
-0.191560 -0.123981 -0.038882 -1.000000 0.000000 0.000000
-0.191560 -0.442326 -0.092764 -1.000000 0.000000 0.000000
-0.191560 -0.442326 0.092764 -1.000000 -0.000000 -0.000000
0.944389 0.116431 0.000000 0.000000 0.537605 -0.843197
1.524982 0.116431 0.000000 0.000000 0.537605 -0.843197
1.524982 0.000000 -0.074234 0.000000 0.537605 -0.843197
1.524982 -0.279596 0.038882 -0.258890 -0.965907 -0.000000
0.944389 -0.123981 0.038882 -0.033603 -0.125371 0.991541
1.524982 -0.279596 0.038882 -0.033603 -0.125371 0.991541
1.524982 0.000000 0.074234 -0.033603 -0.125371 0.991541
0.944389 0.116431 0.000000 0.066966 0.752015 0.655735
0.944389 0.000000 0.133526 0.066966 0.752015 0.655735
1.524982 0.000000 0.074234 0.066966 0.752015 0.655735
1.524982 0.000000 -0.074234 -0.033603 -0.125371 -0.991541
1.524982 -0.279596 -0.038882 -0.033603 -0.125371 -0.991541
0.944389 -0.123981 -0.038882 -0.033603 -0.125371 -0.991541
1.762249 0.066972 -0.052171 -0.001283 -0.082268 -0.996609
2.069301 0.062184 -0.052171 -0.001283 -0.082268 -0.996609
2.069301 -0.364858 -0.016920 -0.001283 -0.082268 -0.996609
1.762249 0.066972 0.052171 -0.007717 -0.086809 0.996195
1.762249 -0.531724 0.000000 -0.007717 -0.086809 0.996195
2.069301 -0.364858 0.016920 -0.007717 -0.086809 0.996195
3 0 1 2
3 3 4 5
3 6 7 8
3 9 2 10
3 11 12 13
3 14 15 16
3 17 18 19
3 20 21 22
3 23 24 25
3 26 27 28
3 29 30 31
3 32 33 34
3 35 36 37
3 16 38 14
3 19 39 17
3 40 41 42
3 43 44 45
3 46 47 48
3 49 50 51
3 52 53 54
3 55 56 57
3 58 59 60
3 61 62 63
3 64 65 66
3 67 68 69
3 70 71 72
3 73 74 75
3 76 77 78
3 79 80 81
3 82 83 84
3 85 86 87
3 88 89 90
3 91 92 93
3 94 95 96
3 97 98 99
3 100 101 102
3 103 104 105
3 106 107 108
3 109 110 111
3 112 113 114
3 115 116 117
3 118 119 120
3 121 122 123
3 0 124 1
3 3 125 4
3 6 126 7
3 9 0 2
3 11 127 12
3 14 128 15
3 17 129 18
3 20 130 21
3 23 131 24
3 26 132 27
3 29 133 30
3 32 134 135
3 33 136 34
3 32 135 33
3 34 137 32
3 35 138 36
3 16 139 38
3 19 140 39
3 40 141 41
3 142 143 144
3 143 145 146
3 143 146 144
3 43 147 44
3 144 146 43
3 44 148 45
3 45 144 43
3 149 150 151
3 49 152 50
3 153 154 155
3 156 157 158
3 159 160 161
3 162 163 164
3 165 166 167
