ply
format ascii 1.0
comment Created by Blender 2.92.0 - www.blender.org
element vertex 181
property float x
property float y
property float z
property float nx
property float ny
property float nz
element face 156
property list uchar uint vertex_indices
end_header
0.250000 0.307674 -0.250000 1.000000 -0.000000 0.000000
0.250000 0.557674 0.000000 1.000000 -0.000000 0.000000
0.250000 0.307674 0.000000 1.000000 -0.000000 0.000000
0.250000 0.307674 0.500000 0.000000 -0.000000 1.000000
-0.250000 0.057674 0.500000 0.000000 -0.000000 1.000000
0.250000 0.057674 0.500000 0.000000 -0.000000 1.000000
-0.250000 0.307674 -0.250000 -1.000000 0.000000 0.000000
-0.250000 0.057674 -0.500000 -1.000000 0.000000 0.000000
-0.250000 0.057674 -0.250000 -1.000000 0.000000 0.000000
0.250000 -0.692326 0.250000 0.000000 -1.000000 0.000000
-0.250000 -0.692326 0.500000 0.000000 -1.000000 0.000000
-0.250000 -0.692326 0.250000 0.000000 -1.000000 0.000000
0.250000 0.307674 0.250000 1.000000 -0.000000 0.000000
0.250000 0.057674 0.500000 1.000000 -0.000000 0.000000
0.250000 0.000000 0.133526 1.000000 -0.000000 0.000000
-0.250000 0.307674 -0.500000 0.000000 0.000000 -1.000000
0.250000 0.057674 -0.500000 0.000000 0.000000 -1.000000
-0.250000 0.057674 -0.500000 0.000000 0.000000 -1.000000
0.250000 0.116431 0.000000 1.000000 -0.000000 0.000000
0.250000 0.000000 -0.133526 1.000000 -0.000000 0.000000
0.250000 -0.692326 -0.250000 0.000000 -1.000000 0.000000
-0.250000 -0.692326 0.000000 0.000000 -1.000000 0.000000
-0.250000 -0.692326 -0.250000 0.000000 -1.000000 0.000000
-0.250000 0.307674 0.250000 -1.000000 0.000000 0.000000
-0.250000 0.057674 0.000000 -1.000000 0.000000 0.000000
-0.250000 0.057674 0.250000 -1.000000 0.000000 0.000000
-0.250000 0.557674 0.500000 -0.000000 0.000000 1.000000
-0.250000 0.307674 0.500000 -0.000000 0.000000 1.000000
-0.250000 -0.192326 0.250000 -1.000000 0.000000 0.000000
-0.250000 -0.442326 0.000000 -1.000000 0.000000 0.000000
-0.250000 -0.442326 0.250000 -1.000000 0.000000 0.000000
0.250000 -0.259779 -0.040049 -0.310828 -0.263696 0.913154
-0.211931 -0.442326 -0.250000 -0.310828 -0.263696 0.913154
0.250000 -0.442326 -0.092764 -0.310828 -0.263696 0.913154
-0.250000 -0.192326 -0.500000 0.000000 0.000000 -1.000000
0.250000 -0.442326 -0.500000 0.000000 0.000000 -1.000000
-0.250000 -0.442326 -0.500000 0.000000 0.000000 -1.000000
0.250000 -0.442326 0.092764 1.000000 -0.000000 0.000000
0.250000 -0.192326 0.500000 1.000000 -0.000000 0.000000
0.250000 -0.442326 0.500000 1.000000 -0.000000 0.000000
-0.250000 -0.192326 -0.250000 -1.000000 0.000000 0.000000
-0.250000 -0.442326 -0.500000 -1.000000 0.000000 0.000000
-0.250000 -0.442326 -0.250000 -1.000000 0.000000 0.000000
0.250000 -0.192326 0.500000 0.000000 -0.000000 1.000000
-0.250000 -0.442326 0.500000 0.000000 -0.000000 1.000000
0.250000 -0.442326 0.500000 0.000000 -0.000000 1.000000
-0.250000 -0.067326 0.000000 -1.000000 0.000000 0.000000
-0.250000 -0.067326 0.250000 -1.000000 0.000000 0.000000
0.250000 -0.442326 0.092764 -0.000000 1.000000 0.000000
-0.211931 -0.442326 0.000000 -0.000000 1.000000 0.000000
-0.211931 -0.442326 0.250000 -0.000000 1.000000 0.000000
0.250000 -0.067326 -0.500000 0.000000 0.000000 -1.000000
-0.250000 -0.067326 -0.500000 0.000000 0.000000 -1.000000
0.250000 -0.067326 0.500000 1.000000 -0.000000 0.000000
0.250000 -0.123981 0.038882 1.000000 -0.000000 0.000000
-0.250000 -0.067326 -0.500000 -1.000000 0.000000 0.000000
-0.250000 -0.067326 -0.250000 -1.000000 0.000000 0.000000
-0.250000 -0.067326 0.500000 0.000000 -0.000000 1.000000
0.250000 -0.067326 0.500000 0.000000 -0.000000 1.000000
-0.250000 -0.692326 0.500000 0.000000 -0.000000 1.000000
0.250000 -0.692326 0.500000 0.000000 -0.000000 1.000000
-0.250000 -0.692326 -0.500000 -1.000000 0.000000 0.000000
-0.250000 -0.692326 -0.250000 -1.000000 0.000000 0.000000
0.250000 -0.692326 0.250000 1.000000 -0.000000 0.000000
0.250000 -0.692326 0.500000 1.000000 -0.000000 0.000000
0.250000 -0.692326 -0.500000 0.000000 0.000000 -1.000000
-0.250000 -0.692326 -0.500000 0.000000 0.000000 -1.000000
0.250000 -0.442326 -0.092764 1.000000 -0.000000 0.000000
0.250000 -0.692326 0.000000 1.000000 -0.000000 0.000000
0.250000 -0.692326 -0.250000 1.000000 -0.000000 0.000000
-0.250000 -0.692326 0.000000 -1.000000 0.000000 0.000000
-0.250000 -0.692326 0.250000 -1.000000 0.000000 0.000000
0.250000 -0.442326 -0.500000 1.000000 -0.000000 0.000000
0.250000 -0.692326 -0.500000 1.000000 -0.000000 0.000000
0.250000 -0.067326 -0.500000 1.000000 0.000000 0.000000
0.250000 -0.123981 -0.038882 1.000000 0.000000 0.000000
-0.250000 -0.192326 0.000000 -1.000000 0.000000 0.000000
0.250000 -0.192326 -0.500000 1.000000 -0.000000 0.000000
0.250000 0.557674 0.250000 1.000000 -0.000000 0.000000
0.250000 -0.692326 -0.500000 0.000000 -1.000000 0.000000
-0.250000 -0.692326 -0.500000 0.000000 -1.000000 0.000000
0.250000 0.057674 -0.500000 1.000000 0.000000 0.000000
-0.250000 0.307674 0.000000 -1.000000 0.000000 0.000000
-0.250000 -0.442326 0.500000 -1.000000 0.000000 0.000000
-0.250000 -0.692326 0.500000 -1.000000 0.000000 0.000000
0.250000 -0.123981 0.038882 -0.415679 -0.000000 -0.909512
-0.211931 -0.192326 0.250000 -0.415679 -0.000000 -0.909512
-0.211931 -0.067326 0.250000 -0.415679 -0.000000 -0.909512
-0.250000 0.057674 0.500000 -1.000000 0.000000 0.000000
-0.250000 -0.067326 0.500000 -1.000000 0.000000 0.000000
0.250000 -0.259779 0.040049 -0.413775 -0.000000 -0.910379
-0.211931 -0.442326 0.250000 -0.413775 -0.000000 -0.910379
-0.211931 -0.192326 0.250000 -0.413775 -0.000000 -0.910379
-0.250000 -0.192326 0.500000 -1.000000 0.000000 0.000000
-0.250000 0.307674 0.500000 -1.000000 0.000000 0.000000
0.250000 -0.692326 0.000000 0.000000 -1.000000 0.000000
-0.250000 0.557674 -0.500000 -1.000000 0.000000 0.000000
-0.250000 0.307674 -0.500000 -1.000000 0.000000 0.000000
-0.211931 -0.192326 -0.250000 1.000000 -0.000000 0.000000
-0.211931 -0.442326 0.000000 1.000000 -0.000000 0.000000
-0.211931 -0.442326 -0.250000 1.000000 -0.000000 0.000000
-0.211931 0.057674 -0.250000 1.000000 -0.000000 0.000000
-0.211931 -0.067326 0.000000 1.000000 -0.000000 0.000000
-0.211931 -0.067326 -0.250000 1.000000 -0.000000 0.000000
-0.211931 0.057674 0.000000 1.000000 -0.000000 0.000000
-0.211931 -0.067326 0.250000 1.000000 -0.000000 0.000000
-0.211931 -0.192326 0.000000 1.000000 -0.000000 0.000000
-0.211931 -0.442326 0.250000 1.000000 -0.000000 0.000000
0.250000 0.000000 -0.133526 -0.277515 0.582949 0.763646
-0.211931 -0.067326 -0.250000 -0.277515 0.582949 0.763646
0.250000 -0.123981 -0.038882 -0.277515 0.582949 0.763646
0.250000 -0.442326 -0.092764 0.000000 1.000000 0.000000
0.250000 -0.442326 0.000000 0.000000 1.000000 0.000000
0.250000 0.000000 0.133526 0.095433 -0.750267 -0.654211
-0.211931 0.057674 0.000000 0.095433 -0.750267 -0.654211
0.250000 0.116431 0.000000 0.095433 -0.750267 -0.654211
0.250000 0.000000 -0.133526 -0.123892 -0.992296 0.000000
-0.211931 0.057674 0.000000 -0.123892 -0.992296 0.000000
-0.211931 0.057674 -0.250000 -0.123892 -0.992296 0.000000
0.250000 -0.123981 -0.038882 -0.414708 -0.007820 0.909921
-0.211931 -0.192326 -0.250000 -0.414708 -0.007820 0.909921
0.250000 -0.259779 -0.040049 -0.414708 -0.007820 0.909921
-0.211931 -0.192326 0.250000 1.000000 -0.000000 0.000000
0.250000 0.000000 0.133526 -0.244494 -0.000000 -0.969651
-0.211931 -0.067326 0.250000 -0.244494 -0.000000 -0.969651
-0.211931 0.057674 0.250000 -0.244494 -0.000000 -0.969651
0.250000 -0.259779 -0.040049 1.000000 -0.000000 0.000000
-0.250000 -0.192326 0.500000 0.000000 -0.000000 1.000000
-0.250000 -0.192326 -0.500000 -1.000000 0.000000 0.000000
0.250000 -0.259779 0.040049 1.000000 -0.000000 0.000000
0.250000 -0.192326 -0.500000 0.000000 0.000000 -1.000000
-0.250000 0.557674 0.250000 0.000000 1.000000 -0.000000
0.250000 0.557674 0.500000 0.000000 1.000000 -0.000000
0.250000 0.557674 0.250000 0.000000 1.000000 -0.000000
-0.250000 0.557674 -0.250000 0.000000 1.000000 -0.000000
0.250000 0.557674 0.000000 0.000000 1.000000 -0.000000
0.250000 0.557674 -0.250000 0.000000 1.000000 -0.000000
-0.250000 0.557674 -0.500000 0.000000 1.000000 -0.000000
0.250000 0.557674 -0.500000 0.000000 1.000000 -0.000000
-0.250000 0.557674 0.000000 0.000000 1.000000 -0.000000
0.250000 0.557674 -0.500000 -0.000000 0.000000 -1.000000
0.250000 0.307674 -0.500000 -0.000000 0.000000 -1.000000
-0.250000 0.557674 0.250000 -1.000000 0.000000 0.000000
0.250000 0.557674 0.500000 1.000000 -0.000000 0.000000
0.250000 0.307674 0.500000 1.000000 -0.000000 0.000000
-0.250000 0.557674 0.000000 -1.000000 0.000000 0.000000
0.250000 0.307674 -0.500000 1.000000 -0.000000 0.000000
0.250000 0.557674 -0.250000 1.000000 -0.000000 0.000000
-0.250000 0.557674 -0.250000 -1.000000 0.000000 0.000000
0.250000 -0.692326 0.500000 0.000000 -1.000000 0.000000
0.250000 0.557674 0.500000 -0.000000 0.000000 1.000000
0.250000 -0.259779 -0.040049 -0.413775 0.000000 0.910379
-0.211931 -0.192326 -0.250000 -0.413775 0.000000 0.910379
-0.211931 -0.442326 -0.250000 -0.413775 0.000000 0.910379
0.250000 -0.442326 0.000000 1.000000 -0.000000 0.000000
0.250000 -0.123981 0.038882 -0.414708 -0.007820 -0.909921
0.250000 -0.259779 0.040049 -0.414708 -0.007820 -0.909921
-0.211931 -0.192326 0.250000 -0.414708 -0.007820 -0.909921
0.250000 -0.259779 0.040049 -0.310828 -0.263696 -0.913154
0.250000 -0.442326 0.092764 -0.310828 -0.263696 -0.913154
-0.211931 -0.442326 0.250000 -0.310828 -0.263696 -0.913154
-0.211931 0.057674 0.250000 1.000000 -0.000000 0.000000
0.250000 0.000000 -0.133526 -0.244494 0.000000 0.969651
-0.211931 0.057674 -0.250000 -0.244494 0.000000 0.969651
-0.211931 -0.067326 -0.250000 -0.244494 0.000000 0.969651
-0.211931 -0.442326 -0.250000 -0.000000 1.000000 0.000000
0.250000 0.000000 0.133526 -0.123892 -0.992296 0.000000
-0.211931 0.057674 0.250000 -0.123892 -0.992296 0.000000
0.250000 0.000000 -0.133526 0.095433 -0.750267 0.654211
0.250000 0.116431 0.000000 0.095433 -0.750267 0.654211
-0.211931 0.057674 0.000000 0.095433 -0.750267 0.654211
0.250000 -0.123981 -0.038882 -0.415679 0.000000 0.909512
-0.211931 -0.067326 -0.250000 -0.415679 0.000000 0.909512
-0.211931 -0.192326 -0.250000 -0.415679 0.000000 0.909512
0.250000 0.000000 0.133526 -0.277515 0.582949 -0.763647
0.250000 -0.123981 0.038882 -0.277515 0.582949 -0.763647
-0.211931 -0.067326 0.250000 -0.277515 0.582949 -0.763647
-0.250000 0.557674 0.500000 0.000000 1.000000 0.000000
-0.250000 0.557674 -0.500000 -0.000000 -0.000000 -1.000000
-0.250000 0.557674 0.500000 -1.000000 0.000000 0.000000
0.250000 0.557674 -0.500000 1.000000 0.000000 0.000000
3 0 1 2
3 3 4 5
3 6 7 8
3 9 10 11
3 12 13 14
3 15 16 17
3 0 18 19
3 20 21 22
3 23 24 25
3 3 26 27
3 28 29 30
3 31 32 33
3 34 35 36
3 37 38 39
3 40 41 42
3 43 44 45
3 25 46 47
3 48 49 50
3 17 51 52
3 14 53 54
3 8 55 56
3 5 57 58
3 45 59 60
3 42 61 62
3 63 39 64
3 36 65 66
3 67 68 69
3 30 70 71
3 72 69 73
3 29 62 70
3 24 56 46
3 74 19 75
3 76 42 29
3 77 67 72
3 2 78 12
3 79 22 80
3 81 0 19
3 82 8 24
3 83 71 84
3 68 37 63
3 85 86 87
3 88 47 89
3 90 91 92
3 93 30 83
3 94 25 88
3 18 12 14
3 95 11 21
3 6 96 97
3 98 99 100
3 101 102 103
3 104 105 102
3 106 107 99
3 108 109 110
3 111 49 112
3 113 114 115
3 116 117 118
3 119 120 121
3 102 122 106
3 103 106 98
3 89 28 93
3 123 124 125
3 77 75 126
3 46 40 76
3 58 127 43
3 56 128 40
3 54 38 129
3 52 130 34
3 47 76 28
3 131 132 133
3 134 135 136
3 137 136 138
3 139 133 135
3 15 140 141
3 94 142 23
3 12 143 144
3 23 145 82
3 146 147 0
3 82 148 6
3 0 147 1
3 3 27 4
3 6 97 7
3 9 149 10
3 12 144 13
3 15 141 16
3 0 2 18
3 20 95 21
3 23 82 24
3 3 150 26
3 28 76 29
3 151 152 153
3 34 130 35
3 37 129 38
3 40 128 41
3 43 127 44
3 25 24 46
3 48 112 49
3 17 16 51
3 14 13 53
3 8 7 55
3 5 4 57
3 45 44 59
3 42 41 61
3 63 37 39
3 36 35 65
3 67 154 68
3 30 29 70
3 72 67 69
3 29 42 62
3 24 8 56
3 74 81 19
3 76 40 42
3 77 126 67
3 2 1 78
3 79 20 22
3 81 146 0
3 82 6 8
3 83 30 71
3 68 154 37
3 155 156 157
3 88 25 47
3 158 159 160
3 93 28 30
3 94 23 25
3 18 2 12
3 95 9 11
3 6 148 96
3 98 106 99
3 101 104 102
3 104 161 105
3 106 122 107
3 162 163 164
3 111 165 49
3 166 167 117
3 168 169 170
3 171 172 173
3 102 105 122
3 103 102 106
3 89 47 28
3 174 175 176
3 77 74 75
3 46 56 40
3 58 57 127
3 56 55 128
3 54 53 38
3 52 51 130
3 47 46 76
3 131 177 132
3 134 139 135
3 137 134 136
3 139 131 133
3 15 178 140
3 94 179 142
3 12 78 143
3 23 142 145
3 146 180 147
3 82 145 148
