ply
format ascii 1.0
comment Created by Blender 2.92.0 - www.blender.org
element vertex 18
property float x
property float y
property float z
property float nx
property float ny
property float nz
element face 5
property list uchar uint vertex_indices
end_header
-0.000000 1.070000 0.420000 -0.309017 0.000000 0.951056
-0.000000 1.400000 0.420000 -0.309017 0.000000 0.951056
-0.246870 1.400000 0.339787 -0.309017 0.000000 0.951056
-0.246870 1.070000 0.339787 -0.309017 0.000000 0.951056
-0.000000 1.400000 0.420000 0.194922 0.775962 -0.599907
0.000000 1.075292 -0.000000 0.194922 0.775962 -0.599907
-0.246870 1.400000 0.339787 0.194922 0.775962 -0.599907
-0.246870 1.070000 0.339787 -0.000000 -1.000000 -0.000000
0.000000 1.070000 0.000000 -0.000000 -1.000000 -0.000000
-0.000000 1.070000 0.420000 -0.000000 -1.000000 -0.000000
-0.000000 1.070000 0.420000 1.000000 -0.000000 0.000000
0.000000 1.070000 0.000000 1.000000 -0.000000 0.000000
0.000000 1.075292 -0.000000 1.000000 -0.000000 0.000000
-0.000000 1.400000 0.420000 1.000000 -0.000000 0.000000
-0.246870 1.070000 0.339787 -0.809017 -0.000000 -0.587785
-0.246870 1.400000 0.339787 -0.809017 -0.000000 -0.587785
0.000000 1.075292 -0.000000 -0.809017 -0.000000 -0.587785
0.000000 1.070000 0.000000 -0.809017 -0.000000 -0.587785
4 0 1 2 3
3 4 5 6
3 7 8 9
4 10 11 12 13
4 14 15 16 17
