ply
format ascii 1.0
comment Created by Blender 2.92.0 - www.blender.org
element vertex 60
property float x
property float y
property float z
property float nx
property float ny
property float nz
element face 12
property list uchar uint vertex_indices
end_header
0.000000 0.000000 -0.160000 0.309017 0.000000 -0.951057
0.000000 1.071173 -0.160000 0.309017 0.000000 -0.951057
0.094046 1.071173 -0.129443 0.309017 0.000000 -0.951057
0.094046 0.000000 -0.129443 0.309017 0.000000 -0.951057
0.094046 0.000000 -0.129443 0.809017 0.000000 -0.587785
0.094046 1.071173 -0.129443 0.809017 0.000000 -0.587785
0.152169 1.071173 -0.049443 0.809017 0.000000 -0.587785
0.152169 0.000000 -0.049443 0.809017 0.000000 -0.587785
0.152169 0.000000 -0.049443 1.000000 0.000000 0.000000
0.152169 1.071173 -0.049443 1.000000 0.000000 0.000000
0.152169 1.071173 0.049443 1.000000 0.000000 0.000000
0.152169 0.000000 0.049443 1.000000 0.000000 0.000000
0.152169 0.000000 0.049443 0.809017 0.000000 0.587785
0.152169 1.071173 0.049443 0.809017 0.000000 0.587785
0.094046 1.071173 0.129443 0.809017 0.000000 0.587785
0.094046 0.000000 0.129443 0.809017 0.000000 0.587785
0.094046 0.000000 0.129443 0.309017 0.000000 0.951057
0.094046 1.071173 0.129443 0.309017 0.000000 0.951057
0.000000 1.071173 0.160000 0.309017 0.000000 0.951057
0.000000 0.000000 0.160000 0.309017 0.000000 0.951057
0.000000 0.000000 0.160000 -0.309017 0.000000 0.951056
0.000000 1.071173 0.160000 -0.309017 0.000000 0.951056
-0.094046 1.071173 0.129443 -0.309017 0.000000 0.951056
-0.094046 0.000000 0.129443 -0.309017 0.000000 0.951056
-0.094046 0.000000 0.129443 -0.809017 0.000000 0.587785
-0.094046 1.071173 0.129443 -0.809017 0.000000 0.587785
-0.152169 1.071173 0.049443 -0.809017 0.000000 0.587785
-0.152169 0.000000 0.049443 -0.809017 0.000000 0.587785
-0.152169 0.000000 0.049443 -1.000000 0.000000 0.000000
-0.152169 1.071173 0.049443 -1.000000 0.000000 0.000000
-0.152169 1.071173 -0.049443 -1.000000 0.000000 0.000000
-0.152169 0.000000 -0.049443 -1.000000 0.000000 0.000000
0.094046 1.071173 -0.129443 0.000000 1.000000 0.000000
0.000000 1.071173 -0.160000 0.000000 1.000000 0.000000
-0.094046 1.071173 -0.129443 0.000000 1.000000 0.000000
-0.152169 1.071173 -0.049443 0.000000 1.000000 0.000000
-0.152169 1.071173 0.049443 0.000000 1.000000 0.000000
-0.094046 1.071173 0.129443 0.000000 1.000000 0.000000
0.000000 1.071173 0.160000 0.000000 1.000000 0.000000
0.094046 1.071173 0.129443 0.000000 1.000000 0.000000
0.152169 1.071173 0.049443 0.000000 1.000000 0.000000
0.152169 1.071173 -0.049443 0.000000 1.000000 0.000000
-0.152169 0.000000 -0.049443 -0.809017 0.000000 -0.587785
-0.152169 1.071173 -0.049443 -0.809017 0.000000 -0.587785
-0.094046 1.071173 -0.129443 -0.809017 0.000000 -0.587785
-0.094046 0.000000 -0.129443 -0.809017 0.000000 -0.587785
-0.094046 0.000000 -0.129443 -0.309017 0.000000 -0.951057
-0.094046 1.071173 -0.129443 -0.309017 0.000000 -0.951057
0.000000 1.071173 -0.160000 -0.309017 0.000000 -0.951057
0.000000 0.000000 -0.160000 -0.309017 0.000000 -0.951057
0.000000 0.000000 -0.160000 0.000000 -1.000000 0.000000
0.094046 0.000000 -0.129443 0.000000 -1.000000 0.000000
0.152169 0.000000 -0.049443 0.000000 -1.000000 0.000000
0.152169 0.000000 0.049443 0.000000 -1.000000 0.000000
0.094046 0.000000 0.129443 0.000000 -1.000000 0.000000
0.000000 0.000000 0.160000 0.000000 -1.000000 0.000000
-0.094046 0.000000 0.129443 0.000000 -1.000000 0.000000
-0.152169 0.000000 0.049443 0.000000 -1.000000 0.000000
-0.152169 0.000000 -0.049443 0.000000 -1.000000 0.000000
-0.094046 0.000000 -0.129443 0.000000 -1.000000 0.000000
4 0 1 2 3
4 4 5 6 7
4 8 9 10 11
4 12 13 14 15
4 16 17 18 19
4 20 21 22 23
4 24 25 26 27
4 28 29 30 31
10 32 33 34 35 36 37 38 39 40 41
4 42 43 44 45
4 46 47 48 49
10 50 51 52 53 54 55 56 57 58 59
