ply
format ascii 1.0
comment Created by Blender 2.92.0 - www.blender.org
element vertex 18
property float x
property float y
property float z
property float nx
property float ny
property float nz
element face 5
property list uchar uint vertex_indices
end_header
-0.399444 1.070000 0.129787 -1.000000 0.000000 -0.000000
-0.399444 1.400000 0.129787 -1.000000 0.000000 -0.000000
-0.399444 1.400000 -0.129787 -1.000000 0.000000 -0.000000
-0.399444 1.070000 -0.129787 -1.000000 0.000000 -0.000000
-0.399444 1.400000 0.129787 0.630779 0.775962 0.000000
0.000000 1.075292 -0.000000 0.630779 0.775962 0.000000
-0.399444 1.400000 -0.129787 0.630779 0.775962 0.000000
-0.399444 1.070000 -0.129787 0.000000 -1.000000 -0.000000
-0.000000 1.070000 0.000000 0.000000 -1.000000 -0.000000
-0.399444 1.070000 0.129787 0.000000 -1.000000 -0.000000
-0.399444 1.070000 0.129787 0.309017 0.000000 0.951057
-0.000000 1.070000 0.000000 0.309017 0.000000 0.951057
0.000000 1.075292 -0.000000 0.309017 0.000000 0.951057
-0.399444 1.400000 0.129787 0.309017 0.000000 0.951057
-0.399444 1.070000 -0.129787 0.309017 -0.000000 -0.951056
-0.399444 1.400000 -0.129787 0.309017 -0.000000 -0.951056
0.000000 1.075292 -0.000000 0.309017 -0.000000 -0.951056
-0.000000 1.070000 0.000000 0.309017 -0.000000 -0.951056
4 0 1 2 3
3 4 5 6
3 7 8 9
4 10 11 12 13
4 14 15 16 17
