ply
format ascii 1.0
comment Created by Blender 2.92.0 - www.blender.org
element vertex 482
property float x
property float y
property float z
property float nx
property float ny
property float nz
element face 960
property list uchar uint vertex_indices
end_header
0.000000 0.831470 -0.555570 0.000000 0.828639 -0.559771
0.074658 0.923880 -0.375330 0.075655 0.921690 -0.380413
0.108386 0.831470 -0.544895 0.109195 0.828639 -0.548997
0.000000 -0.382683 -0.923879 0.000000 -0.380535 -0.924741
0.162212 -0.555570 -0.815493 0.162572 -0.552751 -0.817316
0.000000 -0.555570 -0.831469 0.000000 -0.552751 -0.833338
0.137950 0.707107 -0.693520 0.138524 0.704031 -0.696493
0.000000 0.707107 -0.707107 0.000000 0.704031 -0.710135
0.137950 -0.707107 -0.693520 0.138524 -0.704031 -0.696493
0.000000 -0.707107 -0.707106 0.000000 -0.704031 -0.710135
0.162212 0.555570 -0.815493 0.162572 0.552751 -0.817316
0.000000 0.555570 -0.831470 0.000000 0.552751 -0.833338
0.108386 -0.831470 -0.544895 0.109195 -0.828639 -0.548997
0.000000 -0.831470 -0.555570 0.000000 -0.828639 -0.559771
0.180240 0.382683 -0.906127 0.180395 0.380535 -0.906980
0.000000 0.382683 -0.923880 0.000000 0.380535 -0.924741
0.074658 -0.923880 -0.375330 0.075655 -0.921690 -0.380413
0.000000 -0.923880 -0.382683 0.000000 -0.921690 -0.387860
0.191342 0.195090 -0.961940 0.191382 0.193915 -0.962157
0.000000 0.195090 -0.980785 0.000000 0.193915 -0.980987
0.038060 -0.980785 -0.191341 0.039186 -0.979583 -0.197089
0.000000 -0.980785 -0.195090 0.000000 -0.979583 -0.200964
0.195090 0.000000 -0.980785 0.195074 0.000000 -0.980773
0.000000 0.000000 -1.000000 0.000000 0.000000 -1.000000
0.000000 0.980785 -0.195090 0.000000 0.979583 -0.200964
-0.000000 1.000000 0.000001 0.000000 1.000000 0.000000
0.038060 0.980785 -0.191342 0.039186 0.979583 -0.197089
0.000000 -1.000000 0.000000 0.000000 -1.000000 0.000000
0.191342 -0.195090 -0.961940 0.191382 -0.193915 -0.962157
0.000000 -0.195090 -0.980785 0.000000 -0.193915 -0.980987
0.000000 0.923880 -0.382683 0.000000 0.921690 -0.387860
0.180240 -0.382683 -0.906127 0.180395 -0.380535 -0.906980
0.382684 0.000000 -0.923879 0.382672 0.000000 -0.923856
0.375330 -0.195090 -0.906127 0.375408 -0.193915 -0.906339
0.146447 0.923880 -0.353553 0.148412 0.921690 -0.358348
0.353554 -0.382683 -0.853553 0.353893 -0.380535 -0.854366
0.212608 0.831470 -0.513280 0.214209 0.828639 -0.517136
0.318190 -0.555570 -0.768178 0.318888 -0.552751 -0.769890
0.270598 0.707107 -0.653281 0.271737 0.704031 -0.656056
0.270598 -0.707107 -0.653281 0.271737 -0.704031 -0.656056
0.318190 0.555570 -0.768178 0.318888 0.552751 -0.769890
0.212608 -0.831470 -0.513280 0.214209 -0.828639 -0.517136
0.353553 0.382683 -0.853553 0.353862 0.380535 -0.854366
0.146447 -0.923880 -0.353553 0.148412 -0.921690 -0.358348
0.375330 0.195090 -0.906127 0.375408 0.193915 -0.906339
0.074658 -0.980785 -0.180240 0.076907 -0.979583 -0.185644
0.074658 0.980785 -0.180240 0.076907 0.979583 -0.185644
0.308658 -0.831470 -0.461940 0.310984 -0.828639 -0.465407
0.513280 0.382683 -0.768178 0.513749 0.380535 -0.768914
0.212608 -0.923880 -0.318189 0.215491 -0.921690 -0.322489
0.544895 0.195090 -0.815493 0.545000 0.193915 -0.815668
0.108386 -0.980785 -0.162211 0.111637 -0.979583 -0.167089
0.555570 0.000000 -0.831469 0.555559 0.000000 -0.831446
0.108387 0.980785 -0.162212 0.111637 0.979583 -0.167089
0.544895 -0.195090 -0.815493 0.545000 -0.193915 -0.815668
0.212608 0.923880 -0.318190 0.215491 0.921690 -0.322489
0.513280 -0.382683 -0.768178 0.513749 -0.380535 -0.768914
0.308658 0.831470 -0.461940 0.310984 0.828639 -0.465407
0.461940 -0.555570 -0.691342 0.462966 -0.552751 -0.692892
0.392848 0.707107 -0.587938 0.394513 0.704031 -0.590442
0.392848 -0.707107 -0.587938 0.394513 -0.704031 -0.590442
0.461940 0.555570 -0.691342 0.462966 0.552751 -0.692892
0.653282 -0.382683 -0.653281 0.653890 -0.380535 -0.653890
0.392848 0.831470 -0.392847 0.395795 0.828639 -0.395795
0.587938 -0.555570 -0.587938 0.589251 -0.552751 -0.589251
0.500000 0.707107 -0.500000 0.502121 0.704031 -0.502121
0.500000 -0.707107 -0.500000 0.502121 -0.704031 -0.502121
0.587938 0.555570 -0.587938 0.589251 0.552751 -0.589251
0.392848 -0.831470 -0.392847 0.395795 -0.828639 -0.395795
0.653282 0.382683 -0.653281 0.653890 0.380535 -0.653890
0.270598 -0.923880 -0.270598 0.274270 -0.921690 -0.274270
0.693520 0.195090 -0.693520 0.693655 0.193915 -0.693655
0.137950 -0.980785 -0.137949 0.142094 -0.979583 -0.142094
0.707107 0.000000 -0.707107 0.707083 0.000000 -0.707083
0.137950 0.980785 -0.137950 0.142094 0.979583 -0.142094
0.693520 -0.195090 -0.693520 0.693655 -0.193915 -0.693655
0.270598 0.923880 -0.270598 0.274270 0.921690 -0.274270
0.461940 -0.831470 -0.308658 0.465407 -0.828639 -0.310984
0.318190 -0.923880 -0.212607 0.322489 -0.921690 -0.215491
0.815493 0.195090 -0.544895 0.815668 0.193915 -0.545000
0.162212 -0.980785 -0.108386 0.167089 -0.979583 -0.111637
0.831470 0.000000 -0.555570 0.831446 0.000000 -0.555559
0.162212 0.980785 -0.108386 0.167089 0.979583 -0.111637
0.815493 -0.195090 -0.544895 0.815668 -0.193915 -0.545000
0.318190 0.923880 -0.212607 0.322489 0.921690 -0.215491
0.768178 -0.382683 -0.513280 0.768914 -0.380535 -0.513749
0.461940 0.831470 -0.308658 0.465407 0.828639 -0.310984
0.691342 -0.555570 -0.461940 0.692892 -0.552751 -0.462966
0.587938 0.707107 -0.392847 0.590442 0.704031 -0.394513
0.587938 -0.707107 -0.392847 0.590442 -0.704031 -0.394513
0.691342 0.555570 -0.461940 0.692892 0.552751 -0.462966
0.768178 0.382683 -0.513280 0.768914 0.380535 -0.513749
0.513280 0.831470 -0.212607 0.517136 0.828639 -0.214209
0.853554 -0.382683 -0.353553 0.854366 -0.380535 -0.353862
0.768178 -0.555570 -0.318189 0.769890 -0.552751 -0.318888
0.653282 0.707107 -0.270598 0.656056 0.704031 -0.271737
0.653282 -0.707107 -0.270598 0.656056 -0.704031 -0.271737
0.768178 0.555570 -0.318189 0.769890 0.552751 -0.318888
0.513280 -0.831470 -0.212607 0.517136 -0.828639 -0.214209
0.853554 0.382683 -0.353553 0.854366 0.380535 -0.353862
0.353554 -0.923880 -0.146446 0.358348 -0.921690 -0.148412
0.906128 0.195090 -0.375330 0.906339 0.193915 -0.375408
0.180240 -0.980785 -0.074658 0.185644 -0.979583 -0.076907
0.923880 0.000000 -0.382683 0.923856 0.000000 -0.382672
0.180240 0.980785 -0.074658 0.185644 0.979583 -0.076907
0.906128 -0.195090 -0.375330 0.906339 -0.193915 -0.375408
0.353554 0.923880 -0.146446 0.358348 0.921690 -0.148412
0.906128 0.382683 -0.180240 0.906980 0.380535 -0.180395
0.961940 0.195090 -0.191341 0.962157 0.193915 -0.191382
0.375330 -0.923880 -0.074658 0.380413 -0.921690 -0.075655
0.191342 -0.980785 -0.038060 0.197089 -0.979583 -0.039186
0.980785 0.000000 -0.195090 0.980773 0.000000 -0.195074
0.191342 0.980785 -0.038060 0.197089 0.979583 -0.039186
0.961940 -0.195090 -0.191341 0.962157 -0.193915 -0.191382
0.375331 0.923880 -0.074658 0.380413 0.921690 -0.075655
0.906128 -0.382683 -0.180240 0.906980 -0.380535 -0.180395
0.544895 0.831470 -0.108386 0.548997 0.828639 -0.109195
0.815493 -0.555570 -0.162211 0.817316 -0.552751 -0.162572
0.693520 0.707107 -0.137949 0.696493 0.704031 -0.138524
0.693520 -0.707107 -0.137949 0.696493 -0.704031 -0.138524
0.815493 0.555570 -0.162211 0.817316 0.552751 -0.162572
0.544895 -0.831470 -0.108386 0.548997 -0.828639 -0.109195
0.923880 -0.382683 0.000000 0.924741 -0.380535 0.000000
0.831470 -0.555570 0.000000 0.833338 -0.552751 0.000000
0.707107 0.707107 0.000000 0.710135 0.704031 0.000000
0.707107 -0.707107 0.000000 0.710135 -0.704031 0.000000
0.831470 0.555570 0.000000 0.833338 0.552751 0.000000
0.555570 -0.831470 0.000000 0.559771 -0.828639 0.000000
0.923880 0.382683 0.000000 0.924741 0.380535 0.000000
0.382684 -0.923880 0.000000 0.387860 -0.921690 0.000000
0.980785 0.195090 0.000000 0.980987 0.193915 0.000000
0.195090 -0.980785 0.000000 0.200964 -0.979583 0.000000
1.000000 0.000000 0.000000 1.000000 0.000000 0.000000
0.195091 0.980785 0.000000 0.200964 0.979583 0.000000
0.980785 -0.195090 0.000000 0.980987 -0.193915 0.000000
0.382684 0.923880 0.000000 0.387860 0.921690 0.000000
0.555570 0.831470 0.000000 0.559771 0.828639 0.000000
0.375330 -0.923880 0.074658 0.380413 -0.921690 0.075655
0.191342 -0.980785 0.038061 0.197089 -0.979583 0.039186
0.980785 0.000000 0.195091 0.980773 0.000000 0.195074
0.191342 0.980785 0.038061 0.197089 0.979583 0.039186
0.961940 -0.195090 0.191342 0.962157 -0.193915 0.191382
0.375331 0.923880 0.074658 0.380413 0.921690 0.075655
0.906128 -0.382683 0.180240 0.906980 -0.380535 0.180395
0.544895 0.831470 0.108387 0.548997 0.828639 0.109195
0.815493 -0.555570 0.162212 0.817316 -0.552751 0.162572
0.693520 0.707107 0.137950 0.696493 0.704031 0.138524
0.693520 -0.707107 0.137950 0.696493 -0.704031 0.138524
0.815493 0.555570 0.162212 0.817316 0.552751 0.162572
0.544895 -0.831470 0.108387 0.548997 -0.828639 0.109195
0.906128 0.382683 0.180240 0.906980 0.380535 0.180395
0.961940 0.195090 0.191342 0.962157 0.193915 0.191382
0.653282 0.707107 0.270598 0.656056 0.704031 0.271737
0.653282 -0.707107 0.270598 0.656056 -0.704031 0.271737
0.768178 0.555570 0.318190 0.769890 0.552751 0.318888
0.513280 -0.831470 0.212608 0.517136 -0.828639 0.214209
0.853554 0.382683 0.353554 0.854366 0.380535 0.353862
0.353553 -0.923880 0.146447 0.358348 -0.921690 0.148412
0.906127 0.195090 0.375331 0.906339 0.193915 0.375408
0.180240 -0.980785 0.074658 0.185644 -0.979583 0.076907
0.923880 0.000000 0.382684 0.923856 0.000000 0.382672
0.180240 0.980785 0.074658 0.185644 0.979583 0.076907
0.906127 -0.195090 0.375331 0.906339 -0.193915 0.375408
0.353554 0.923880 0.146447 0.358348 0.921690 0.148412
0.853554 -0.382683 0.353554 0.854366 -0.380535 0.353862
0.513280 0.831470 0.212608 0.517136 0.828639 0.214209
0.768178 -0.555570 0.318190 0.769890 -0.552751 0.318888
0.831470 0.000000 0.555571 0.831446 0.000000 0.555559
0.162212 0.980785 0.108387 0.167089 0.979583 0.111637
0.162212 -0.980785 0.108387 0.167089 -0.979583 0.111637
0.815493 -0.195090 0.544895 0.815668 -0.193915 0.545000
0.318190 0.923880 0.212608 0.322489 0.921690 0.215491
0.768178 -0.382683 0.513280 0.768914 -0.380535 0.513749
0.461940 0.831470 0.308659 0.465407 0.828639 0.310984
0.691342 -0.555570 0.461940 0.692892 -0.552751 0.462966
0.587938 0.707107 0.392848 0.590442 0.704031 0.394513
0.587938 -0.707107 0.392848 0.590442 -0.704031 0.394513
0.691342 0.555570 0.461940 0.692892 0.552751 0.462966
0.461940 -0.831470 0.308659 0.465407 -0.828639 0.310984
0.768178 0.382683 0.513280 0.768914 0.380535 0.513749
0.318190 -0.923880 0.212608 0.322489 -0.921690 0.215491
0.815493 0.195090 0.544895 0.815668 0.193915 0.545000
0.500000 -0.707107 0.500000 0.502121 -0.704031 0.502121
0.587938 0.555570 0.587938 0.589251 0.552751 0.589251
0.392848 -0.831470 0.392848 0.395795 -0.828639 0.395795
0.653282 0.382683 0.653282 0.653890 0.380535 0.653890
0.270598 -0.923880 0.270598 0.274270 -0.921690 0.274270
0.693520 0.195090 0.693520 0.693655 0.193915 0.693655
0.137950 -0.980785 0.137950 0.142094 -0.979583 0.142094
0.707107 0.000000 0.707107 0.707083 0.000000 0.707083
0.137950 0.980785 0.137950 0.142094 0.979583 0.142094
0.693520 -0.195090 0.693520 0.693655 -0.193915 0.693655
0.270598 0.923880 0.270599 0.274270 0.921690 0.274270
0.653282 -0.382683 0.653282 0.653890 -0.380535 0.653890
0.392848 0.831470 0.392848 0.395795 0.828639 0.395795
0.587938 -0.555570 0.587938 0.589251 -0.552751 0.589251
0.500000 0.707107 0.500000 0.502121 0.704031 0.502121
0.108386 -0.980785 0.162212 0.111637 -0.979583 0.167089
0.555570 0.000000 0.831470 0.555559 0.000000 0.831446
0.544895 -0.195090 0.815493 0.545000 -0.193915 0.815668
0.212608 0.923880 0.318190 0.215491 0.921690 0.322489
0.513280 -0.382683 0.768178 0.513749 -0.380535 0.768914
0.308658 0.831470 0.461940 0.310984 0.828639 0.465407
0.461940 -0.555570 0.691342 0.462966 -0.552751 0.692892
0.392848 0.707107 0.587938 0.394513 0.704031 0.590442
0.392848 -0.707107 0.587938 0.394513 -0.704031 0.590442
0.461940 0.555570 0.691342 0.462966 0.552751 0.692892
0.308658 -0.831470 0.461940 0.310984 -0.828639 0.465407
0.513280 0.382683 0.768178 0.513749 0.380535 0.768914
0.212608 -0.923880 0.318190 0.215491 -0.921690 0.322489
0.544895 0.195090 0.815493 0.545000 0.193915 0.815668
0.108386 0.980785 0.162212 0.111637 0.979583 0.167089
0.270598 -0.707107 0.653282 0.271737 -0.704031 0.656056
0.212608 -0.831470 0.513280 0.214209 -0.828639 0.517136
0.353553 0.382683 0.853554 0.353862 0.380535 0.854366
0.146447 -0.923880 0.353554 0.148412 -0.921690 0.358348
0.375330 0.195090 0.906128 0.375408 0.193915 0.906339
0.074658 -0.980785 0.180240 0.076907 -0.979583 0.185644
0.382683 0.000000 0.923880 0.382672 0.000000 0.923856
0.074658 0.980785 0.180240 0.076907 0.979583 0.185644
0.375330 -0.195090 0.906128 0.375408 -0.193915 0.906339
0.146447 0.923880 0.353554 0.148412 0.921690 0.358348
0.353553 -0.382683 0.853554 0.353862 -0.380535 0.854366
0.212608 0.831470 0.513280 0.214209 0.828639 0.517136
0.318190 -0.555570 0.768178 0.318888 -0.552751 0.769890
0.270598 0.707107 0.653282 0.271737 0.704031 0.656056
0.318190 0.555570 0.768178 0.318888 0.552751 0.769890
0.074658 0.923880 0.375331 0.075655 0.921690 0.380413
0.180240 -0.382683 0.906128 0.180395 -0.380535 0.906980
0.108386 0.831470 0.544896 0.109195 0.828639 0.548997
0.162212 -0.555570 0.815493 0.162572 -0.552751 0.817316
0.137950 0.707107 0.693520 0.138524 0.704031 0.696493
0.137950 -0.707107 0.693520 0.138524 -0.704031 0.696493
0.162212 0.555570 0.815493 0.162572 0.552751 0.817316
0.108386 -0.831470 0.544895 0.109195 -0.828639 0.548997
0.180240 0.382683 0.906128 0.180395 0.380535 0.906980
0.074658 -0.923880 0.375331 0.075655 -0.921690 0.380413
0.191342 0.195090 0.961940 0.191382 0.193915 0.962157
0.038060 -0.980785 0.191342 0.039186 -0.979583 0.197089
0.195090 0.000000 0.980786 0.195074 0.000000 0.980773
0.038060 0.980785 0.191342 0.039186 0.979583 0.197089
0.191342 -0.195090 0.961940 0.191382 -0.193915 0.962157
0.000000 0.382683 0.923880 0.000000 0.380535 0.924741
0.000000 -0.923880 0.382684 0.000000 -0.921690 0.387860
-0.000000 0.195090 0.980785 0.000000 0.193915 0.980987
0.000000 -0.980785 0.195091 0.000000 -0.979583 0.200964
-0.000000 0.000000 1.000000 0.000000 0.000000 1.000000
-0.000000 0.980785 0.195091 0.000000 0.979583 0.200964
-0.000000 -0.195090 0.980785 0.000000 -0.193915 0.980987
0.000000 0.923880 0.382684 0.000000 0.921690 0.387860
0.000000 -0.382683 0.923880 0.000000 -0.380535 0.924741
0.000000 0.831470 0.555571 0.000000 0.828639 0.559771
-0.000000 -0.555570 0.831470 0.000000 -0.552751 0.833338
-0.000000 0.707107 0.707107 0.000000 0.704031 0.710135
-0.000000 -0.707107 0.707107 0.000000 -0.704031 0.710135
-0.000000 0.555570 0.831470 0.000000 0.552751 0.833338
-0.000000 -0.831470 0.555570 0.000000 -0.828639 0.559771
-0.180240 -0.382683 0.906128 -0.180395 -0.380535 0.906980
-0.108386 0.831470 0.544896 -0.109195 0.828639 0.548997
-0.162212 -0.555570 0.815493 -0.162572 -0.552751 0.817316
-0.137950 0.707107 0.693520 -0.138524 0.704031 0.696493
-0.137950 -0.707107 0.693520 -0.138524 -0.704031 0.696493
-0.162212 0.555570 0.815493 -0.162572 0.552751 0.817316
-0.108386 -0.831470 0.544895 -0.109195 -0.828639 0.548997
-0.180240 0.382683 0.906128 -0.180395 0.380535 0.906980
-0.074658 -0.923880 0.375331 -0.075655 -0.921690 0.380413
-0.191342 0.195090 0.961940 -0.191382 0.193915 0.962157
-0.038060 -0.980785 0.191342 -0.039186 -0.979583 0.197089
-0.195090 0.000000 0.980786 -0.195074 0.000000 0.980773
-0.038060 0.980785 0.191342 -0.039186 0.979583 0.197089
-0.191342 -0.195090 0.961940 -0.191382 -0.193915 0.962157
-0.074658 0.923880 0.375331 -0.075655 0.921690 0.380413
-0.212608 -0.831470 0.513280 -0.214209 -0.828639 0.517136
-0.146447 -0.923880 0.353554 -0.148412 -0.921690 0.358348
-0.353553 0.382683 0.853554 -0.353893 0.380535 0.854366
-0.375330 0.195090 0.906127 -0.375408 0.193915 0.906339
-0.074658 -0.980785 0.180240 -0.076907 -0.979583 0.185644
-0.382684 0.000000 0.923880 -0.382672 0.000000 0.923856
-0.074658 0.980785 0.180240 -0.076907 0.979583 0.185644
-0.375330 -0.195090 0.906127 -0.375408 -0.193915 0.906339
-0.146447 0.923880 0.353554 -0.148412 0.921690 0.358348
-0.353553 -0.382683 0.853554 -0.353862 -0.380535 0.854366
-0.212608 0.831470 0.513280 -0.214209 0.828639 0.517136
-0.318190 -0.555570 0.768178 -0.318888 -0.552751 0.769890
-0.270598 0.707107 0.653282 -0.271737 0.704031 0.656056
-0.270598 -0.707107 0.653282 -0.271737 -0.704031 0.656056
-0.318190 0.555570 0.768178 -0.318888 0.552751 0.769890
-0.308658 0.831470 0.461940 -0.310984 0.828639 0.465407
-0.513280 -0.382683 0.768178 -0.513749 -0.380535 0.768914
-0.461940 -0.555570 0.691342 -0.462966 -0.552751 0.692892
-0.392847 0.707107 0.587938 -0.394513 0.704031 0.590442
-0.392847 -0.707107 0.587938 -0.394513 -0.704031 0.590442
-0.461940 0.555570 0.691342 -0.462966 0.552751 0.692892
-0.308658 -0.831470 0.461940 -0.310984 -0.828639 0.465407
-0.513280 0.382683 0.768178 -0.513749 0.380535 0.768914
-0.212607 -0.923880 0.318190 -0.215491 -0.921690 0.322489
-0.544895 0.195090 0.815493 -0.545000 0.193915 0.815668
-0.108386 -0.980785 0.162212 -0.111637 -0.979583 0.167089
-0.555570 0.000000 0.831470 -0.555559 0.000000 0.831446
-0.108386 0.980785 0.162212 -0.111637 0.979583 0.167089
-0.544895 -0.195090 0.815493 -0.545000 -0.193915 0.815668
-0.212608 0.923880 0.318190 -0.215491 0.921690 0.322489
-0.653281 0.382683 0.653282 -0.653890 0.380535 0.653890
-0.693520 0.195090 0.693520 -0.693655 0.193915 0.693655
-0.137950 -0.980785 0.137950 -0.142094 -0.979583 0.142094
-0.707107 0.000000 0.707107 -0.707083 0.000000 0.707083
-0.137950 0.980785 0.137950 -0.142094 0.979583 0.142094
-0.693520 -0.195090 0.693520 -0.693655 -0.193915 0.693655
-0.270598 0.923880 0.270598 -0.274270 0.921690 0.274270
-0.653281 -0.382683 0.653282 -0.653890 -0.380535 0.653890
-0.392848 0.831470 0.392848 -0.395795 0.828639 0.395795
-0.587938 -0.555570 0.587938 -0.589251 -0.552751 0.589251
-0.500000 0.707107 0.500000 -0.502121 0.704031 0.502121
-0.500000 -0.707107 0.500000 -0.502121 -0.704031 0.502121
-0.587938 0.555570 0.587938 -0.589251 0.552751 0.589251
-0.392847 -0.831470 0.392848 -0.395795 -0.828639 0.395795
-0.270598 -0.923880 0.270598 -0.274270 -0.921690 0.274270
-0.768178 -0.382683 0.513280 -0.768914 -0.380535 0.513749
-0.691342 -0.555570 0.461940 -0.692892 -0.552751 0.462966
-0.461940 0.831470 0.308659 -0.465407 0.828639 0.310984
-0.587938 0.707107 0.392848 -0.590442 0.704031 0.394513
-0.587938 -0.707107 0.392848 -0.590442 -0.704031 0.394513
-0.691342 0.555570 0.461940 -0.692892 0.552751 0.462966
-0.461940 -0.831470 0.308658 -0.465407 -0.828639 0.310984
-0.768178 0.382683 0.513280 -0.768914 0.380535 0.513749
-0.318190 -0.923880 0.212608 -0.322489 -0.921690 0.215491
-0.815493 0.195090 0.544895 -0.815668 0.193915 0.545000
-0.162212 -0.980785 0.108387 -0.167089 -0.979583 0.111637
-0.831470 0.000000 0.555570 -0.831446 0.000000 0.555559
-0.162212 0.980785 0.108387 -0.167089 0.979583 0.111637
-0.815493 -0.195090 0.544895 -0.815668 -0.193915 0.545000
-0.318190 0.923880 0.212608 -0.322489 0.921690 0.215491
-0.353553 -0.923880 0.146447 -0.358348 -0.921690 0.148412
-0.180240 -0.980785 0.074658 -0.185644 -0.979583 0.076907
-0.923880 0.000000 0.382684 -0.923856 0.000000 0.382672
-0.180240 0.980785 0.074658 -0.185644 0.979583 0.076876
-0.906127 -0.195090 0.375330 -0.906339 -0.193915 0.375408
-0.353553 0.923880 0.146447 -0.358348 0.921690 0.148412
-0.853553 -0.382683 0.353554 -0.854366 -0.380535 0.353862
-0.513280 0.831470 0.212608 -0.517136 0.828639 0.214209
-0.768177 -0.555570 0.318190 -0.769890 -0.552751 0.318888
-0.653281 0.707107 0.270598 -0.656056 0.704031 0.271737
-0.653281 -0.707107 0.270598 -0.656056 -0.704031 0.271737
-0.768177 0.555570 0.318190 -0.769890 0.552751 0.318888
-0.513280 -0.831470 0.212608 -0.517136 -0.828639 0.214209
-0.853553 0.382683 0.353554 -0.854366 0.380535 0.353862
-0.906127 0.195090 0.375330 -0.906339 0.193915 0.375408
-0.693520 -0.707107 0.137950 -0.696493 -0.704031 0.138524
-0.693520 0.707107 0.137950 -0.696493 0.704031 0.138524
-0.815493 0.555570 0.162212 -0.817316 0.552751 0.162572
-0.544895 -0.831470 0.108387 -0.548997 -0.828639 0.109195
-0.906127 0.382683 0.180240 -0.906980 0.380535 0.180395
-0.375330 -0.923880 0.074658 -0.380413 -0.921690 0.075655
-0.961939 0.195090 0.191342 -0.962157 0.193915 0.191382
-0.191342 -0.980785 0.038061 -0.197089 -0.979583 0.039186
-0.980785 0.000000 0.195090 -0.980773 0.000000 0.195074
-0.191342 0.980785 0.038061 -0.197089 0.979583 0.039186
-0.961939 -0.195090 0.191342 -0.962157 -0.193915 0.191382
-0.375330 0.923880 0.074658 -0.380413 0.921690 0.075655
-0.906127 -0.382683 0.180240 -0.906980 -0.380535 0.180395
-0.544895 0.831470 0.108387 -0.548997 0.828639 0.109195
-0.815493 -0.555570 0.162212 -0.817316 -0.552751 0.162572
-0.195090 0.980785 0.000000 -0.200964 0.979583 0.000000
-0.195090 -0.980785 0.000000 -0.200964 -0.979583 0.000000
-1.000000 0.000000 0.000000 -1.000000 0.000000 0.000000
-0.980785 -0.195090 0.000000 -0.980987 -0.193915 0.000000
-0.382683 0.923880 0.000000 -0.387860 0.921690 0.000000
-0.923879 -0.382683 0.000000 -0.924741 -0.380535 0.000000
-0.555570 0.831470 0.000000 -0.559771 0.828639 0.000000
-0.831469 -0.555570 0.000000 -0.833338 -0.552751 0.000000
-0.707107 0.707107 0.000000 -0.710135 0.704031 0.000000
-0.707107 -0.707107 0.000000 -0.710135 -0.704031 0.000000
-0.831469 0.555570 0.000000 -0.833338 0.552751 0.000000
-0.555570 -0.831470 0.000000 -0.559771 -0.828639 0.000000
-0.923879 0.382683 0.000000 -0.924741 0.380535 0.000000
-0.382683 -0.923880 0.000000 -0.387860 -0.921690 0.000000
-0.980785 0.195090 0.000000 -0.980987 0.193915 0.000000
-0.693520 0.707107 -0.137949 -0.696493 0.704031 -0.138524
-0.815493 0.555570 -0.162211 -0.817316 0.552751 -0.162572
-0.544895 -0.831470 -0.108386 -0.548997 -0.828639 -0.109195
-0.906127 0.382683 -0.180240 -0.906980 0.380535 -0.180395
-0.375330 -0.923880 -0.074658 -0.380413 -0.921690 -0.075655
-0.961939 0.195090 -0.191342 -0.962157 0.193915 -0.191382
-0.191342 -0.980785 -0.038060 -0.197089 -0.979583 -0.039186
-0.980785 0.000000 -0.195090 -0.980773 0.000000 -0.195074
-0.191342 0.980785 -0.038060 -0.197089 0.979583 -0.039186
-0.961939 -0.195090 -0.191342 -0.962157 -0.193915 -0.191382
-0.375330 0.923880 -0.074658 -0.380413 0.921690 -0.075655
-0.906127 -0.382683 -0.180240 -0.906980 -0.380535 -0.180395
-0.544895 0.831470 -0.108386 -0.548997 0.828639 -0.109195
-0.815493 -0.555570 -0.162211 -0.817316 -0.552751 -0.162572
-0.693520 -0.707107 -0.137949 -0.696493 -0.704031 -0.138524
-0.906127 -0.195090 -0.375330 -0.906339 -0.193915 -0.375408
-0.353553 0.923880 -0.146446 -0.358348 0.921690 -0.148412
-0.853553 -0.382683 -0.353553 -0.854366 -0.380535 -0.353862
-0.513280 0.831470 -0.212607 -0.517136 0.828639 -0.214209
-0.768177 -0.555570 -0.318189 -0.769890 -0.552751 -0.318888
-0.653281 0.707107 -0.270598 -0.656056 0.704031 -0.271737
-0.653281 -0.707107 -0.270598 -0.656056 -0.704031 -0.271737
-0.768177 0.555570 -0.318189 -0.769890 0.552751 -0.318888
-0.513280 -0.831470 -0.212607 -0.517136 -0.828639 -0.214209
-0.853553 0.382683 -0.353553 -0.854366 0.380535 -0.353893
-0.353553 -0.923880 -0.146446 -0.358348 -0.921690 -0.148412
-0.906127 0.195090 -0.375330 -0.906339 0.193915 -0.375408
-0.180240 -0.980785 -0.074657 -0.185644 -0.979583 -0.076907
-0.923879 0.000000 -0.382683 -0.923856 0.000000 -0.382672
-0.180240 0.980785 -0.074658 -0.185644 0.979583 -0.076907
-0.461940 -0.831470 -0.308658 -0.465407 -0.828639 -0.310984
-0.768178 0.382683 -0.513280 -0.768914 0.380535 -0.513749
-0.318189 -0.923880 -0.212607 -0.322489 -0.921690 -0.215491
-0.815493 0.195090 -0.544895 -0.815668 0.193915 -0.545000
-0.162212 -0.980785 -0.108386 -0.167089 -0.979583 -0.111637
-0.831469 0.000000 -0.555570 -0.831446 0.000000 -0.555559
-0.162212 0.980785 -0.108386 -0.167089 0.979583 -0.111637
-0.815493 -0.195090 -0.544895 -0.815668 -0.193915 -0.545000
-0.318190 0.923880 -0.212607 -0.322489 0.921690 -0.215491
-0.768178 -0.382683 -0.513280 -0.768914 -0.380535 -0.513749
-0.461940 0.831470 -0.308658 -0.465407 0.828639 -0.310984
-0.691341 -0.555570 -0.461939 -0.692892 -0.552751 -0.462966
-0.587938 0.707107 -0.392847 -0.590442 0.704031 -0.394513
-0.587938 -0.707107 -0.392847 -0.590442 -0.704031 -0.394513
-0.691341 0.555570 -0.461939 -0.692892 0.552751 -0.462966
-0.270598 0.923880 -0.270598 -0.274270 0.921690 -0.274270
-0.653281 -0.382683 -0.653281 -0.653890 -0.380535 -0.653890
-0.392847 0.831470 -0.392847 -0.395795 0.828639 -0.395795
-0.587937 -0.555570 -0.587937 -0.589251 -0.552751 -0.589251
-0.500000 0.707107 -0.500000 -0.502121 0.704031 -0.502121
-0.500000 -0.707107 -0.500000 -0.502121 -0.704031 -0.502121
-0.587937 0.555570 -0.587937 -0.589251 0.552751 -0.589251
-0.392847 -0.831470 -0.392847 -0.395795 -0.828639 -0.395795
-0.653281 0.382683 -0.653281 -0.653890 0.380535 -0.653890
-0.270598 -0.923880 -0.270598 -0.274270 -0.921690 -0.274270
-0.693519 0.195090 -0.693519 -0.693655 0.193915 -0.693655
-0.137950 -0.980785 -0.137949 -0.142094 -0.979583 -0.142094
-0.707106 0.000000 -0.707106 -0.707083 0.000000 -0.707083
-0.137950 0.980785 -0.137949 -0.142094 0.979583 -0.142094
-0.693519 -0.195090 -0.693519 -0.693655 -0.193915 -0.693655
-0.513280 0.382683 -0.768177 -0.513749 0.380535 -0.768914
-0.212607 -0.923880 -0.318189 -0.215491 -0.921690 -0.322489
-0.544895 0.195090 -0.815492 -0.545000 0.193915 -0.815668
-0.108386 -0.980785 -0.162211 -0.111637 -0.979583 -0.167089
-0.555570 0.000000 -0.831469 -0.555559 0.000000 -0.831446
-0.108386 0.980785 -0.162211 -0.111637 0.979583 -0.167089
-0.544895 -0.195090 -0.815492 -0.545000 -0.193915 -0.815668
-0.212607 0.923880 -0.318189 -0.215491 0.921690 -0.322489
-0.513280 -0.382683 -0.768177 -0.513749 -0.380535 -0.768914
-0.308658 0.831470 -0.461939 -0.310984 0.828639 -0.465407
-0.461939 -0.555570 -0.691341 -0.462966 -0.552751 -0.692892
-0.392847 0.707107 -0.587937 -0.394513 0.704031 -0.590442
-0.392847 -0.707107 -0.587937 -0.394513 -0.704031 -0.590442
-0.461939 0.555570 -0.691341 -0.462966 0.552751 -0.692892
-0.308658 -0.831470 -0.461939 -0.310984 -0.828639 -0.465407
-0.353553 -0.382683 -0.853553 -0.353862 -0.380535 -0.854366
-0.146447 0.923880 -0.353553 -0.148412 0.921690 -0.358348
-0.212607 0.831470 -0.513280 -0.214209 0.828639 -0.517136
-0.318189 -0.555570 -0.768177 -0.318888 -0.552751 -0.769890
-0.270598 0.707107 -0.653281 -0.271737 0.704031 -0.656056
-0.270598 -0.707107 -0.653281 -0.271737 -0.704031 -0.656056
-0.318189 0.555570 -0.768177 -0.318888 0.552751 -0.769890
-0.212607 -0.831470 -0.513279 -0.214209 -0.828639 -0.517136
-0.353553 0.382683 -0.853553 -0.353862 0.380535 -0.854366
-0.146446 -0.923880 -0.353553 -0.148412 -0.921690 -0.358348
-0.375330 0.195090 -0.906127 -0.375408 0.193915 -0.906339
-0.074658 -0.980785 -0.180240 -0.076907 -0.979583 -0.185644
-0.382683 0.000000 -0.923879 -0.382672 0.000000 -0.923856
-0.074658 0.980785 -0.180240 -0.076907 0.979583 -0.185644
-0.375330 -0.195090 -0.906127 -0.375408 -0.193915 -0.906339
-0.074658 -0.923880 -0.375330 -0.075655 -0.921690 -0.380413
-0.180240 0.382683 -0.906127 -0.180395 0.380535 -0.906980
-0.191341 0.195090 -0.961939 -0.191382 0.193915 -0.962157
-0.038060 -0.980785 -0.191341 -0.039186 -0.979583 -0.197089
-0.195090 0.000000 -0.980785 -0.195074 0.000000 -0.980773
-0.038060 0.980785 -0.191342 -0.039186 0.979583 -0.197089
-0.191341 -0.195090 -0.961939 -0.191382 -0.193915 -0.962157
-0.074658 0.923880 -0.375330 -0.075655 0.921690 -0.380413
-0.180240 -0.382683 -0.906127 -0.180395 -0.380535 -0.906980
-0.108386 0.831470 -0.544895 -0.109195 0.828639 -0.548997
-0.162211 -0.555570 -0.815492 -0.162572 -0.552751 -0.817316
-0.137950 0.707107 -0.693520 -0.138524 0.704031 -0.696493
-0.137950 -0.707107 -0.693520 -0.138524 -0.704031 -0.696493
-0.162211 0.555570 -0.815492 -0.162572 0.552751 -0.817316
-0.108386 -0.831470 -0.544895 -0.109195 -0.828639 -0.548997
3 0 1 2
3 3 4 5
3 0 6 7
3 5 8 9
3 7 10 11
3 9 12 13
3 11 14 15
3 13 16 17
3 15 18 19
3 17 20 21
3 19 22 23
3 24 25 26
3 27 21 20
3 23 28 29
3 24 1 30
3 29 31 3
3 28 32 33
3 26 34 1
3 31 33 35
3 1 36 2
3 31 37 4
3 2 38 6
3 8 37 39
3 6 40 10
3 8 41 12
3 10 42 14
3 12 43 16
3 14 44 18
3 16 45 20
3 18 32 22
3 26 25 46
3 27 20 45
3 39 47 41
3 40 48 42
3 41 49 43
3 44 48 50
3 43 51 45
3 44 52 32
3 46 25 53
3 27 45 51
3 32 54 33
3 46 55 34
3 33 56 35
3 34 57 36
3 37 56 58
3 36 59 38
3 39 58 60
3 38 61 40
3 54 62 56
3 55 63 57
3 58 62 64
3 57 65 59
3 58 66 60
3 59 67 61
3 60 68 47
3 61 69 48
3 47 70 49
3 48 71 50
3 49 72 51
3 52 71 73
3 53 25 74
3 27 51 72
3 52 75 54
3 53 76 55
3 70 77 78
3 69 79 71
3 70 80 72
3 73 79 81
3 74 25 82
3 27 72 80
3 73 83 75
3 74 84 76
3 75 85 62
3 76 86 63
3 64 85 87
3 63 88 65
3 64 89 66
3 67 88 90
3 68 89 77
3 67 91 69
3 84 92 86
3 87 93 94
3 86 95 88
3 89 94 96
3 90 95 97
3 89 98 77
3 90 99 91
3 78 98 100
3 79 99 101
3 78 102 80
3 79 103 81
3 82 25 104
3 27 80 102
3 81 105 83
3 82 106 84
3 83 93 85
3 101 107 108
3 102 109 110
3 101 111 103
3 104 25 112
3 27 102 110
3 103 113 105
3 104 114 106
3 105 115 93
3 106 116 92
3 94 115 117
3 95 116 118
3 96 117 119
3 95 120 97
3 96 121 98
3 97 107 99
3 98 109 100
3 117 122 123
3 116 124 118
3 117 125 119
3 118 126 120
3 121 125 127
3 120 128 107
3 109 127 129
3 108 128 130
3 110 129 131
3 108 132 111
3 112 25 133
3 27 110 131
3 113 132 134
3 112 135 114
3 113 122 115
3 114 136 116
3 131 137 138
3 130 139 132
3 133 25 140
3 27 131 138
3 132 141 134
3 135 140 142
3 134 143 122
3 135 144 136
3 123 143 145
3 136 146 124
3 123 147 125
3 126 146 148
3 127 147 149
3 126 150 128
3 127 137 129
3 130 150 151
3 144 152 146
3 145 153 147
3 146 154 148
3 147 155 149
3 148 156 150
3 137 155 157
3 151 156 158
3 137 159 138
3 151 160 139
3 140 25 161
3 27 138 159
3 139 162 141
3 140 163 142
3 141 164 143
3 144 163 165
3 145 164 166
3 158 167 160
3 161 25 168
3 27 159 169
3 162 167 170
3 161 171 163
3 162 172 164
3 163 173 165
3 166 172 174
3 165 175 152
3 166 176 153
3 154 175 177
3 155 176 178
3 154 179 156
3 155 180 157
3 158 179 181
3 157 169 159
3 174 182 176
3 175 183 177
3 178 182 184
3 177 185 179
3 178 186 180
3 181 185 187
3 169 186 188
3 181 189 167
3 168 25 190
3 27 169 188
3 167 191 170
3 168 192 171
3 170 193 172
3 171 194 173
3 172 195 174
3 173 196 175
3 27 188 197
3 191 198 199
3 190 200 192
3 191 201 193
3 192 202 194
3 195 201 203
3 196 202 204
3 195 205 182
3 183 204 206
3 184 205 207
3 183 208 185
3 184 209 186
3 187 208 210
3 188 209 197
3 187 198 189
3 190 25 211
3 207 212 213
3 206 214 208
3 207 215 209
3 210 214 216
3 209 217 197
3 210 218 198
3 211 25 219
3 27 197 217
3 198 220 199
3 211 221 200
3 199 222 201
3 202 221 223
3 203 222 224
3 202 225 204
3 203 212 205
3 204 226 206
3 219 227 221
3 220 228 222
3 221 229 223
3 224 228 230
3 223 231 225
3 224 232 212
3 225 233 226
3 212 234 213
3 226 235 214
3 213 236 215
3 216 235 237
3 217 236 238
3 216 239 218
3 219 25 240
3 27 217 238
3 218 241 220
3 233 242 235
3 234 243 236
3 237 242 244
3 238 243 245
3 237 246 239
3 240 25 247
3 27 238 245
3 239 248 241
3 240 249 227
3 241 250 228
3 229 249 251
3 230 250 252
3 231 251 253
3 230 254 232
3 231 255 233
3 234 254 256
3 248 257 250
3 249 258 251
3 252 257 259
3 253 258 260
3 252 261 254
3 255 260 262
3 254 263 256
3 255 264 242
3 256 265 243
3 244 264 266
3 243 267 245
3 244 268 246
3 247 25 269
3 27 245 267
3 246 270 248
3 247 271 249
3 265 272 273
3 266 274 275
3 267 273 276
3 266 277 268
3 269 25 278
3 27 267 276
3 270 277 279
3 269 280 271
3 270 281 257
3 271 282 258
3 259 281 283
3 260 282 284
3 259 285 261
3 262 284 286
3 261 272 263
3 262 274 264
3 280 287 282
3 283 288 289
3 282 290 284
3 283 291 285
3 286 290 292
3 272 291 293
3 286 294 274
3 272 295 273
3 275 294 296
3 276 295 297
3 275 298 277
3 278 25 299
3 27 276 297
3 277 300 279
3 278 301 280
3 279 288 281
3 296 302 303
3 295 304 297
3 298 303 305
3 299 25 306
3 27 297 304
3 298 307 300
3 299 308 301
3 300 309 288
3 301 310 287
3 289 309 311
3 290 310 312
3 289 313 291
3 292 312 314
3 291 315 293
3 292 302 294
3 293 316 295
3 311 317 318
3 312 319 320
3 311 321 313
3 314 320 322
3 313 323 315
3 314 324 302
3 316 323 325
3 303 324 326
3 316 327 304
3 303 328 305
3 306 25 329
3 27 304 327
3 305 330 307
3 306 331 308
3 307 317 309
3 308 319 310
3 327 332 333
3 326 334 328
3 329 25 335
3 27 327 333
3 328 336 330
3 329 337 331
3 330 338 317
3 331 339 319
3 318 338 340
3 320 339 341
3 321 340 342
3 322 341 343
3 321 344 323
3 322 345 324
3 325 344 332
3 326 345 346
3 340 347 342
3 343 348 349
3 342 350 344
3 343 351 345
3 332 350 352
3 346 351 353
3 332 354 333
3 346 355 334
3 335 25 356
3 27 333 354
3 334 357 336
3 337 356 358
3 336 359 338
3 337 360 339
3 340 359 361
3 341 360 348
3 356 25 362
3 27 354 363
3 357 364 365
3 358 362 366
3 357 367 359
3 358 368 360
3 361 367 369
3 348 368 370
3 361 371 347
3 348 372 349
3 350 371 373
3 349 374 351
3 352 373 375
3 353 374 376
3 352 363 354
3 353 364 355
3 372 377 378
3 371 379 373
3 372 380 374
3 375 379 381
3 376 380 382
3 375 383 363
3 376 384 364
3 362 25 385
3 27 363 383
3 365 384 386
3 366 385 387
3 365 388 367
3 366 389 368
3 369 388 390
3 370 389 377
3 369 391 371
3 384 392 386
3 385 393 387
3 386 394 388
3 387 395 389
3 390 394 396
3 377 395 397
3 390 398 391
3 377 399 378
3 391 400 379
3 378 401 380
3 381 400 402
3 382 401 403
3 381 404 383
3 382 405 384
3 385 25 406
3 27 383 404
3 398 407 400
3 399 408 401
3 402 407 409
3 403 408 410
3 402 411 404
3 403 412 405
3 406 25 413
3 27 404 411
3 392 412 414
3 406 415 393
3 392 416 394
3 395 415 417
3 396 416 418
3 397 417 419
3 396 420 398
3 399 419 421
3 413 422 415
3 414 423 416
3 415 424 417
3 418 423 425
3 417 426 419
3 418 427 420
3 421 426 428
3 420 429 407
3 421 430 408
3 407 431 409
3 410 430 432
3 409 433 411
3 410 434 412
3 413 25 435
3 27 411 433
3 414 434 436
3 428 437 430
3 429 438 431
3 432 437 439
3 431 440 433
3 434 439 441
3 435 25 442
3 27 433 440
3 434 443 436
3 435 444 422
3 436 445 423
3 422 446 424
3 425 445 447
3 424 448 426
3 425 449 427
3 428 448 450
3 429 449 451
3 443 452 445
3 446 453 454
3 447 452 455
3 448 454 456
3 447 457 449
3 450 456 458
3 449 459 451
3 450 460 437
3 451 461 438
3 439 460 462
3 438 463 440
3 439 464 441
3 442 25 465
3 27 440 463
3 441 466 443
3 444 465 453
3 459 467 461
3 462 468 469
3 463 467 470
3 462 471 464
3 465 25 472
3 27 463 470
3 464 473 466
3 465 474 453
3 466 475 452
3 453 476 454
3 455 475 477
3 454 478 456
3 455 479 457
3 458 478 480
3 457 481 459
3 458 468 460
3 477 3 5
3 478 0 7
3 477 9 479
3 480 7 11
3 479 13 481
3 468 11 15
3 481 17 467
3 469 15 19
3 467 21 470
3 471 19 23
3 472 25 24
3 27 470 21
3 471 29 473
3 474 24 30
3 473 3 475
3 476 30 0
3 0 30 1
3 3 31 4
3 0 2 6
3 5 4 8
3 7 6 10
3 9 8 12
3 11 10 14
3 13 12 16
3 15 14 18
3 17 16 20
3 19 18 22
3 23 22 28
3 24 26 1
3 29 28 31
3 28 22 32
3 26 46 34
3 31 28 33
3 1 34 36
3 31 35 37
3 2 36 38
3 8 4 37
3 6 38 40
3 8 39 41
3 10 40 42
3 12 41 43
3 14 42 44
3 16 43 45
3 18 44 32
3 39 60 47
3 40 61 48
3 41 47 49
3 44 42 48
3 43 49 51
3 44 50 52
3 32 52 54
3 46 53 55
3 33 54 56
3 34 55 57
3 37 35 56
3 36 57 59
3 39 37 58
3 38 59 61
3 54 75 62
3 55 76 63
3 58 56 62
3 57 63 65
3 58 64 66
3 59 65 67
3 60 66 68
3 61 67 69
3 47 68 70
3 48 69 71
3 49 70 72
3 52 50 71
3 52 73 75
3 53 74 76
3 70 68 77
3 69 91 79
3 70 78 80
3 73 71 79
3 73 81 83
3 74 82 84
3 75 83 85
3 76 84 86
3 64 62 85
3 63 86 88
3 64 87 89
3 67 65 88
3 68 66 89
3 67 90 91
3 84 106 92
3 87 85 93
3 86 92 95
3 89 87 94
3 90 88 95
3 89 96 98
3 90 97 99
3 78 77 98
3 79 91 99
3 78 100 102
3 79 101 103
3 81 103 105
3 82 104 106
3 83 105 93
3 101 99 107
3 102 100 109
3 101 108 111
3 103 111 113
3 104 112 114
3 105 113 115
3 106 114 116
3 94 93 115
3 95 92 116
3 96 94 117
3 95 118 120
3 96 119 121
3 97 120 107
3 98 121 109
3 117 115 122
3 116 136 124
3 117 123 125
3 118 124 126
3 121 119 125
3 120 126 128
3 109 121 127
3 108 107 128
3 110 109 129
3 108 130 132
3 113 111 132
3 112 133 135
3 113 134 122
3 114 135 136
3 131 129 137
3 130 151 139
3 132 139 141
3 135 133 140
3 134 141 143
3 135 142 144
3 123 122 143
3 136 144 146
3 123 145 147
3 126 124 146
3 127 125 147
3 126 148 150
3 127 149 137
3 130 128 150
3 144 165 152
3 145 166 153
3 146 152 154
3 147 153 155
3 148 154 156
3 137 149 155
3 151 150 156
3 137 157 159
3 151 158 160
3 139 160 162
3 140 161 163
3 141 162 164
3 144 142 163
3 145 143 164
3 158 181 167
3 162 160 167
3 161 168 171
3 162 170 172
3 163 171 173
3 166 164 172
3 165 173 175
3 166 174 176
3 154 152 175
3 155 153 176
3 154 177 179
3 155 178 180
3 158 156 179
3 157 180 169
3 174 195 182
3 175 196 183
3 178 176 182
3 177 183 185
3 178 184 186
3 181 179 185
3 169 180 186
3 181 187 189
3 167 189 191
3 168 190 192
3 170 191 193
3 171 192 194
3 172 193 195
3 173 194 196
3 191 189 198
3 190 211 200
3 191 199 201
3 192 200 202
3 195 193 201
3 196 194 202
3 195 203 205
3 183 196 204
3 184 182 205
3 183 206 208
3 184 207 209
3 187 185 208
3 188 186 209
3 187 210 198
3 207 205 212
3 206 226 214
3 207 213 215
3 210 208 214
3 209 215 217
3 210 216 218
3 198 218 220
3 211 219 221
3 199 220 222
3 202 200 221
3 203 201 222
3 202 223 225
3 203 224 212
3 204 225 226
3 219 240 227
3 220 241 228
3 221 227 229
3 224 222 228
3 223 229 231
3 224 230 232
3 225 231 233
3 212 232 234
3 226 233 235
3 213 234 236
3 216 214 235
3 217 215 236
3 216 237 239
3 218 239 241
3 233 255 242
3 234 256 243
3 237 235 242
3 238 236 243
3 237 244 246
3 239 246 248
3 240 247 249
3 241 248 250
3 229 227 249
3 230 228 250
3 231 229 251
3 230 252 254
3 231 253 255
3 234 232 254
3 248 270 257
3 249 271 258
3 252 250 257
3 253 251 258
3 252 259 261
3 255 253 260
3 254 261 263
3 255 262 264
3 256 263 265
3 244 242 264
3 243 265 267
3 244 266 268
3 246 268 270
3 247 269 271
3 265 263 272
3 266 264 274
3 267 265 273
3 266 275 277
3 270 268 277
3 269 278 280
3 270 279 281
3 271 280 282
3 259 257 281
3 260 258 282
3 259 283 285
3 262 260 284
3 261 285 272
3 262 286 274
3 280 301 287
3 283 281 288
3 282 287 290
3 283 289 291
3 286 284 290
3 272 285 291
3 286 292 294
3 272 293 295
3 275 274 294
3 276 273 295
3 275 296 298
3 277 298 300
3 278 299 301
3 279 300 288
3 296 294 302
3 295 316 304
3 298 296 303
3 298 305 307
3 299 306 308
3 300 307 309
3 301 308 310
3 289 288 309
3 290 287 310
3 289 311 313
3 292 290 312
3 291 313 315
3 292 314 302
3 293 315 316
3 311 309 317
3 312 310 319
3 311 318 321
3 314 312 320
3 313 321 323
3 314 322 324
3 316 315 323
3 303 302 324
3 316 325 327
3 303 326 328
3 305 328 330
3 306 329 331
3 307 330 317
3 308 331 319
3 327 325 332
3 326 346 334
3 328 334 336
3 329 335 337
3 330 336 338
3 331 337 339
3 318 317 338
3 320 319 339
3 321 318 340
3 322 320 341
3 321 342 344
3 322 343 345
3 325 323 344
3 326 324 345
3 340 361 347
3 343 341 348
3 342 347 350
3 343 349 351
3 332 344 350
3 346 345 351
3 332 352 354
3 346 353 355
3 334 355 357
3 337 335 356
3 336 357 359
3 337 358 360
3 340 338 359
3 341 339 360
3 357 355 364
3 358 356 362
3 357 365 367
3 358 366 368
3 361 359 367
3 348 360 368
3 361 369 371
3 348 370 372
3 350 347 371
3 349 372 374
3 352 350 373
3 353 351 374
3 352 375 363
3 353 376 364
3 372 370 377
3 371 391 379
3 372 378 380
3 375 373 379
3 376 374 380
3 375 381 383
3 376 382 384
3 365 364 384
3 366 362 385
3 365 386 388
3 366 387 389
3 369 367 388
3 370 368 389
3 369 390 391
3 384 405 392
3 385 406 393
3 386 392 394
3 387 393 395
3 390 388 394
3 377 389 395
3 390 396 398
3 377 397 399
3 391 398 400
3 378 399 401
3 381 379 400
3 382 380 401
3 381 402 404
3 382 403 405
3 398 420 407
3 399 421 408
3 402 400 407
3 403 401 408
3 402 409 411
3 403 410 412
3 392 405 412
3 406 413 415
3 392 414 416
3 395 393 415
3 396 394 416
3 397 395 417
3 396 418 420
3 399 397 419
3 413 435 422
3 414 436 423
3 415 422 424
3 418 416 423
3 417 424 426
3 418 425 427
3 421 419 426
3 420 427 429
3 421 428 430
3 407 429 431
3 410 408 430
3 409 431 433
3 410 432 434
3 414 412 434
3 428 450 437
3 429 451 438
3 432 430 437
3 431 438 440
3 434 432 439
3 434 441 443
3 435 442 444
3 436 443 445
3 422 444 446
3 425 423 445
3 424 446 448
3 425 447 449
3 428 426 448
3 429 427 449
3 443 466 452
3 446 444 453
3 447 445 452
3 448 446 454
3 447 455 457
3 450 448 456
3 449 457 459
3 450 458 460
3 451 459 461
3 439 437 460
3 438 461 463
3 439 462 464
3 441 464 466
3 444 442 465
3 459 481 467
3 462 460 468
3 463 461 467
3 462 469 471
3 464 471 473
3 465 472 474
3 466 473 475
3 453 474 476
3 455 452 475
3 454 476 478
3 455 477 479
3 458 456 478
3 457 479 481
3 458 480 468
3 477 475 3
3 478 476 0
3 477 5 9
3 480 478 7
3 479 9 13
3 468 480 11
3 481 13 17
3 469 468 15
3 467 17 21
3 471 469 19
3 471 23 29
3 474 472 24
3 473 29 3
3 476 474 30
