ply
format ascii 1.0
comment Created by Blender 2.92.0 - www.blender.org
element vertex 88
property float x
property float y
property float z
property float nx
property float ny
property float nz
element face 56
property list uchar uint vertex_indices
end_header
-0.250000 -0.500000 -0.250000 0.000000 -1.000000 -0.000000
0.250000 -0.500000 0.250000 0.000000 -1.000000 -0.000000
-0.250000 -0.500000 0.250000 0.000000 -1.000000 -0.000000
-0.250000 -0.000000 0.250000 -0.000000 1.000000 0.000000
0.250000 0.000000 -0.250000 -0.000000 1.000000 0.000000
-0.250000 0.000000 -0.250000 -0.000000 1.000000 0.000000
0.250000 -0.000000 0.250000 1.000000 0.000000 -0.000000
0.250000 -0.500000 -0.250000 1.000000 0.000000 -0.000000
0.250000 0.000000 -0.250000 1.000000 0.000000 -0.000000
0.250000 0.000000 -0.250000 0.000000 0.000000 -1.000000
-0.250000 -0.500000 -0.250000 0.000000 0.000000 -1.000000
-0.250000 0.000000 -0.250000 0.000000 0.000000 -1.000000
-0.250000 -0.000000 0.250000 0.000000 0.000000 1.000000
0.250000 -0.500000 0.250000 0.000000 0.000000 1.000000
0.250000 -0.000000 0.250000 0.000000 0.000000 1.000000
-0.250000 0.000000 -0.250000 -1.000000 -0.000000 -0.000000
-0.250000 -0.500000 0.250000 -1.000000 -0.000000 -0.000000
-0.250000 -0.000000 0.250000 -1.000000 -0.000000 -0.000000
0.250000 -0.500000 -0.250000 -0.000000 -1.000000 -0.000000
0.250000 -0.000000 0.250000 0.000000 1.000000 0.000000
0.250000 -0.500000 0.250000 1.000000 0.000000 0.000000
0.250000 -0.500000 -0.250000 0.000000 0.000000 -1.000000
-0.250000 -0.500000 0.250000 0.000000 -0.000000 1.000000
-0.250000 -0.500000 -0.250000 -1.000000 0.000000 0.000000
-0.125000 0.000000 -0.125000 0.000000 -0.436645 -0.899634
0.000000 0.274498 -0.258230 0.000000 -0.436645 -0.899634
0.000000 0.000000 -0.125000 0.000000 -0.436645 -0.899634
-0.125000 -0.000000 0.125000 0.000000 -0.436645 0.899634
0.000000 0.274498 0.258230 0.000000 -0.436645 0.899634
-0.258230 0.274498 0.258230 0.000000 -0.436645 0.899634
0.000000 0.274498 -0.258230 0.000000 0.000000 -1.000000
-0.258230 0.386718 -0.258230 0.000000 0.000000 -1.000000
0.000000 0.386718 -0.258230 0.000000 0.000000 -1.000000
0.125000 -0.000000 0.125000 0.000000 -0.436645 0.899634
0.000000 -0.000000 0.125000 0.000000 -0.436645 0.899634
-0.125000 -0.000000 0.125000 -0.899634 -0.436645 0.000000
-0.258230 0.274498 0.000000 -0.899634 -0.436645 0.000000
-0.125000 0.000000 0.000000 -0.899634 -0.436645 0.000000
0.125000 0.000000 -0.125000 -0.000000 -0.436645 -0.899634
0.258230 0.274498 -0.258230 -0.000000 -0.436645 -0.899634
-0.125000 0.000000 -0.125000 -0.899634 -0.436645 0.000000
-0.258230 0.274498 -0.258230 -0.899634 -0.436645 0.000000
0.125000 0.000000 -0.125000 0.899634 -0.436645 0.000000
0.258230 0.274498 0.000000 0.899634 -0.436645 0.000000
0.125000 0.000000 0.000000 0.899634 -0.436645 0.000000
0.125000 -0.000000 0.125000 0.899634 -0.436645 0.000000
0.258230 0.274498 0.258230 0.899634 -0.436645 0.000000
-0.258230 0.386718 0.000000 0.000000 1.000000 0.000000
0.000000 0.386718 0.258230 0.000000 1.000000 0.000000
0.258230 0.386718 0.000000 0.000000 1.000000 0.000000
0.000000 0.274498 0.258230 0.000000 -0.000000 1.000000
0.258230 0.386718 0.258230 0.000000 -0.000000 1.000000
0.000000 0.386718 0.258230 0.000000 -0.000000 1.000000
0.258230 0.274498 0.000000 1.000000 0.000000 0.000000
0.258230 0.386718 -0.258230 1.000000 0.000000 0.000000
0.258230 0.386718 0.000000 1.000000 0.000000 0.000000
-0.258230 0.274498 0.000000 -1.000000 -0.000000 0.000000
-0.258230 0.386718 0.258230 -1.000000 -0.000000 0.000000
-0.258230 0.386718 0.000000 -1.000000 -0.000000 0.000000
0.000000 -0.000000 0.125000 0.000000 -1.000000 -0.000000
-0.125000 0.000000 0.000000 0.000000 -1.000000 -0.000000
0.000000 0.000000 -0.125000 0.000000 -1.000000 -0.000000
-0.258230 0.274498 -0.258230 -0.000000 -0.436645 -0.899634
0.258230 0.386718 -0.258230 0.000000 0.000000 -1.000000
0.258230 0.274498 -0.258230 0.000000 0.000000 -1.000000
-0.258230 0.274498 -0.258230 0.000000 0.000000 -1.000000
0.258230 0.274498 0.258230 0.000000 -0.436645 0.899634
-0.258230 0.274498 0.258230 -0.899634 -0.436645 0.000000
0.258230 0.274498 -0.258230 0.899634 -0.436645 0.000000
0.258230 0.386718 -0.258230 0.000000 1.000000 0.000000
0.000000 0.386718 -0.258230 0.000000 1.000000 0.000000
-0.258230 0.386718 -0.258230 -0.000000 1.000000 0.000000
-0.258230 0.386718 0.258230 0.000000 1.000000 0.000000
0.258230 0.386718 0.258230 0.000000 1.000000 -0.000000
-0.258230 0.386718 0.258230 0.000000 -0.000000 1.000000
-0.258230 0.274498 0.258230 0.000000 -0.000000 1.000000
0.258230 0.274498 0.258230 0.000000 -0.000000 1.000000
0.258230 0.386718 0.258230 1.000000 0.000000 0.000000
0.258230 0.274498 0.258230 1.000000 0.000000 0.000000
0.258230 0.274498 -0.258230 1.000000 0.000000 -0.000000
-0.258230 0.386718 -0.258230 -1.000000 0.000000 0.000000
-0.258230 0.274498 -0.258230 -1.000000 0.000000 0.000000
-0.258230 0.274498 0.258230 -1.000000 0.000000 -0.000000
0.125000 0.000000 -0.125000 0.000000 -1.000000 -0.000000
0.125000 0.000000 0.000000 0.000000 -1.000000 -0.000000
0.125000 -0.000000 0.125000 0.000000 -1.000000 -0.000000
-0.125000 -0.000000 0.125000 0.000000 -1.000000 -0.000000
-0.125000 0.000000 -0.125000 -0.000000 -1.000000 -0.000000
3 0 1 2
3 3 4 5
3 6 7 8
3 9 10 11
3 12 13 14
3 15 16 17
3 0 18 1
3 3 19 4
3 6 20 7
3 9 21 10
3 12 22 13
3 15 23 16
3 24 25 26
3 27 28 29
3 30 31 32
3 33 28 34
3 35 36 37
3 38 25 39
3 40 36 41
3 42 43 44
3 45 43 46
3 47 48 49
3 50 51 52
3 53 54 55
3 56 57 58
3 59 60 61
3 24 62 25
3 27 34 28
3 63 64 30
3 30 65 31
3 32 63 30
3 33 66 28
3 35 67 36
3 38 26 25
3 40 37 36
3 42 68 43
3 45 44 43
3 49 69 70
3 70 71 47
3 47 72 48
3 48 73 49
3 49 70 47
3 74 75 50
3 50 76 51
3 52 74 50
3 77 78 53
3 53 79 54
3 55 77 53
3 80 81 56
3 56 82 57
3 58 80 56
3 83 84 61
3 84 85 59
3 59 86 60
3 84 59 61
3 60 87 61
