ply
format ascii 1.0
comment Created by Blender 2.92.0 - www.blender.org
element vertex 40
property float x
property float y
property float z
property float nx
property float ny
property float nz
element face 10
property list uchar uint vertex_indices
end_header
-0.258230 0.274498 0.258230 0.000000 -0.436645 0.899634
-0.125000 -0.000000 0.125000 0.000000 -0.436645 0.899634
0.125000 -0.000000 0.125000 0.000000 -0.436645 0.899634
0.258230 0.274498 0.258230 0.000000 -0.436645 0.899634
-0.258230 0.274498 -0.258230 0.000000 -0.436645 -0.899634
0.258230 0.274498 -0.258230 0.000000 -0.436645 -0.899634
0.125000 0.000000 -0.125000 0.000000 -0.436645 -0.899634
-0.125000 0.000000 -0.125000 0.000000 -0.436645 -0.899634
0.258230 0.274498 -0.258230 0.899634 -0.436645 0.000000
0.258230 0.274498 0.258230 0.899634 -0.436645 0.000000
0.125000 -0.000000 0.125000 0.899634 -0.436645 0.000000
0.125000 0.000000 -0.125000 0.899634 -0.436645 0.000000
0.258230 0.274498 0.258230 0.000000 -0.000000 1.000000
0.258230 0.386718 0.258230 0.000000 -0.000000 1.000000
-0.258230 0.386718 0.258230 0.000000 -0.000000 1.000000
-0.258230 0.274498 0.258230 0.000000 -0.000000 1.000000
0.258230 0.274498 -0.258230 0.000000 0.000000 -1.000000
-0.258230 0.274498 -0.258230 0.000000 0.000000 -1.000000
-0.258230 0.386718 -0.258230 0.000000 0.000000 -1.000000
0.258230 0.386718 -0.258230 0.000000 0.000000 -1.000000
-0.258230 0.274498 0.258230 -0.899634 -0.436645 0.000000
-0.258230 0.274498 -0.258230 -0.899634 -0.436645 0.000000
-0.125000 0.000000 -0.125000 -0.899634 -0.436645 0.000000
-0.125000 -0.000000 0.125000 -0.899634 -0.436645 0.000000
-0.258230 0.274498 -0.258230 -1.000000 -0.000000 0.000000
-0.258230 0.274498 0.258230 -1.000000 -0.000000 0.000000
-0.258230 0.386718 0.258230 -1.000000 -0.000000 0.000000
-0.258230 0.386718 -0.258230 -1.000000 -0.000000 0.000000
-0.258230 0.386718 0.258230 0.000000 1.000000 -0.000000
0.258230 0.386718 0.258230 0.000000 1.000000 -0.000000
0.258230 0.386718 -0.258230 0.000000 1.000000 -0.000000
-0.258230 0.386718 -0.258230 0.000000 1.000000 -0.000000
0.258230 0.274498 0.258230 1.000000 0.000000 0.000000
0.258230 0.274498 -0.258230 1.000000 0.000000 0.000000
0.258230 0.386718 -0.258230 1.000000 0.000000 0.000000
0.258230 0.386718 0.258230 1.000000 0.000000 0.000000
0.125000 -0.000000 0.125000 0.000000 -1.000000 -0.000000
-0.125000 -0.000000 0.125000 0.000000 -1.000000 -0.000000
-0.125000 0.000000 -0.125000 0.000000 -1.000000 -0.000000
0.125000 0.000000 -0.125000 0.000000 -1.000000 -0.000000
4 0 1 2 3
4 4 5 6 7
4 8 9 10 11
4 12 13 14 15
4 16 17 18 19
4 20 21 22 23
4 24 25 26 27
4 28 29 30 31
4 32 33 34 35
4 36 37 38 39
