ply
format ascii 1.0
comment Created by Blender 2.92.0 - www.blender.org
element vertex 64
property float x
property float y
property float z
property float nx
property float ny
property float nz
element face 44
property list uchar uint vertex_indices
end_header
-0.125000 0.250000 -0.125000 0.000000 -0.436646 -0.899633
0.000000 0.524498 -0.258230 0.000000 -0.436646 -0.899633
0.000000 0.250000 -0.125000 0.000000 -0.436646 -0.899633
-0.125000 0.250000 0.125000 0.000000 -0.436646 0.899633
0.000000 0.524498 0.258230 0.000000 -0.436646 0.899633
-0.258230 0.524498 0.258230 0.000000 -0.436646 0.899633
0.000000 0.524498 -0.258230 -0.000000 -0.000000 -1.000000
-0.258230 0.636718 -0.258230 -0.000000 -0.000000 -1.000000
0.000000 0.636718 -0.258230 -0.000000 -0.000000 -1.000000
0.125000 0.250000 0.125000 0.000000 -0.436646 0.899633
0.000000 0.250000 0.125000 0.000000 -0.436646 0.899633
-0.125000 0.250000 0.125000 -0.899633 -0.436646 0.000000
-0.258230 0.524498 0.000000 -0.899633 -0.436646 0.000000
-0.125000 0.250000 0.000000 -0.899633 -0.436646 0.000000
0.125000 0.250000 -0.125000 -0.000000 -0.436646 -0.899633
0.258230 0.524498 -0.258230 -0.000000 -0.436646 -0.899633
-0.125000 0.250000 -0.125000 -0.899633 -0.436646 0.000000
-0.258230 0.524498 -0.258230 -0.899633 -0.436646 0.000000
0.125000 0.250000 -0.125000 0.899633 -0.436646 0.000000
0.258230 0.524498 0.000000 0.899633 -0.436646 0.000000
0.125000 0.250000 0.000000 0.899633 -0.436646 0.000000
0.125000 0.250000 0.125000 0.899633 -0.436646 0.000000
0.258230 0.524498 0.258230 0.899633 -0.436646 0.000000
-0.258230 0.636718 0.000000 0.000000 1.000000 0.000000
0.000000 0.636718 0.258230 0.000000 1.000000 0.000000
0.258230 0.636718 0.000000 0.000000 1.000000 0.000000
0.000000 0.524498 0.258230 -0.000000 0.000000 1.000000
0.258230 0.636718 0.258230 -0.000000 0.000000 1.000000
0.000000 0.636718 0.258230 -0.000000 0.000000 1.000000
0.258230 0.524498 0.000000 1.000000 0.000000 0.000000
0.258230 0.636718 -0.258230 1.000000 0.000000 0.000000
0.258230 0.636718 0.000000 1.000000 0.000000 0.000000
-0.258230 0.524498 0.000000 -1.000000 -0.000000 0.000000
-0.258230 0.636718 0.258230 -1.000000 -0.000000 0.000000
-0.258230 0.636718 0.000000 -1.000000 -0.000000 0.000000
0.000000 0.250000 0.125000 0.000000 -1.000000 0.000000
-0.125000 0.250000 0.000000 0.000000 -1.000000 0.000000
0.000000 0.250000 -0.125000 0.000000 -1.000000 0.000000
-0.258230 0.524498 -0.258230 -0.000000 -0.436646 -0.899633
0.258230 0.636718 -0.258230 0.000000 0.000000 -1.000000
0.258230 0.524498 -0.258230 0.000000 0.000000 -1.000000
-0.258230 0.524498 -0.258230 0.000000 0.000000 -1.000000
0.258230 0.524498 0.258230 0.000000 -0.436646 0.899633
-0.258230 0.524498 0.258230 -0.899633 -0.436646 0.000000
0.258230 0.524498 -0.258230 0.899633 -0.436646 0.000000
0.258230 0.636718 -0.258230 0.000000 1.000000 0.000000
0.000000 0.636718 -0.258230 0.000000 1.000000 0.000000
-0.258230 0.636718 -0.258230 -0.000000 1.000000 0.000000
-0.258230 0.636718 0.258230 0.000000 1.000000 0.000000
0.258230 0.636718 0.258230 0.000000 1.000000 -0.000000
-0.258230 0.636718 0.258230 0.000000 -0.000000 1.000000
-0.258230 0.524498 0.258230 0.000000 -0.000000 1.000000
0.258230 0.524498 0.258230 0.000000 0.000000 1.000000
0.258230 0.636718 0.258230 1.000000 0.000000 0.000000
0.258230 0.524498 0.258230 1.000000 0.000000 0.000000
0.258230 0.524498 -0.258230 1.000000 0.000000 -0.000000
-0.258230 0.636718 -0.258230 -1.000000 0.000000 0.000000
-0.258230 0.524498 -0.258230 -1.000000 0.000000 0.000000
-0.258230 0.524498 0.258230 -1.000000 -0.000000 -0.000000
0.125000 0.250000 -0.125000 0.000000 -1.000000 0.000000
0.125000 0.250000 0.000000 0.000000 -1.000000 0.000000
0.125000 0.250000 0.125000 0.000000 -1.000000 0.000000
-0.125000 0.250000 0.125000 0.000000 -1.000000 0.000000
-0.125000 0.250000 -0.125000 0.000000 -1.000000 0.000000
3 0 1 2
3 3 4 5
3 6 7 8
3 9 4 10
3 11 12 13
3 14 1 15
3 16 12 17
3 18 19 20
3 21 19 22
3 23 24 25
3 26 27 28
3 29 30 31
3 32 33 34
3 35 36 37
3 0 38 1
3 3 10 4
3 39 40 6
3 6 41 7
3 8 39 6
3 9 42 4
3 11 43 12
3 14 2 1
3 16 13 12
3 18 44 19
3 21 20 19
3 25 45 46
3 46 47 23
3 23 48 24
3 24 49 25
3 25 46 23
3 50 51 26
3 26 52 27
3 28 50 26
3 53 54 29
3 29 55 30
3 31 53 29
3 56 57 32
3 32 58 33
3 34 56 32
3 59 60 37
3 60 61 35
3 35 62 36
3 60 35 37
3 36 63 37
